<?xml version="1.0" encoding="UTF-8"?>
<svg version="1.1" xmlns="http://www.w3.org/2000/svg" width="411" height="300">
    <path
        d="M0 0 C2.77161044 1.77344866 4.93116248 4.05566476 7.20117188 6.42236328 C7.88345352 7.10522903 8.56573517 7.78809479 9.26869202 8.49165344 C11.51890144 10.75183166 13.74340034 13.03567579 15.96875 15.3203125 C17.53220336 16.89937211 19.0972922 18.47681395 20.66394043 20.05270386 C24.78662904 24.20778443 28.88832373 28.38298502 32.98553467 32.56317139 C37.95217618 37.62336616 42.94157887 42.66109513 47.9291153 47.70068169 C51.81317091 51.62572522 55.69326165 55.55441225 59.56140137 59.49514771 C60.27747055 60.22278824 60.99353973 60.95042877 61.73130798 61.70011902 C63.05677486 63.047146 64.38021528 64.39617179 65.70106506 65.74772644 C69.14177952 69.23882835 72.67275665 72.52888005 76.43505096 75.67202568 C78.7824285 77.66394811 80.91845174 79.72922009 83 82 C83 82.66 83 83.32 83 84 C83.66 84 84.32 84 85 84 C85 84.66 85 85.32 85 86 C90.96720134 80.9398453 96.53324204 75.57421836 102.0234375 70.00390625 C103.71992298 68.29479372 105.41654132 66.58581305 107.11328125 64.87695312 C109.7618242 62.20344258 112.40873075 59.528348 115.05322266 56.85083008 C117.62232281 54.25171376 120.19745374 51.65869771 122.7734375 49.06640625 C123.56922211 48.25716202 124.36500671 47.44791779 125.18490601 46.614151 C126.28712997 45.5068589 126.28712997 45.5068589 127.41162109 44.37719727 C128.05811615 43.72324478 128.70461121 43.0692923 129.37069702 42.39552307 C131 41 131 41 133 41 C133.268125 40.360625 133.53625 39.72125 133.8125 39.0625 C135 37 135 37 138 36 C138 35.34 138 34.68 138 34 C138.66 34 139.32 34 140 34 C140.268125 33.360625 140.53625 32.72125 140.8125 32.0625 C142 30 142 30 145 29 C145 28.34 145 27.68 145 27 C145.66 27 146.32 27 147 27 C147.33 26.01 147.66 25.02 148 24 C148.66 24 149.32 24 150 24 C150 23.34 150 22.68 150 22 C150.66 22 151.32 22 152 22 C152 21.34 152 20.68 152 20 C152.66 20 153.32 20 154 20 C154.33 19.01 154.66 18.02 155 17 C155.66 17 156.32 17 157 17 C157 16.34 157 15.68 157 15 C157.66 15 158.32 15 159 15 C159.4021875 14.0409375 159.4021875 14.0409375 159.8125 13.0625 C161 11 161 11 164 10 C164 9.34 164 8.68 164 8 C164.66 8 165.32 8 166 8 C166.33 7.01 166.66 6.02 167 5 C167.66 5 168.32 5 169 5 C169 4.34 169 3.68 169 3 C169.66 3 170.32 3 171 3 C171 2.34 171 1.68 171 1 C174.0832635 -0.54163175 176.60878099 -0.29747535 180 0 C182.36194891 2.05718131 182.91824275 3.28949251 183.27456665 6.3861084 C182.92373262 9.72607021 181.97574559 10.7121605 179.66943359 13.13476562 C178.42622345 14.44731323 178.42622345 14.44731323 177.15789795 15.78637695 C176.10723144 16.85951314 175.0543878 17.93051986 174 19 C173.37384041 19.63888153 172.74768082 20.27776306 172.10254669 20.93600464 C166.53366683 26.60759561 160.91315996 32.22700253 155.2890625 37.84375 C153.47050627 39.6629807 151.65209844 41.48235976 149.83383179 43.30187988 C146.04139605 47.09578321 142.24722309 50.88793648 138.45166016 54.67871094 C134.06721872 59.05768475 129.6864282 63.44028631 125.30746233 67.82473516 C121.07828123 72.05899858 116.84629782 76.29044834 112.61310959 80.52070618 C110.8173822 82.31576607 109.02239849 84.11157024 107.22816849 85.90812683 C104.7295526 88.40927407 102.22776808 90.90720755 99.72509766 93.40429688 C98.98326233 94.14815643 98.241427 94.89201599 97.47711182 95.65841675 C96.79603363 96.33667511 96.11495544 97.01493347 95.41323853 97.71374512 C94.82299707 98.30360954 94.23275562 98.89347397 93.62462807 99.50121307 C91.14048734 101.79293616 89.4666739 102.945259 86.07826042 103.34272099 C82.38997466 102.93208226 81.34858503 102.10360226 78.74783325 99.51646423 C77.95706894 98.74406403 77.16630463 97.97166382 76.35157776 97.17585754 C75.50353073 96.31723618 74.6554837 95.45861481 73.78173828 94.57397461 C72.87378006 93.6781366 71.96582184 92.78229858 71.03034973 91.85931396 C68.5433799 89.4039515 66.07581341 86.92991673 63.61223078 84.45111537 C61.55289792 82.38262943 59.48420222 80.32364009 57.4154042 78.26462752 C52.53456853 73.40669816 47.66915018 68.53370555 42.81347656 63.65063477 C37.80577529 58.61512968 32.77493938 53.60365081 27.73171246 48.60374635 C23.40033103 44.30814678 19.08270651 39.99906508 14.77604282 35.67868429 C12.2047111 33.09930923 9.62871704 30.52509589 7.03982925 27.96333122 C4.15365295 25.10579124 1.29678288 22.22058614 -1.55810547 19.33178711 C-2.41829788 18.48733536 -3.2784903 17.64288361 -4.16474915 16.77284241 C-10.50054731 10.28726675 -10.50054731 10.28726675 -10.59402466 6.03785706 C-10 3 -10 3 -8.9375 1.0625 C-5.7668727 -0.6762311 -3.57138951 -0.43633301 0 0 Z "
        fill="#aaa" transform="translate(120,84)" />
</svg>