<?xml version="1.0" standalone="no"?>
<!DOCTYPE svg PUBLIC "-//W3C//DTD SVG 20010904//EN"
 "http://www.w3.org/TR/2001/REC-SVG-20010904/DTD/svg10.dtd">
<svg version="1.0" xmlns="http://www.w3.org/2000/svg"
 viewBox="0 0 512.000000 512.000000"
 preserveAspectRatio="xMidYMid meet">

<g transform="translate(0.000000,512.000000) scale(0.100000,-0.100000)"
 stroke="none">
<path d="M144 3890 c-11 -4 -33 -22 -47 -40 l-27 -32 0 -184 c0 -201 5 -226
56 -259 17 -11 55 -19 105 -22 l79 -6 0 -72 0 -72 -51 -7 c-106 -14 -198 -86
-236 -185 -16 -42 -18 -97 -21 -608 -2 -377 1 -576 8 -603 12 -46 51 -95 90
-115 15 -8 95 -33 176 -55 82 -22 157 -43 166 -46 9 -3 34 -35 54 -72 83 -149
243 -260 413 -284 202 -30 410 55 532 217 l41 55 1032 0 1032 0 17 -29 c9 -15
46 -55 81 -89 207 -193 515 -203 742 -24 28 22 68 63 88 91 l38 51 207 0 c237
0 287 9 338 62 64 66 63 61 63 566 0 500 -3 528 -57 592 -72 86 -174 118 -693
220 -228 45 -425 87 -437 94 -18 10 -112 89 -607 518 -56 48 -122 99 -148 113
-64 35 -163 45 -451 45 l-228 0 -24 -25 c-32 -31 -33 -74 -2 -102 21 -20 36
-22 315 -29 l293 -7 42 -27 c23 -15 188 -154 367 -309 179 -156 344 -293 366
-307 33 -19 134 -43 465 -108 463 -92 524 -106 585 -142 46 -26 64 -62 64
-125 l0 -39 -132 0 c-159 0 -203 -15 -243 -84 -22 -37 -25 -55 -25 -135 0
-102 11 -133 60 -174 44 -37 89 -47 223 -47 l117 0 0 -184 c0 -158 -2 -185
-17 -197 -12 -10 -61 -15 -192 -17 l-176 -3 0 138 c0 129 -2 142 -29 208 -93
227 -294 364 -531 365 -152 0 -282 -56 -396 -169 -58 -58 -85 -94 -113 -153
l-36 -78 -435 0 c-422 0 -436 -1 -455 -20 -30 -30 -27 -83 6 -109 26 -20 37
-21 444 -21 l417 0 6 -63 c3 -34 9 -70 12 -80 7 -16 -46 -17 -965 -17 -803 0
-971 2 -967 13 3 8 8 44 12 80 l7 67 393 0 c382 0 393 1 419 21 33 26 36 79 6
109 -19 19 -33 20 -433 20 l-414 0 -38 78 c-70 142 -209 256 -365 297 -65 18
-188 19 -262 4 -238 -49 -431 -277 -440 -521 -2 -38 -7 -68 -12 -68 -30 0
-243 65 -253 78 -10 12 -13 78 -13 253 l0 237 24 6 c14 3 77 17 141 31 64 14
134 34 154 45 47 23 109 92 179 195 44 66 52 85 52 124 0 51 -26 102 -62 123
-16 9 -89 14 -253 18 l-230 5 2 38 c3 50 29 102 61 124 24 16 61 18 382 23
241 4 364 9 382 17 14 7 158 111 318 232 187 140 309 226 338 235 36 13 95 16
284 16 264 0 302 7 314 54 11 44 -4 76 -41 92 -41 17 -398 20 -509 4 -115 -17
-173 -51 -480 -282 l-289 -218 -53 0 -54 0 0 74 0 74 37 7 c108 20 123 49 123
237 0 162 -12 198 -73 222 -27 11 -670 88 -717 85 -8 0 -24 -4 -36 -9z m396
-180 c146 -16 268 -30 273 -30 4 0 7 -38 7 -85 l0 -85 -300 0 -300 0 0 115 0
115 28 0 c15 0 146 -14 292 -30z m120 -435 l0 -75 -100 0 -100 0 0 75 0 75
100 0 100 0 0 -75z m-136 -592 c-49 -76 -97 -134 -122 -147 -26 -13 -207 -56
-237 -56 -12 0 -15 20 -15 115 l0 115 196 0 196 0 -18 -27z m4446 -413 l0 -70
-109 0 c-60 0 -116 3 -125 6 -12 5 -16 20 -16 63 0 32 3 61 7 64 3 4 60 7 125
7 l118 0 0 -70z m-850 -71 c102 -23 211 -104 264 -194 55 -93 71 -222 40 -326
-49 -164 -197 -283 -367 -296 -316 -24 -542 308 -403 592 85 173 280 267 466
224z m-2956 -37 c209 -98 298 -351 197 -556 -59 -119 -170 -202 -305 -227
-174 -32 -357 64 -439 231 -30 61 -32 71 -32 175 0 103 2 114 32 177 52 111
158 199 270 228 21 5 77 8 125 6 71 -3 98 -9 152 -34z"/>
<path d="M3983 2029 c-54 -10 -91 -30 -130 -71 -43 -45 -63 -96 -63 -163 0
-67 16 -108 61 -160 127 -144 366 -78 410 113 38 161 -110 310 -278 281z m107
-174 c53 -56 15 -145 -62 -145 -52 0 -88 35 -88 85 0 77 97 116 150 60z"/>
<path d="M912 2011 c-144 -50 -205 -220 -125 -349 63 -102 195 -140 306 -89
196 90 173 380 -35 442 -65 19 -81 19 -146 -4z m107 -142 c32 -11 61 -52 61
-88 0 -11 -12 -33 -26 -50 -20 -25 -34 -31 -64 -31 -30 0 -44 6 -64 31 -49 58
-26 115 60 149 1 0 15 -5 33 -11z"/>
<path d="M1725 3383 c-65 -35 -336 -237 -358 -267 -18 -26 -23 -47 -25 -126
-4 -92 -3 -96 23 -122 36 -37 68 -40 360 -36 229 3 253 5 284 23 73 43 76 54
79 276 l3 200 -34 34 -35 35 -133 0 c-103 -1 -141 -5 -164 -17z m215 -262 c0
-108 -3 -130 -16 -135 -21 -8 -261 -8 -357 0 -117 10 -110 25 74 157 l151 107
74 0 74 0 0 -129z"/>
<path d="M2295 3390 c-11 -4 -31 -20 -45 -35 l-25 -27 0 -213 c0 -212 0 -214
24 -239 14 -15 41 -31 60 -37 24 -6 216 -9 553 -7 l516 3 25 23 c46 43 46 158
0 212 -31 37 -384 297 -428 316 -27 11 -99 14 -347 13 -172 0 -322 -4 -333 -9z
m802 -271 c98 -72 180 -133 182 -135 2 -2 -201 -4 -452 -4 l-457 0 0 135 0
135 274 0 274 0 179 -131z"/>
<path d="M2277 2592 c-24 -27 -22 -85 4 -108 19 -17 38 -19 195 -19 165 0 174
1 195 22 27 27 29 75 4 103 -17 19 -30 20 -200 20 -164 0 -184 -2 -198 -18z"/>
</g>
</svg>
