<?xml version="1.0" encoding="UTF-8"?>
<svg version="1.1" xmlns="http://www.w3.org/2000/svg"
    viewBox="10 0 420 300">
    <path
        d="M0 0 C2.91375745 2.0585645 5.32829619 4.53878035 7.81542969 7.08666992 C8.56265793 7.82820313 9.30988617 8.56973633 10.07975769 9.33374023 C12.54202407 11.78490713 14.98204532 14.25698368 17.421875 16.73046875 C19.1299472 18.44211847 20.83913119 20.15265938 22.54937744 21.86213684 C26.1293786 25.44682864 29.69908139 29.04136829 33.26123047 32.64379883 C37.82464491 37.25816307 42.40753991 41.8525515 46.99763107 46.44036388 C50.52784503 49.97139422 54.05018094 53.51019465 57.5699234 57.05166054 C59.25701624 58.74829123 60.94592452 60.4431187 62.6366806 62.13609886 C64.99948288 64.5054166 67.35213873 66.88435945 69.70214844 69.26635742 C70.40037216 69.96322159 71.09859589 70.66008575 71.81797791 71.37806702 C77.6943103 77.37153239 80.59781034 82.67154087 81.11328125 91.13671875 C80.50081304 106.61738066 63.36069961 118.8813228 53.23413086 129.06103516 C51.69677783 130.60999147 50.16392399 132.16342565 48.63549805 133.72119141 C46.40089064 135.9985196 44.15327457 138.26225556 41.90234375 140.5234375 C41.22815903 141.21513031 40.5539743 141.90682312 39.85935974 142.61947632 C34.02227474 148.43033179 27.81069918 152.60244734 19.3941803 153.14889526 C8.94240036 152.49889387 2.2217752 146.24869088 -4.77734375 139.1171875 C-5.75985932 138.13685458 -6.74348952 137.15763764 -7.72816467 136.17947388 C-9.77559161 134.13781426 -11.81024622 132.08446568 -13.83618164 130.02148438 C-16.41527324 127.39688658 -19.0223949 124.80241364 -21.63959408 122.21587944 C-23.67125299 120.20213629 -25.68799417 118.17395432 -27.70062447 116.14120865 C-29.11538653 114.71689426 -30.54155817 113.30394159 -31.96800232 111.8913269 C-38.23395857 105.46500997 -42.733539 99.15893867 -43.5 90 C-42.85758571 80.01643373 -37.23531546 73.39262151 -30.25 66.8125 C-29.4765625 66.05775391 -28.703125 65.30300781 -27.90625 64.52539062 C-24.38319076 61.11168809 -20.79933107 57.79782616 -17.078125 54.6015625 C-11.96609604 50.17974651 -7.25440987 45.36182799 -2.5 40.5625 C-1.5821875 39.64017578 -0.664375 38.71785156 0.28125 37.76757812 C2.52315055 35.51400101 4.762666 33.25810925 7 31 C3.10567183 26.32453952 -0.9570971 21.93442462 -5.3125 17.6875 C-11.85536355 11.30172801 -11.85536355 11.30172801 -12.375 6.625 C-12 3 -12 3 -9.9375 0.5 C-5.96932011 -1.52630462 -4.29559057 -1.17036738 0 0 Z M16.1081543 43.68066406 C15.35445557 44.45120117 14.60075684 45.22173828 13.82421875 46.015625 C12.58188477 47.27439453 12.58188477 47.27439453 11.31445312 48.55859375 C10.44755859 49.44675781 9.58066406 50.33492187 8.6875 51.25 C6.98543659 52.98669469 5.28107895 54.72114447 3.57421875 56.453125 C2.81713623 57.22817383 2.06005371 58.00322266 1.2800293 58.80175781 C-1 61 -1 61 -3.78588867 63.15917969 C-4.51654541 63.76665039 -5.24720215 64.37412109 -6 65 C-6 65.66 -6 66.32 -6 67 C-6.57596924 67.25289795 -7.15193848 67.5057959 -7.74536133 67.76635742 C-12.03896151 70.11563319 -15.24781857 73.87855616 -18.6875 77.3125 C-19.47189453 78.07240234 -20.25628906 78.83230469 -21.06445312 79.61523438 C-21.81017578 80.35708984 -22.55589844 81.09894531 -23.32421875 81.86328125 C-24.3464856 82.87322144 -24.3464856 82.87322144 -25.3894043 83.90356445 C-27.43132951 86.24186131 -27.43132951 86.24186131 -28 91 C2.69 91 33.38 91 65 91 C63.95800611 85.79003056 63.43552427 84.93657896 59.87915039 81.39331055 C58.56757713 80.0725074 58.56757713 80.0725074 57.22950745 78.72502136 C56.26924946 77.77855604 55.30862357 76.83246386 54.34765625 75.88671875 C53.36665672 74.90810444 52.38639646 73.92874855 51.40684509 72.94868469 C49.35588372 70.90084649 47.29839277 68.85988886 45.2355957 66.82397461 C42.58770436 64.21015221 39.95326093 61.58326563 37.32311344 58.95160198 C35.30172739 56.93075874 33.27517931 54.91516192 31.24682426 52.90131569 C30.27316804 51.93403501 29.30072824 50.96552833 28.32951546 49.9957943 C26.97478004 48.64537858 25.61269043 47.30235256 24.25024414 45.9597168 C23.4760463 45.19314255 22.70184845 44.4265683 21.90419006 43.63676453 C19.29864107 41.39714031 18.67897187 41.39681994 16.1081543 43.68066406 Z "
        transform="translate(66,13)" />
    <path
        d="M0 0 C1.46325462 -0.00856522 1.46325462 -0.00856522 2.95606995 -0.01730347 C4.55198723 -0.01898026 4.55198723 -0.01898026 6.18014526 -0.02069092 C7.3058342 -0.02565582 8.43152313 -0.03062073 9.59132385 -0.03573608 C13.31999318 -0.05035477 17.04861993 -0.05716011 20.77731323 -0.06268311 C23.37080893 -0.06843585 25.96430462 -0.07419357 28.55780029 -0.07995605 C33.30454835 -0.0891227 38.05127941 -0.09542261 42.79803479 -0.09845281 C49.7647027 -0.10292545 56.73117363 -0.12043805 63.69778168 -0.1494534 C69.74726326 -0.17376625 75.79665244 -0.18140165 81.84618759 -0.18312836 C84.41131536 -0.18614842 86.97644244 -0.19415504 89.54153824 -0.20731354 C93.13867169 -0.22444535 96.73533086 -0.22247579 100.33248901 -0.21600342 C101.38428848 -0.2252182 102.43608795 -0.23443298 103.51976013 -0.243927 C115.95038067 -0.17417036 124.84860323 3.54866592 134.04684448 11.85919189 C141.02437236 19.58035653 143.76178953 30.50828631 147.14450073 40.14044189 C147.74936114 41.83206579 148.35480942 43.52347962 148.96090698 45.21466064 C151.39342432 52.05881846 153.7853931 58.89822679 155.89059448 65.85137939 C156.33133301 67.27063721 156.33133301 67.27063721 156.78097534 68.71856689 C157.33951624 70.5276267 157.87942379 72.34259064 158.396698 74.16387939 C160.07859563 79.56113159 161.97438269 82.39098373 166.47262573 85.81231689 C168.84453522 87.69654406 170.30274555 89.89476392 171.89450073 92.45294189 C172.44621948 93.31532471 172.99793823 94.17770752 173.56637573 95.06622314 C178.66776312 105.00382679 178.61861814 114.30969501 178.61325073 125.20294189 C178.62036306 126.96214029 178.62806361 128.7213364 178.63632202 130.48052979 C178.64971914 134.15531884 178.65135649 137.82989318 178.64547729 141.50469971 C178.63957658 146.19536244 178.67021007 150.8849918 178.71059418 155.57545471 C178.7365369 159.20450311 178.73934283 162.83330453 178.73570251 166.46243286 C178.73738668 168.19107669 178.74696098 169.9197328 178.7648468 171.64828491 C178.9291856 189.48746239 178.9291856 189.48746239 173.14450073 196.14044189 C167.2197829 200.97694625 161.60876629 201.85565898 154.14450073 201.14044189 C148.45435208 199.06134912 144.71009769 195.64614611 141.51168823 190.52716064 C139.79055237 186.26366123 139.80702275 182.80323718 139.95700073 178.26544189 C139.97053589 177.48169189 139.98407104 176.69794189 139.99801636 175.89044189 C140.03308284 173.97347407 140.08688001 172.05686438 140.14450073 170.14044189 C139.59247986 170.20642075 139.04045898 170.2723996 138.47171021 170.34037781 C130.82628217 171.18542578 123.18852062 171.45243233 115.50387573 171.67559814 C114.09112933 171.71880279 112.67838937 171.7622186 111.26565552 171.80583191 C108.31061974 171.89626486 105.35552373 171.98422251 102.40036011 172.07037354 C98.68225836 172.17894814 94.96437385 172.29359602 91.24650764 172.40992165 C62.89135147 173.29335323 34.6831476 173.02460715 6.33029175 172.21331787 C2.01191354 172.0904238 -2.30656256 171.97107053 -6.62503052 171.85137939 C-15.03528391 171.61777768 -23.44542442 171.38038532 -31.85549927 171.14044189 C-31.91318481 172.17539795 -31.97087036 173.210354 -32.03030396 174.27667236 C-32.11240058 175.64534034 -32.19477179 177.01399186 -32.27737427 178.38262939 C-32.31459595 179.06349609 -32.35181763 179.74436279 -32.39016724 180.44586182 C-32.79729014 187.01969934 -33.88495441 190.79709126 -38.16799927 195.89044189 C-43.38918718 200.26166899 -47.58245963 201.72764558 -54.32815552 201.48419189 C-59.22717498 200.81786467 -63.06907151 199.09573596 -66.42581177 195.42169189 C-70.26306404 190.24688312 -71.00674044 185.99972465 -71.01663208 179.61480713 C-71.02159698 178.85014633 -71.02656189 178.08548553 -71.03167725 177.2976532 C-71.04629417 174.76477152 -71.0531023 172.2319526 -71.05862427 169.69903564 C-71.06437887 167.93365986 -71.07013657 166.16828409 -71.07589722 164.40290833 C-71.08640777 160.69652007 -71.09224917 156.9901535 -71.09573364 153.28375244 C-71.10119937 148.55518563 -71.12518579 143.82690953 -71.1537056 139.09843349 C-71.17242071 135.44793389 -71.17754242 131.79750282 -71.17906952 128.1469593 C-71.18207977 126.40519698 -71.19005275 124.66343539 -71.2032547 122.9217205 C-71.2832362 111.55241557 -71.30555797 101.05736842 -64.29299927 91.51544189 C-63.69358521 90.67755127 -63.09417114 89.83966064 -62.47659302 88.97637939 C-61.94163208 88.37052002 -61.40667114 87.76466064 -60.85549927 87.14044189 C-60.19549927 87.14044189 -59.53549927 87.14044189 -58.85549927 87.14044189 C-58.52549927 86.15044189 -58.19549927 85.16044189 -57.85549927 84.14044189 C-56.93124146 83.3031958 -56.93124146 83.3031958 -55.98831177 82.44903564 C-53.16916668 79.39754344 -52.05797037 76.06099426 -50.73049927 72.20294189 C-50.4426355 71.39606934 -50.15477173 70.58919678 -49.85818481 69.75787354 C-48.84164851 66.89063149 -47.84665902 64.01655508 -46.85549927 61.14044189 C-46.44928345 59.96320557 -46.04306763 58.78596924 -45.62454224 57.57305908 C-45.18973076 56.31169288 -44.75499918 55.05029913 -44.32034302 53.78887939 C-44.10134338 53.15342697 -43.88234375 52.51797455 -43.65670776 51.86326599 C-42.56766855 48.70057575 -41.48394559 45.53629923 -40.40774536 42.36920166 C-31.82479348 17.21280669 -31.82479348 17.21280669 -22.85549927 9.14044189 C-22.11299927 8.45981689 -21.37049927 7.77919189 -20.60549927 7.07794189 C-14.39863842 2.7049263 -7.6098817 0.0267536 0 0 Z M-14.1333313 27.49591064 C-17.36257365 32.45467917 -19.19840382 37.97639162 -21.08328247 43.5491333 C-21.7944046 45.64458296 -22.5383095 47.72617747 -23.28713989 49.80841064 C-25.60182886 56.43542852 -27.46585274 62.07679026 -26.85549927 69.14044189 C-25.78866636 71.22015644 -25.78866636 71.22015644 -23.85549927 72.14044189 C-15.61650613 73.52707627 -6.38516412 71.35183076 1.80856323 70.29473877 C19.03016573 68.16797461 36.24878732 67.93761181 53.58200073 67.95294189 C55.16198853 67.95285126 55.16198853 67.95285126 56.77389526 67.95275879 C77.32033129 67.96951453 97.50395155 69.04429174 117.87887573 71.75372314 C125.69756433 73.09424656 125.69756433 73.09424656 132.84371948 70.87091064 C134.42340937 68.76940128 134.83869337 67.77319722 135.14450073 65.14044189 C134.48346628 62.47201218 133.74819128 59.96761 132.86325073 57.37481689 C132.61208496 56.6225885 132.36091919 55.87036011 132.10214233 55.09533691 C131.56613636 53.50319057 131.02444353 51.91294909 130.47750854 50.32452393 C129.6544907 47.91963297 128.86358325 45.50576266 128.07418823 43.08966064 C123.62230464 29.63837287 123.62230464 29.63837287 113.20664978 20.57601929 C108.29251613 18.52699881 103.4161992 18.7207617 98.16378784 18.7522583 C96.53811134 18.74437286 96.53811134 18.74437286 94.8795929 18.73632812 C91.31019526 18.72316356 87.74124637 18.73185339 84.17184448 18.74200439 C81.68515436 18.7399828 79.19846482 18.73707064 76.71177673 18.73330688 C71.50594424 18.72888844 66.30026639 18.73529991 61.0944519 18.74932861 C55.7509158 18.76302727 50.4077072 18.76384151 45.06417847 18.74932861 C38.60458963 18.73193684 32.14518357 18.72921264 25.6855793 18.7389946 C23.2260083 18.74099469 20.76642949 18.73854405 18.3068676 18.73155594 C14.86964172 18.7239322 11.43300139 18.73555905 7.99581909 18.7522583 C6.98110535 18.74618561 5.9663916 18.74011292 4.92092896 18.7338562 C-3.46353223 18.80927016 -8.73218626 20.99015488 -14.1333313 27.49591064 Z M-40.85549927 112.14044189 C-42.83124364 116.09193063 -42.28740144 120.83358647 -41.85549927 125.14044189 C-40.06599292 128.99476326 -38.59215642 130.63817565 -35.10549927 133.01544189 C-31.17757023 134.37510964 -27.96261708 134.89464317 -23.85549927 134.14044189 C-19.22401956 131.60623602 -15.54517365 129.20946504 -13.85549927 124.14044189 C-13.43225792 117.68601139 -14.08421567 113.48907625 -18.35549927 108.32794189 C-22.01910017 105.42759118 -26.59423403 105.6969289 -31.05081177 105.71466064 C-35.48720239 106.3881517 -38.06109818 108.74849592 -40.85549927 112.14044189 Z M16.74191284 108.9944458 C14.95028688 112.52293306 14.40039963 114.25458058 15.14450073 118.14044189 C17.60723797 122.15379147 19.72391432 123.71770194 24.14450073 125.14044189 C26.98886003 125.44671291 26.98886003 125.44671291 30.03292847 125.4151001 C31.19440903 125.42463211 32.35588959 125.43416412 33.55256653 125.44398499 C34.79849075 125.44307358 36.04441498 125.44216217 37.32809448 125.44122314 C39.26048729 125.44765083 39.26048729 125.44765083 41.23191833 125.45420837 C43.95453007 125.46165396 46.67701209 125.46139142 49.39962769 125.45611572 C52.87757174 125.45032254 56.354983 125.46725576 59.83283901 125.4904604 C63.16461264 125.50878954 66.49627077 125.50501147 69.82809448 125.50372314 C71.69394447 125.51753777 71.69394447 125.51753777 73.5974884 125.53163147 C81.81589454 125.57215302 81.81589454 125.57215302 89.14450073 122.14044189 C91.7795433 119.08039246 92.15332724 117.64355307 92.08200073 113.57794189 C91.03216802 109.72855528 90.25875198 108.55244475 87.14450073 106.14044189 C84.07924328 105.52188712 84.07924328 105.52188712 80.61935425 105.59112549 C79.97331238 105.58090363 79.32727051 105.57068176 78.66165161 105.56015015 C76.53185694 105.53241149 74.4033605 105.53426637 72.27340698 105.53887939 C70.78894065 105.53110238 69.30447874 105.52243239 67.82002258 105.51290894 C64.71050584 105.49799627 61.60144329 105.4985577 58.49191284 105.50909424 C54.51223692 105.52068375 50.53442273 105.48682358 46.55505466 105.44040489 C43.48970219 105.41090031 40.42479664 105.40919038 37.35932732 105.41542435 C35.89251962 105.41439937 34.42568644 105.40395031 32.9590168 105.38380051 C24.04052782 104.83193127 24.04052782 104.83193127 16.74191284 108.9944458 Z M123.14450073 111.14044189 C120.41687689 115.62691283 120.62983969 120.03533636 121.14450073 125.14044189 C122.69699512 129.34130906 125.2033194 131.34584759 129.17965698 133.41387939 C133.57322362 135.03853823 137.5650022 134.82249808 141.89450073 132.95294189 C145.3643039 130.15782268 148.82273871 126.77783549 149.38278198 122.18731689 C149.56209529 116.63804195 148.95877495 113.47015857 145.14450073 109.14044189 C141.2039491 105.55812223 136.91782784 105.58085087 131.80856323 105.71856689 C127.56526782 106.3905257 125.97558421 107.94639899 123.14450073 111.14044189 Z "
        transform="translate(236.85549926757813,87.85955810546875)" />
    <path
        d="M0 0 C6.9340282 4.69066613 11.90025297 16.58136205 14.125 24.4375 C14.8040976 29.44584483 14.05831711 32.68327073 11.390625 36.86328125 C8.61574562 40.31475158 5.39498132 42.02337566 1.25 43.375 C-4.38706308 43.48774126 -8.44031134 41.62267759 -12.75 38.0625 C-15.96657763 34.08908058 -16.96679388 31.94646253 -16.65234375 26.77734375 C-16.01147458 22.13315737 -14.24337999 18.42094542 -12.0625 14.3125 C-11.71896484 13.63574219 -11.37542969 12.95898438 -11.02148438 12.26171875 C-4.07129471 -1.22138841 -4.07129471 -1.22138841 0 0 Z "
        transform="translate(155.875,122.5625)" />
</svg>