<?xml version="1.0" encoding="UTF-8"?>
<svg version="1.1" xmlns="http://www.w3.org/2000/svg"
    viewBox="105 55 225 190">
    <path
        d="M0 0 C1.22138924 -0.0129007 1.22138924 -0.0129007 2.467453 -0.02606201 C3.3573291 -0.03032196 4.2472052 -0.03458191 5.16404724 -0.03897095 C6.10427231 -0.04714844 7.04449738 -0.05532593 8.01321411 -0.06375122 C11.13046128 -0.08859781 14.24766282 -0.10512259 17.36497498 -0.11953735 C18.96391255 -0.12752287 18.96391255 -0.12752287 20.5951519 -0.13566971 C26.24115657 -0.16240262 31.88713916 -0.18177402 37.53318787 -0.19619751 C42.19777617 -0.20951864 46.86192515 -0.23733784 51.52635193 -0.27822876 C57.16438973 -0.32765355 62.80203 -0.35233128 68.44027519 -0.35942459 C70.58398208 -0.36612137 72.72768065 -0.38130216 74.8712635 -0.4053154 C96.18853746 -0.63042599 96.18853746 -0.63042599 103.98606873 5.15390015 C105.34731873 5.98921265 105.34731873 5.98921265 106.73606873 6.84140015 C113.2577531 13.54424242 116.45708737 22.3336186 119.42356873 31.02890015 C119.80118347 32.10792603 120.17879822 33.1869519 120.56785583 34.29867554 C121.33905714 36.5051907 122.10577151 38.71327942 122.86790466 40.92294312 C123.93531957 44.00725947 125.02267596 47.08362103 126.11888123 50.1578064 C126.76239341 51.96890378 127.40563777 53.78009635 128.04856873 55.59140015 C128.49704163 56.85089478 128.49704163 56.85089478 128.95457458 58.13583374 C130.98606873 63.92361824 130.98606873 63.92361824 130.98606873 66.15390015 C131.57259216 66.40011108 132.1591156 66.64632202 132.76341248 66.8999939 C135.35008725 68.35926033 136.71313396 69.88823122 138.54856873 72.21640015 C139.12735779 72.92925171 139.70614685 73.64210327 140.30247498 74.3765564 C145.34404067 82.69338518 145.44108328 90.99952145 145.41966248 100.5328064 C145.42423408 101.91325637 145.42954253 103.29370408 145.43554688 104.67414856 C145.44443206 107.55282907 145.4421064 110.43123145 145.43211365 113.30990601 C145.42060675 116.9805054 145.44088381 120.65014515 145.47003078 124.32061863 C145.48845895 127.16642749 145.4880877 130.01200886 145.48239326 132.85786247 C145.48216753 134.86295052 145.49899133 136.86801745 145.51620483 138.87303162 C145.46123206 146.090576 145.01847212 151.08009537 140.98606873 157.15390015 C136.8073897 160.77424826 132.68794659 161.82299421 127.19309998 161.5328064 C121.93400708 160.62991788 118.95437411 158.29600393 115.54856873 154.27890015 C112.71708357 148.79666292 113.68771421 142.12927804 113.98606873 136.15390015 C112.7726178 136.3842395 112.7726178 136.3842395 111.53465271 136.61923218 C91.44192732 139.64661908 70.29371557 138.30929096 50.01853943 138.28427124 C45.35717525 138.27857026 40.69586809 138.28196325 36.03450584 138.28770828 C-12.3607982 138.33850442 -12.3607982 138.33850442 -24.01393127 136.15390015 C-23.96172424 137.08009155 -23.96172424 137.08009155 -23.90846252 138.0249939 C-23.6968777 144.64457611 -23.83569248 151.602748 -28.47877502 156.7906189 C-33.22183273 160.83787351 -36.41793928 161.50979197 -42.47486877 161.4312439 C-46.2385353 161.02013571 -48.23183315 159.67103655 -51.01393127 157.15390015 C-54.41577385 152.79667123 -55.51625209 149.97758247 -55.5315094 144.46517944 C-55.54411804 143.15329147 -55.55672668 141.8414035 -55.56971741 140.48976135 C-55.5625549 139.06920838 -55.55435025 137.64866034 -55.54518127 136.2281189 C-55.54787963 134.75609583 -55.55176491 133.2840745 -55.55677795 131.8120575 C-55.56266252 128.73125185 -55.55414813 125.6509113 -55.53541565 122.57015991 C-55.51268626 118.64284573 -55.52571636 114.71662878 -55.54970551 110.78935528 C-55.56424385 107.74960754 -55.55952005 104.71011459 -55.54919434 101.67035866 C-55.54654601 100.22363972 -55.54972937 98.77689685 -55.55911255 97.33020592 C-55.61062694 87.15189762 -54.85333519 78.52107196 -47.45143127 70.90390015 C-42.40370715 65.64257522 -40.12291291 60.07147442 -37.83424377 53.2671814 C-37.22881019 51.5061016 -36.62334027 49.74503429 -36.01783752 47.98397827 C-35.07911738 45.23116554 -34.14272547 42.4775768 -33.20777893 39.72348022 C-22.72654917 8.92483227 -22.72654917 8.92483227 -10.76393127 2.77890015 C-7.15236457 1.11757946 -3.99726068 0.03150788 0 0 Z M-9.24147034 21.54476929 C-11.10027988 24.28100862 -12.24786974 26.79333074 -13.37330627 29.8999939 C-13.76647034 30.98473999 -14.1596344 32.06948608 -14.56471252 33.18710327 C-14.96045471 34.31052124 -15.3561969 35.43393921 -15.76393127 36.59140015 C-16.38074768 38.27072632 -16.38074768 38.27072632 -17.01002502 39.98397827 C-18.88555663 45.23359746 -20.40012429 49.51077369 -20.01393127 55.15390015 C-18.95813789 57.14742501 -18.95813789 57.14742501 -17.01393127 58.15390015 C-14.64244011 58.37315803 -14.64244011 58.37315803 -11.95143127 57.96640015 C-10.87764221 57.84909546 -9.80385315 57.73179077 -8.69752502 57.6109314 C-7.48193909 57.46011108 -6.26635315 57.30929077 -5.01393127 57.15390015 C27.46346206 53.24392337 60.47399041 52.46898384 92.90574646 57.22543335 C98.18683583 57.96685057 102.78724542 58.5263895 107.98606873 57.15390015 C110.19381918 54.49428577 110.19381918 54.49428577 109.87791443 52.28549194 C108.32262345 46.04780532 106.35855481 40.01111684 104.17356873 33.96640015 C103.84292419 33.00798218 103.51227966 32.04956421 103.1716156 31.06210327 C100.97674591 24.96617919 98.88377783 19.25256891 92.87826538 16.01898193 C88.93249648 14.8387673 85.25798192 14.85886266 81.16014099 14.8633728 C80.28147369 14.85665558 79.4028064 14.84993835 78.49751282 14.84301758 C75.59910902 14.82405279 72.70093691 14.82011437 69.80247498 14.81796265 C67.78375148 14.81153446 65.76502892 14.80480608 63.74630737 14.79779053 C59.5172052 14.78582214 55.28818469 14.78210934 51.05906677 14.78329468 C45.64402053 14.78349802 40.22949818 14.75617777 34.81457615 14.72175026 C30.64609375 14.69949914 26.4777379 14.69545657 22.30920219 14.69651413 C20.31293365 14.69415618 18.31666172 14.68532174 16.32045174 14.6698494 C13.52705914 14.65022258 10.73480242 14.65601409 7.94139099 14.6680603 C7.11990067 14.65682129 6.29841034 14.64558228 5.45202637 14.63400269 C-1.0389093 14.7050234 -4.75353701 16.72776676 -9.24147034 21.54476929 Z M-30.01393127 88.15390015 C-32.4052306 91.06504715 -32.48494223 94.39904928 -32.40846252 98.1187439 C-31.70040945 101.77117612 -29.63858495 103.59173823 -27.01393127 106.15390015 C-23.79661577 107.7625579 -20.50317007 107.62086147 -17.01393127 107.15390015 C-13.60245373 105.44816137 -11.63045633 104.11889588 -9.57643127 100.90390015 C-8.80338458 97.12456073 -8.76320276 93.79572728 -10.01393127 90.15390015 C-12.99741838 86.81523601 -15.18301782 85.41072794 -19.45143127 84.09140015 C-24.24708032 84.17553434 -26.13947794 85.34302224 -30.01393127 88.15390015 Z M14.98606873 87.15390015 C13.58149136 89.96305489 13.73711715 92.04200549 13.98606873 95.15390015 C15.76591277 98.28981585 16.50915079 98.9949275 19.98606873 100.15390015 C21.6006424 100.26068002 23.21914659 100.31252026 24.83714294 100.3309021 C25.82181549 100.34373734 26.80648804 100.35657257 27.82099915 100.36979675 C28.88351898 100.37718369 29.94603882 100.38457062 31.04075623 100.3921814 C32.13445526 100.40025314 33.2281543 100.40832489 34.35499573 100.41664124 C36.66999224 100.43047563 38.98500909 100.44120066 41.30003357 100.44906616 C44.84030183 100.46629906 48.37964113 100.51019447 51.91966248 100.55429077 C54.16835352 100.56441604 56.41705251 100.57293266 58.66575623 100.5796814 C59.7242276 100.59718948 60.78269897 100.61469757 61.87324524 100.63273621 C67.8083823 100.6270041 67.8083823 100.6270041 73.15647888 98.25448608 C75.15438585 95.96065215 75.62455994 95.08627273 75.48606873 92.09140015 C75.3079473 88.31465763 75.3079473 88.31465763 73.67356873 86.21640015 C70.54082703 84.24393316 67.82695173 84.02173026 64.22679138 83.99276733 C62.77981369 83.97835602 62.77981369 83.97835602 61.30360413 83.96365356 C60.26295807 83.95940369 59.22231201 83.95515381 58.15013123 83.95077515 C56.54287674 83.94222504 56.54287674 83.94222504 54.90315247 83.9335022 C52.63522835 83.92405277 50.36729051 83.91751845 48.09934998 83.91366577 C44.63165835 83.90395779 41.16455879 83.87293231 37.69700623 83.84140015 C35.49388475 83.83487024 33.29075903 83.82961972 31.08763123 83.82577515 C30.05103363 83.81342834 29.01443604 83.80108154 27.94642639 83.7883606 C20.95051903 83.74602666 20.95051903 83.74602666 14.98606873 87.15390015 Z M104.36106873 85.96640015 C103.47548279 86.47106812 103.47548279 86.47106812 102.57200623 86.9859314 C100.2874223 88.66842054 99.12043322 90.41135951 98.61497498 93.2046814 C98.48991414 97.46410618 98.58906675 100.27680039 101.36106873 103.65390015 C104.93197835 107.05476645 106.92693034 107.50726034 111.88450623 107.43515015 C115.36457356 106.96941623 117.39520069 105.43633151 119.98606873 103.15390015 C121.91300578 100.05404488 121.99207778 98.3221536 121.86106873 94.65390015 C120.88941511 90.76728569 119.8447352 88.93315922 116.98606873 86.15390015 C112.51346372 83.80578252 108.79402766 83.35935161 104.36106873 85.96640015 Z "
        transform="translate(172.01393127441406,65.84609985351563)" />
</svg>