<?xml version="1.0" standalone="no"?>
<!DOCTYPE svg PUBLIC "-//W3C//DTD SVG 20010904//EN"
 "http://www.w3.org/TR/2001/REC-SVG-20010904/DTD/svg10.dtd">
<svg version="1.0" xmlns="http://www.w3.org/2000/svg"
 viewBox="0 0 512.000000 512.000000"
 preserveAspectRatio="xMidYMid meet">
<g transform="translate(0.000000,512.000000) scale(0.100000,-0.100000)"
 stroke="none">
<path d="M2368 4599 c-123 -29 -266 -149 -347 -292 -52 -92 -106 -242 -123
-343 l-12 -72 -101 -4 c-90 -3 -106 -6 -142 -30 -63 -41 -73 -74 -73 -233 0
-150 7 -173 60 -219 17 -14 49 -30 71 -36 30 -8 39 -15 35 -26 -3 -9 -6 -18
-6 -20 0 -2 -182 -4 -404 -4 -375 0 -409 -1 -468 -20 -235 -72 -434 -357 -492
-702 l-12 -73 -115 -5 c-147 -6 -188 -27 -224 -113 -21 -52 -21 -283 1 -335
28 -68 66 -96 155 -116 l27 -6 -21 -62 c-18 -56 -21 -94 -25 -353 l-4 -289
-27 -35 c-25 -33 -26 -40 -26 -151 0 -112 1 -118 28 -153 15 -19 42 -41 61
-48 l34 -12 4 -102 c5 -116 18 -148 81 -199 l39 -31 305 -3 c295 -3 306 -2
350 19 27 13 55 37 71 62 24 35 27 52 30 143 l4 104 184 0 c159 0 188 -2 211
-17 24 -16 65 -18 413 -21 350 -3 391 -1 431 15 35 14 82 18 237 20 l192 4 0
-96 c0 -128 24 -177 107 -219 27 -14 75 -16 328 -16 271 0 299 2 333 19 77 39
102 93 102 221 l0 90 33 14 c39 16 82 61 96 99 16 40 14 181 -3 220 -7 18 -23
41 -35 51 -20 19 -21 26 -21 295 0 262 -7 339 -35 412 -5 13 5 17 56 23 82 8
137 40 169 96 23 41 25 58 28 178 l4 132 63 0 63 0 4 -94 c3 -88 5 -97 34
-133 57 -71 66 -73 363 -73 248 0 267 1 308 21 68 33 93 85 93 193 0 85 0 87
27 97 68 25 102 91 103 192 0 67 -17 125 -44 157 -11 12 -15 74 -18 280 -4
204 -8 276 -20 313 l-16 47 31 0 c87 0 155 43 182 114 13 34 16 70 13 173 -3
124 -4 131 -31 167 -49 64 -67 70 -210 76 l-130 5 -19 94 c-24 122 -40 159
-71 166 -40 10 -69 2 -90 -27 l-20 -27 22 -85 c20 -81 49 -331 40 -341 -3 -2
-30 5 -61 16 l-55 21 -6 121 c-3 67 -13 149 -22 182 -38 136 -124 267 -208
315 l-52 30 -885 0 c-1003 0 -926 6 -1013 -84 -96 -98 -155 -260 -164 -448
l-6 -116 -53 -20 -54 -20 0 97 c1 294 138 575 324 662 l63 29 909 -2 909 -3
46 -22 c25 -13 69 -43 98 -68 31 -27 63 -45 77 -45 33 0 74 42 74 76 0 35 -82
117 -159 158 -107 57 -78 56 -1061 55 -498 -1 -922 -5 -942 -10z m1841 -420
c79 -78 121 -192 128 -346 l6 -113 -1027 0 -1026 0 0 78 c1 149 45 285 120
366 l43 46 863 0 862 0 31 -31z m-2329 -523 c0 -77 -2 -87 -26 -116 -24 -28
-31 -31 -78 -28 l-51 3 -3 99 c-1 55 0 106 2 113 4 9 27 13 81 13 l75 0 0 -84z
m3088 -25 c2 -77 -1 -107 -10 -113 -7 -4 -44 -8 -82 -8 -58 0 -74 4 -93 22
-21 19 -23 30 -23 115 l0 94 103 -3 102 -3 3 -104z m-2419 -176 c39 -64 71
-120 71 -125 0 -6 -140 -10 -365 -10 -201 0 -365 4 -365 9 0 29 86 130 148
173 79 54 131 66 293 67 l147 1 71 -115z m1421 109 c0 -20 -158 -259 -184
-279 -50 -38 -105 -44 -382 -45 l-262 0 -76 36 c-65 31 -90 37 -167 42 -82 4
-91 7 -108 31 -25 35 -131 210 -131 216 0 3 295 5 655 5 360 0 655 -3 655 -6z
m562 -27 c123 -60 214 -177 238 -306 5 -29 10 -145 10 -257 l0 -204 -522 0
c-435 1 -527 3 -548 15 -18 10 -60 14 -142 15 l-118 0 -15 36 c-8 20 -15 38
-15 40 0 2 70 4 155 4 93 0 164 4 179 11 51 23 55 103 7 128 -12 7 -98 11
-220 11 l-200 0 -21 28 -22 27 219 6 c120 4 232 11 249 17 108 35 155 83 281
289 l107 175 161 -4 c152 -3 163 -5 217 -31z m-1547 -388 c177 -66 316 -292
370 -603 15 -87 21 -266 9 -266 -4 0 -28 8 -55 17 l-49 18 0 96 c0 281 -123
549 -292 635 l-47 24 -424 0 c-391 0 -425 -1 -440 -17 -29 -33 -31 -68 -4 -99
l25 -29 417 -5 417 -5 49 -53 c90 -98 137 -229 146 -409 l6 -113 -1183 0
-1182 0 7 103 c12 165 49 280 126 393 56 82 33 78 497 84 l414 5 19 24 c25 30
24 76 -1 101 -19 19 -33 20 -442 20 -391 0 -426 -2 -463 -19 -94 -43 -181
-152 -235 -294 -40 -102 -57 -188 -65 -328 l-7 -115 -50 -18 c-27 -10 -52 -15
-56 -12 -12 12 18 285 42 381 62 246 214 446 376 496 14 4 474 8 1022 8 985 1
998 1 1053 -20z m665 -564 l0 -65 -69 0 -69 0 -6 48 c-4 26 -9 55 -12 65 -5
15 3 17 75 17 l81 0 0 -65z m1188 -22 l3 -53 -520 0 -521 0 0 55 0 55 518 -2
517 -3 3 -52z m-4498 -294 c0 -93 -2 -103 -26 -135 -24 -31 -31 -34 -76 -34
-85 0 -88 4 -88 130 0 59 3 115 6 124 5 13 23 16 95 16 l89 0 0 -101z m3430
82 c5 -11 10 -65 10 -120 0 -124 -6 -131 -119 -131 -71 0 -77 2 -108 32 l-33
32 0 103 0 103 120 0 c108 0 120 -2 130 -19z m938 -63 l-3 -73 -245 0 -245 0
-3 73 -3 72 251 0 251 0 -3 -72z m-3588 -286 c133 -218 176 -268 263 -308 l62
-29 490 0 490 0 67 33 c36 18 81 49 100 70 18 20 87 124 151 230 l119 192 141
-1 c166 0 244 -17 331 -69 78 -47 141 -119 185 -210 l36 -75 3 -277 3 -278
-581 0 c-534 0 -584 1 -613 18 -29 15 -70 17 -437 17 -370 0 -408 -2 -433 -17
-24 -17 -71 -18 -612 -18 l-585 0 0 223 c0 122 5 251 10 287 23 147 129 288
263 351 86 40 127 47 292 48 l140 1 115 -188z m1560 183 c0 -2 -42 -73 -94
-156 -69 -113 -104 -161 -136 -183 l-42 -31 -456 -3 c-507 -3 -513 -2 -569 61
-27 31 -177 270 -189 302 -5 13 80 15 740 15 410 0 746 -2 746 -5z m-375
-1125 l0 -105 -370 0 -370 0 -3 94 c-1 52 0 101 2 108 5 11 74 13 373 11 l368
-3 0 -105z m-900 0 l0 -65 -582 -3 -583 -2 0 70 0 70 583 -2 582 -3 0 -65z
m2220 0 l0 -65 -582 -3 -583 -2 0 70 0 70 583 -2 582 -3 0 -65z m-2675 -298
c0 -47 -5 -83 -12 -90 -9 -9 -85 -12 -280 -12 -310 0 -288 -8 -288 109 l0 71
290 0 290 0 0 -78z m2540 -1 c0 -54 -4 -82 -14 -90 -9 -8 -92 -11 -282 -9
l-269 3 -3 88 -3 87 286 0 285 0 0 -79z"/>
<path d="M4314 3414 c-58 -21 -118 -75 -148 -136 -20 -41 -26 -67 -26 -120 0
-111 47 -191 142 -243 45 -25 64 -29 128 -29 57 0 85 5 116 22 104 54 155 135
156 246 1 192 -187 324 -368 260z m155 -148 c87 -45 82 -179 -7 -222 -50 -24
-100 -13 -139 31 -94 101 23 254 146 191z"/>
<path d="M619 1996 c-118 -42 -194 -152 -193 -281 1 -119 57 -211 162 -262 74
-36 182 -39 253 -7 147 68 215 255 145 398 -33 66 -100 129 -163 150 -56 19
-154 20 -204 2z m178 -156 c41 -25 66 -73 66 -128 0 -69 -56 -129 -130 -139
-115 -15 -202 126 -138 224 40 61 138 82 202 43z"/>
<path d="M3025 1987 c-70 -33 -141 -114 -161 -185 -41 -139 23 -285 151 -347
116 -57 234 -41 328 45 75 69 100 129 95 229 -6 116 -59 203 -154 251 -72 37
-190 40 -259 7z m199 -146 c94 -62 87 -202 -14 -254 -127 -66 -264 89 -185
209 40 61 140 84 199 45z"/>
<path d="M1430 1550 c-25 -25 -26 -71 -1 -101 l19 -24 468 -3 c323 -2 477 1
495 8 25 11 49 46 49 74 0 7 -9 25 -21 40 l-20 26 -485 0 c-471 0 -485 -1
-504 -20z"/>
</g>
</svg>
