<?xml version="1.0" encoding="UTF-8"?>
<svg version="1.1" xmlns="http://www.w3.org/2000/svg"
    viewBox="60 30 320 250.000000">
    <path
        d="M0 0 C1.11937865 -0.00538554 2.23875731 -0.01077108 3.39205652 -0.01631981 C7.13286738 -0.03059666 10.87332426 -0.02349609 14.614151 -0.01637268 C17.30021276 -0.02207637 19.98624934 -0.02894026 22.67230225 -0.03717041 C29.20481018 -0.05433916 35.73722184 -0.05520247 42.26974647 -0.04995751 C47.58079673 -0.04591113 52.8918186 -0.04736491 58.20286751 -0.05270576 C58.95963406 -0.05345419 59.71640062 -0.05420261 60.49609949 -0.05497371 C62.03361364 -0.05650523 63.57112779 -0.05804358 65.10864193 -0.05958868 C79.51685995 -0.07330665 93.92502362 -0.06788088 108.3332404 -0.05640347 C121.50548667 -0.04647092 134.67759248 -0.05941334 147.84981709 -0.08333766 C161.38654698 -0.10773814 174.92321147 -0.11733426 188.4599629 -0.11068493 C196.05524853 -0.10719493 203.65042615 -0.10941031 211.24569511 -0.12693596 C217.71104009 -0.14166979 224.17620096 -0.14227801 230.64154237 -0.12486505 C233.93795539 -0.11636237 237.23397266 -0.11636208 240.53038025 -0.1295166 C244.10918631 -0.14270688 247.68710131 -0.1311948 251.26586914 -0.11352539 C252.30031644 -0.1231304 253.33476375 -0.1327354 254.40055794 -0.14263147 C263.81409609 -0.04713453 271.00474618 2.91622701 277.90345764 9.33299255 C284.66586083 17.08250035 285.81672967 25.69834214 285.83013916 35.69195557 C285.83240472 36.39325189 285.83467027 37.09454821 285.83700448 37.81709594 C285.84329567 40.1489907 285.84251828 42.48082661 285.84169006 44.81272888 C285.8446846 46.4920967 285.84808781 48.17146384 285.85186768 49.85083008 C285.86068185 54.40053237 285.8630447 58.95021584 285.86368346 63.49992585 C285.86439543 66.34586611 285.86653253 69.19180163 285.86918068 72.03774071 C285.87842555 81.9760862 285.88251664 91.9144183 285.88172913 101.85276794 C285.88112856 111.10095358 285.89167839 120.34908084 285.90747279 129.59725171 C285.92056967 137.55077697 285.92591212 145.50428321 285.92527372 153.45781916 C285.92501936 158.20211287 285.927836 162.94635467 285.93845177 167.69063759 C285.94816895 172.15499376 285.9481872 176.61924879 285.94093513 181.08360863 C285.93989379 182.71616133 285.9422253 184.34872046 285.94829559 185.98126221 C285.9957996 199.64904844 285.50111492 210.25985764 276.44642639 221.07518005 C267.48741274 228.60889608 259.2879849 229.53877173 247.93034363 229.52139282 C246.3017832 229.52479116 246.3017832 229.52479116 244.64032257 229.52825814 C241.00162371 229.53458921 237.36296218 229.53376935 233.72425842 229.53294373 C231.11569673 229.53593575 228.50713549 229.53933838 225.89857483 229.54312134 C219.54796628 229.55141907 213.19736701 229.55417577 206.84675349 229.55473372 C201.68392009 229.55520925 196.52108973 229.55726588 191.35825729 229.56043434 C176.71444738 229.5692382 162.07064479 229.57385409 147.42683221 229.57310387 C146.6377856 229.57306391 145.84873898 229.57302396 145.03578186 229.57298279 C144.24576982 229.57294191 143.45575779 229.57290103 142.64180599 229.57285891 C129.83739042 229.57245242 117.03300425 229.58202336 104.22859718 229.59612115 C91.07502216 229.61048892 77.92146148 229.61739113 64.76787841 229.61652738 C57.38556989 229.61619557 50.0032922 229.61893574 42.62099075 229.62970543 C35.67874337 229.63976843 28.73656211 229.63947099 21.79431152 229.6321888 C19.24660014 229.63114201 16.69888471 229.63351141 14.15118027 229.63954926 C10.67286881 229.64725859 7.19478298 229.64263117 3.71647644 229.63491821 C2.70887964 229.64006178 1.70128285 229.64520534 0.66315281 229.65050477 C-9.30526691 229.60167417 -17.19983657 227.7623118 -24.92857361 221.13768005 C-34.53494117 210.01451761 -34.60006507 198.5858281 -34.56236267 184.53611755 C-34.56507619 182.83512726 -34.56863915 181.13413815 -34.57298279 179.43315125 C-34.5820661 174.83402348 -34.57857933 170.23498588 -34.57222462 165.63585663 C-34.56714357 160.8114295 -34.57186191 155.98700984 -34.57499695 151.1625824 C-34.57863046 143.06247071 -34.57385362 134.96239556 -34.5643158 126.86228943 C-34.55343244 117.51179006 -34.55695845 108.16137792 -34.56796861 98.81088066 C-34.57705899 90.76730543 -34.5783182 82.72375639 -34.57309127 74.68017769 C-34.5699812 69.88285519 -34.56953569 65.08557362 -34.57616425 60.28825378 C-34.58196258 55.77708118 -34.57789543 51.2660205 -34.56637573 46.75485992 C-34.56374242 45.10415075 -34.56447139 43.45343208 -34.56890106 41.80272675 C-34.59946253 29.25221694 -34.5122977 18.09036382 -25.47935486 8.4384613 C-17.71947077 1.16642848 -10.30582009 -0.05974704 0 0 Z M-14.15476418 23.62210083 C-15.60715478 27.11850429 -15.68119528 29.8493833 -15.68452454 33.63694763 C-15.68920451 34.35639714 -15.69388448 35.07584665 -15.69870627 35.81709766 C-15.71065041 38.22232434 -15.70120161 40.62698063 -15.6917572 43.0322113 C-15.69582317 44.7588077 -15.70116519 46.48540149 -15.70768738 48.21199036 C-15.72136378 52.89789586 -15.71606098 57.58360321 -15.70655012 62.26951218 C-15.69895523 67.1732461 -15.70599866 72.07696305 -15.71070862 76.98069763 C-15.71616666 85.21567328 -15.70897327 93.45056822 -15.69468689 101.68553162 C-15.67836029 111.2064743 -15.68364876 120.72722426 -15.70016611 130.24816227 C-15.71377957 138.42238801 -15.71570131 146.59655573 -15.7078501 154.77078915 C-15.70317282 159.65301612 -15.70255026 164.5351525 -15.71245956 169.41737366 C-15.7211249 174.00732572 -15.71511522 178.59702928 -15.69777679 183.1869545 C-15.69380964 184.87158928 -15.69494991 186.55624497 -15.70156479 188.24087143 C-15.7097615 190.54033422 -15.69948206 192.83900045 -15.68452454 195.13841248 C-15.68339346 196.42519394 -15.68226238 197.7119754 -15.68109703 199.03775024 C-15.15616585 203.69569332 -13.7667563 206.09318013 -10.28227901 209.17595005 C-5.76801903 211.01233987 -1.47348279 210.8039173 3.35571289 210.77536011 C4.44197655 210.78074565 5.52824021 210.78613118 6.64742094 210.79167992 C10.29399767 210.80600839 13.94021389 210.79884352 17.58680725 210.79173279 C20.19846896 210.79743377 22.81012818 210.80439697 25.42178345 210.81253052 C31.78324696 210.82972844 38.14461175 210.8305565 44.50609248 210.82531761 C49.67660361 210.82127654 54.84708556 210.82271872 60.01759529 210.82806587 C60.75343159 210.82881429 61.4892679 210.82956272 62.24740227 210.83033382 C63.74224222 210.83186529 65.23708216 210.83340364 66.7319221 210.83494879 C80.75089176 210.8486774 94.76980563 210.84323359 108.78877402 210.83176357 C121.61404675 210.82183066 134.43917521 210.83477217 147.26442569 210.85869776 C160.4337925 210.8830802 173.60309209 210.89269876 186.77248102 210.88604504 C194.16594898 210.88255092 201.55930598 210.88479751 208.95275688 210.90229607 C215.90408835 210.91854415 222.85513955 210.91384972 229.80646324 210.89499092 C232.35985002 210.89129503 234.91325708 210.89444241 237.46662521 210.90487671 C240.94812329 210.91801919 244.42869835 210.90659772 247.91015625 210.8888855 C249.43131315 210.90329301 249.43131315 210.90329301 250.98320049 210.91799158 C256.69094625 210.85810841 260.27758919 210.38789617 264.69642639 206.38768005 C267.27174476 202.96565968 266.95297014 199.4419136 266.96385193 195.26539612 C266.9706486 194.18856184 266.9706486 194.18856184 266.97758257 193.08997333 C266.9902443 190.68409792 266.98860508 188.27844838 266.98695374 185.87254333 C266.99293788 184.14771737 266.99974316 182.42289409 267.00730896 180.69807434 C267.0249876 176.01209307 267.02966512 171.32618483 267.03094053 166.64017344 C267.0328393 162.72862376 267.04019657 158.8170911 267.04728472 154.90554798 C267.06357328 145.67708974 267.06845324 136.44867054 267.06703186 127.22019958 C267.06583021 117.69983684 267.08693561 108.17970072 267.11851919 98.65939534 C267.14466827 90.4860293 267.15539973 82.31273734 267.15412104 74.13932979 C267.15361101 69.25756611 267.15931665 64.3760038 267.18047714 59.49428177 C267.19983656 54.90266337 267.19999979 50.31143893 267.18544388 45.71980667 C267.18335184 44.03558273 267.18808021 42.35133429 267.20016479 40.6671524 C267.21560817 38.36561565 267.20631664 36.06543887 267.19090271 33.76393127 C267.19199224 32.47677279 267.19308178 31.1896143 267.19420433 29.863451 C266.59676503 25.69178728 265.42801254 23.57707251 262.69642639 20.38768005 C258.12132957 17.41133608 252.38399645 18.10723204 247.11306763 18.12698364 C246.03497107 18.1231581 244.95687452 18.11933255 243.84610838 18.11539108 C240.227236 18.10505779 236.60852218 18.1090539 232.98963928 18.11302185 C230.39768324 18.10867558 227.80572848 18.10349272 225.21377563 18.09753418 C218.90045562 18.08478424 212.58717813 18.08299384 206.27384741 18.08533444 C201.14243396 18.08711737 196.01103341 18.08536851 190.87962151 18.08111 C190.14933593 18.08051481 189.41905035 18.07991962 188.6666349 18.0793064 C187.18306895 18.07809465 185.69950301 18.07688052 184.21593707 18.07566402 C170.30284905 18.06478742 156.38978527 18.06695159 142.47669589 18.07304887 C129.74844601 18.07821859 117.02027265 18.06696135 104.29203791 18.04795065 C91.22211997 18.02857928 78.15223824 18.02031498 65.08230585 18.0240739 C57.7447463 18.02598695 50.4072519 18.02348823 43.06970406 18.00935936 C36.17094615 17.99620982 29.27234406 17.99869605 22.37358665 18.01177025 C19.8395495 18.01414224 17.30550164 18.0113792 14.77147675 18.00314713 C11.31639445 17.99273096 7.8618321 18.00073955 4.4067688 18.01345825 C3.4004461 18.00608397 2.39412339 17.99870968 1.35730606 17.99111193 C-4.99071897 18.04038317 -9.85370467 18.43064356 -14.15476418 23.62210083 Z "
        transform="translate(93.30357360839844,40.61231994628906)" />
    <path
        d="M0 0 C0.84841434 -0.00523668 1.69682867 -0.01047336 2.57095253 -0.01586872 C5.42447494 -0.0309153 8.27781876 -0.03157489 11.13137817 -0.03224182 C13.17294621 -0.03986015 15.21451137 -0.04828708 17.256073 -0.0574646 C22.80977846 -0.07944807 28.36342885 -0.08821362 33.91717291 -0.09329104 C37.38485337 -0.09692992 40.85251931 -0.10316751 44.32019424 -0.11029243 C56.41188442 -0.13479982 68.50353162 -0.14784172 80.59524536 -0.15138245 C91.87597817 -0.15501923 103.15643915 -0.18492163 114.43708885 -0.22678703 C124.11443928 -0.26144634 133.79169945 -0.27693013 143.46911156 -0.27762848 C149.25241837 -0.27842275 155.03544842 -0.28723035 160.81869125 -0.31562614 C166.25736518 -0.34173215 171.69553141 -0.34405367 177.1342392 -0.3279705 C179.13172382 -0.32615009 181.12923714 -0.33289987 183.12665939 -0.34878922 C185.85132174 -0.36914434 188.57419008 -0.35876078 191.29882812 -0.34057617 C192.0915348 -0.35377614 192.88424148 -0.36697611 193.70096958 -0.38057607 C197.74102275 -0.31887866 199.55392503 0.09526197 202.7437458 2.66023159 C204.91527929 5.45275178 205.77639771 6.75018252 205.77639771 10.27415466 C204.23281333 14.21029482 203.32799906 15.90642042 199.77639771 18.27415466 C197.00221843 18.47436035 194.32778628 18.55671638 191.55279541 18.54830933 C190.70438107 18.553546 189.85596674 18.55878268 188.98184288 18.56417805 C186.12832047 18.57922462 183.27497665 18.57988422 180.42141724 18.58055115 C178.3798492 18.58816948 176.33828404 18.59659641 174.29672241 18.60577393 C168.74301695 18.6277574 163.18936656 18.63652294 157.6356225 18.64160037 C154.16794204 18.64523925 150.7002761 18.65147684 147.23260117 18.65860176 C135.14091099 18.68310915 123.04926379 18.69615105 110.95755005 18.69969177 C99.67681724 18.70332855 88.39635626 18.73323096 77.11570656 18.77509636 C67.43835613 18.80975567 57.76109596 18.82523945 48.08368385 18.82593781 C42.30037704 18.82673208 36.51734699 18.83553968 30.73410416 18.86393547 C25.29543023 18.89004147 19.857264 18.892363 14.41855621 18.87627983 C12.42107159 18.87445942 10.42355827 18.8812092 8.42613602 18.89709854 C5.70147367 18.91745367 2.97860533 18.9070701 0.25396729 18.8888855 C-0.53873939 18.90208547 -1.33144607 18.91528543 -2.14817417 18.9288854 C-6.18822734 18.86718798 -8.00112962 18.45304736 -11.19095039 15.88807774 C-13.36248388 13.09555754 -14.22360229 11.79812681 -14.22360229 8.27415466 C-11.23357274 0.6495793 -7.63683604 -0.0231364 0 0 Z "
        transform="translate(123.22360229492188,80.72584533691406)" />
    <path
        d="M0 0 C6.85271959 4.73225542 12.02245001 10.9947459 14.34765625 19.0703125 C16.38623029 30.32458901 14.84556745 40.75260045 8.5703125 50.3671875 C7.9928125 51.1303125 7.4153125 51.8934375 6.8203125 52.6796875 C7.56539063 52.94007813 8.31046875 53.20046875 9.078125 53.46875 C18.50132197 57.62999083 24.00303651 68.19595658 27.921875 77.21484375 C30.21570267 83.80691858 30.8448661 90.77100039 29.8203125 97.6796875 C27.29133672 101.23392373 25.90785988 102.31717171 21.8203125 103.6796875 C19.21529308 103.78094002 16.63695839 103.82652933 14.03173828 103.82495117 C13.23953888 103.82830978 12.44733948 103.8316684 11.63113403 103.83512878 C9.00928179 103.84463652 6.38749342 103.84658184 3.765625 103.84765625 C1.94343031 103.85086908 0.12123589 103.85423317 -1.70095825 103.85774231 C-5.52248737 103.86373322 -9.34399386 103.86558226 -13.16552734 103.86499023 C-18.06042807 103.86488864 -22.95518364 103.87853796 -27.85004997 103.89576244 C-31.61443751 103.90688583 -35.37879 103.90890933 -39.14319229 103.90838051 C-40.94768906 103.90956022 -42.75218674 103.91398153 -44.55666733 103.92171288 C-47.08198941 103.93151905 -49.60699699 103.92863221 -52.13232422 103.92260742 C-52.87639526 103.92822693 -53.62046631 103.93384644 -54.38708496 103.93963623 C-59.35542046 103.90954284 -63.32001834 103.53935666 -66.9296875 99.9296875 C-70.51320023 93.47936459 -68.80691247 86.48764494 -67.1796875 79.6796875 C-64.05334727 70.25579111 -58.05890983 60.82309843 -50.1796875 54.6796875 C-47.46484375 53.48828125 -47.46484375 53.48828125 -45.1796875 52.6796875 C-45.58960938 52.02742188 -45.99953125 51.37515625 -46.421875 50.703125 C-52.57530531 40.72220215 -55.42387868 32.13753212 -52.95703125 20.48046875 C-50.18932932 10.50839697 -44.81761793 3.71152905 -35.9609375 -1.66796875 C-24.21723892 -7.78082678 -11.20483053 -6.78715541 0 0 Z M-31.1796875 17.6796875 C-34.153244 21.69580192 -35.52701213 25.28118742 -35.1796875 30.3046875 C-34.29978396 35.26802686 -32.59204164 38.87860862 -28.453125 41.96875 C-23.9946364 44.57989671 -20.37080862 45.16522562 -15.2890625 44.2890625 C-10.97283758 43.04215308 -8.15337687 40.88840534 -5.3671875 37.4296875 C-3.10830541 32.19859214 -2.66731411 28.35913362 -4.3046875 22.9921875 C-6.83159305 18.52798769 -9.23055179 15.3293994 -14.1796875 13.6796875 C-20.80030951 13.04568759 -26.16897696 12.79118941 -31.1796875 17.6796875 Z M-42.7421875 73.2421875 C-43.58379576 74.36681447 -44.39988696 75.51135476 -45.1796875 76.6796875 C-45.7984375 77.5871875 -46.4171875 78.4946875 -47.0546875 79.4296875 C-48.4032943 81.70763835 -48.4032943 81.70763835 -48.1796875 84.6796875 C-29.0396875 84.6796875 -9.8996875 84.6796875 9.8203125 84.6796875 C6.8034354 75.62905621 0.94839729 69.33869443 -7.5546875 64.9296875 C-20.00262903 60.7255714 -33.87109989 63.32744252 -42.7421875 73.2421875 Z "
        transform="translate(178.1796875,126.3203125)" />
    <path
        d="M0 0 C1.13021576 -0.0131424 1.13021576 -0.0131424 2.28326416 -0.02655029 C4.76495569 -0.04849233 7.24485402 -0.03401173 9.7265625 -0.01708984 C11.45622091 -0.02045951 13.18587702 -0.02531339 14.91552734 -0.03158569 C18.53701364 -0.03894992 22.15788247 -0.02826648 25.77929688 -0.00488281 C30.41674955 0.02360527 35.05275542 0.0071988 39.69015503 -0.02274513 C43.2607713 -0.0408306 46.83104568 -0.03505448 50.40167236 -0.02210617 C52.11126884 -0.01877558 53.82089656 -0.02284706 55.53045654 -0.03450394 C57.92217977 -0.04723405 60.31157482 -0.02780947 62.703125 0 C63.406651 -0.01012115 64.110177 -0.02024231 64.83502197 -0.03067017 C68.68328185 0.05204491 70.24956996 0.56343114 73.26708984 3.0350647 C75.49424046 5.8257525 76.3515625 7.09290296 76.3515625 10.64697266 C75.06793113 14.42235903 74.0930464 16.18748406 70.68017578 18.30239868 C66.92275208 19.82018813 64.19985316 20.02742076 60.15625 20.03515625 C59.46275452 20.04041321 58.76925903 20.04567017 58.05474854 20.05108643 C55.7784526 20.06421418 53.50286467 20.05557461 51.2265625 20.04541016 C49.63525255 20.04743298 48.04394351 20.05034616 46.45263672 20.05410767 C43.12393331 20.05852122 39.79547205 20.05213139 36.46679688 20.03808594 C32.20979535 20.02099445 27.95336134 20.03084086 23.69638062 20.04880333 C20.41231038 20.0596675 17.12837368 20.0561828 13.84429932 20.04841995 C12.27508476 20.04642521 10.7058579 20.04885161 9.13665771 20.05585861 C6.93973892 20.0635168 4.74372665 20.05180922 2.546875 20.03515625 C1.29922363 20.03276947 0.05157227 20.03038269 -1.23388672 20.02792358 C-5.02388928 19.60508466 -7.42064632 18.65370115 -10.6484375 16.64697266 C-12.76056254 13.4787851 -12.98000214 11.51478014 -13.20703125 7.77978516 C-11.4640088 1.12460852 -6.06475809 -0.08724959 0 0 Z "
        transform="translate(252.6484375,130.35302734375)" />
    <path
        d="M0 0 C0.74386963 -0.0087616 1.48773926 -0.01752319 2.25415039 -0.02655029 C4.69795112 -0.04844744 7.13992313 -0.03402947 9.58374023 -0.01708984 C11.28954921 -0.02046045 12.99535584 -0.02531511 14.70115662 -0.03158569 C18.26959179 -0.03894352 21.83739966 -0.02828589 25.40576172 -0.00488281 C29.97481142 0.02362666 34.54239401 0.00718134 39.11139011 -0.02274513 C42.63139363 -0.04082949 46.15105031 -0.03505538 49.67106438 -0.02210617 C51.3555411 -0.0187764 53.04004955 -0.02284419 54.72448921 -0.03450394 C57.08019333 -0.04723477 59.43353406 -0.02780988 61.7890625 0 C62.48166672 -0.01012115 63.17427094 -0.02024231 63.88786316 -0.03067017 C67.7103897 0.05274558 69.24351451 0.57610529 72.2386322 3.0350647 C74.47288367 5.8256415 75.32983398 7.08895012 75.32983398 10.64697266 C74.04470253 14.42677105 73.07110355 16.18877107 69.65171814 18.30239868 C65.92834177 19.80948163 63.24910828 20.0273611 59.2421875 20.03515625 C58.56005188 20.04041321 57.87791626 20.04567017 57.17510986 20.05108643 C54.93608211 20.06421357 52.69777434 20.05557388 50.45874023 20.04541016 C48.89224614 20.04743323 47.32575297 20.05034662 45.75926208 20.05410767 C42.48183189 20.05852134 39.20464761 20.0521319 35.92724609 20.03808594 C31.73984182 20.0210086 27.55301509 20.03083179 23.36563206 20.04880333 C20.13213301 20.05967929 16.89876932 20.05617718 13.66526604 20.04841995 C12.12199776 20.04642773 10.57871695 20.04884265 9.03546333 20.05585861 C6.87227281 20.06353479 4.70999788 20.0517839 2.546875 20.03515625 C1.31920914 20.03276947 0.09154327 20.03038269 -1.17332458 20.02792358 C-5.34651895 19.5732898 -7.95704401 18.59276162 -11.67016602 16.64697266 C-13.76654303 13.50240714 -14.03573047 11.48602589 -14.32641602 7.77978516 C-12.30218676 1.20104009 -6.05647946 -0.08876389 0 0 Z "
        transform="translate(253.670166015625,170.35302734375)" />
    <path
        d="M0 0 C1.22500214 0.00233139 2.45000427 0.00466278 3.71212769 0.00706482 C6.29594915 0.01679051 8.87974966 0.03855002 11.46337891 0.0715332 C15.4225208 0.1210042 19.38042044 0.13301907 23.33984375 0.13867188 C25.85157575 0.15275574 28.36329695 0.16895936 30.875 0.1875 C32.65319626 0.19554405 32.65319626 0.19554405 34.46731567 0.20375061 C35.56880951 0.21973801 36.67030334 0.2357254 37.80517578 0.25219727 C38.77303009 0.26283707 39.7408844 0.27347687 40.73806763 0.28443909 C43.44184161 0.57324393 45.03938343 1.07277022 47.3046875 2.55859375 C49.76661521 6.25148531 49.989918 9.27172488 49.3046875 13.55859375 C46.58541513 18.12308665 46.58541513 18.12308665 43.48483276 19.1774292 C41.01251067 19.60967633 38.68289111 19.70061194 36.17236328 19.71972656 C35.15095245 19.72933411 34.12954163 19.73894165 33.07717896 19.74884033 C31.43022537 19.75521515 31.43022537 19.75521515 29.75 19.76171875 C28.6156955 19.76741882 27.48139099 19.7731189 26.31271362 19.7789917 C23.91372611 19.78843434 21.51472566 19.79497276 19.11572266 19.79882812 C15.45061596 19.8085383 11.78606899 19.83957132 8.12109375 19.87109375 C5.78906583 19.87762363 3.4570339 19.88287416 1.125 19.88671875 C0.03107941 19.89906555 -1.06284119 19.91141235 -2.18991089 19.9241333 C-7.73240436 19.9079483 -11.98704902 19.84773054 -16.6953125 16.55859375 C-18.79168951 13.41402824 -19.06087695 11.39764699 -19.3515625 7.69140625 C-18.50317252 4.9341388 -17.01986605 3.41800017 -14.79095459 1.63446045 C-10.24862906 -0.69749156 -4.98460056 -0.08241028 0 0 Z "
        transform="translate(258.6953125,210.44140625)" />
</svg>