<?xml version="1.0" encoding="UTF-8"?>
<svg version="1.1" xmlns="http://www.w3.org/2000/svg" width="435" height="319">
<path d="M0 0 C7.67553398 8.01891313 12.43774262 19.54816352 13.359375 30.48828125 C13.46378906 31.58849609 13.46378906 31.58849609 13.5703125 32.7109375 C14.24068832 46.91774823 8.29952924 59.39760191 -1.078125 69.73828125 C-12.30556121 80.43025512 -25.76798917 84.10929938 -40.91796875 83.828125 C-51.55854624 83.31017324 -61.78226929 78.67668498 -69.640625 71.48828125 C-69.640625 70.82828125 -69.640625 70.16828125 -69.640625 69.48828125 C-70.300625 69.48828125 -70.960625 69.48828125 -71.640625 69.48828125 C-81.27422957 58.33248375 -86.27389251 46.17923912 -85.87890625 31.3984375 C-84.79902274 18.20969621 -79.5714958 6.10464813 -69.67578125 -2.95703125 C-62.3979124 -8.51670841 -54.61647558 -12.61499159 -45.640625 -14.51171875 C-44.93808594 -14.66511719 -44.23554688 -14.81851563 -43.51171875 -14.9765625 C-27.11027027 -17.66482938 -11.8084573 -10.88064994 0 0 Z M-57.046875 20.171875 C-61.41844403 26.52565058 -61.47752107 32.9910873 -60.640625 40.48828125 C-58.55021729 47.31943503 -54.78356499 52.76565962 -48.640625 56.48828125 C-42.60966184 59.30059208 -36.73057316 60.70350547 -30.1953125 58.76171875 C-22.8902764 56.07957117 -17.71355944 52.79892616 -13.765625 45.92578125 C-10.71035704 39.24982236 -10.28500987 32.72831094 -12.52734375 25.71484375 C-15.75471908 18.57387375 -20.299731 13.72630113 -27.515625 10.61328125 C-39.36324041 6.80837399 -49.23202585 10.96380479 -57.046875 20.171875 Z " fill="#000000" transform="translate(255.640625,56.51171875)"/>
<path d="M0 0 C1.05767578 0.05583252 1.05767578 0.05583252 2.13671875 0.11279297 C31.16832754 1.86625076 63.41127856 10.23505003 87 28 C87.62132812 28.45761719 88.24265625 28.91523438 88.8828125 29.38671875 C97.01208159 35.80919324 101.20921877 43.89158938 103 54 C103.31515598 58.82559783 103.35138154 63.61318044 103.28125 68.44677734 C103.24955392 70.65609288 103.24021386 72.86469635 103.234375 75.07421875 C103.16427946 85.83572054 103.16427946 85.83572054 102 87 C99.15758122 87.10014668 96.33938602 87.13438962 93.49645996 87.12698364 C92.59384603 87.12854363 91.6912321 87.13010362 90.76126623 87.13171089 C87.71257273 87.13572497 84.66392832 87.13252967 81.61523438 87.12939453 C79.43939688 87.13074839 77.26355961 87.13252824 75.08772278 87.13470459 C69.16021226 87.13928074 63.23271905 87.13748862 57.30520821 87.1343255 C51.11700517 87.13180284 44.92880367 87.13413918 38.74060059 87.13571167 C27.67966686 87.13765052 16.61874083 87.13453275 5.55780834 87.12945233 C-4.48083352 87.12498429 -14.51946382 87.12576022 -24.55810547 87.13037109 C-36.20217196 87.13569816 -47.84623122 87.13771772 -59.49029875 87.13475883 C-65.65904741 87.13319562 -71.8277881 87.13300347 -77.99653625 87.13629532 C-83.79452118 87.13917291 -89.59248415 87.13720042 -95.39046669 87.13140106 C-97.525073 87.13007286 -99.65968114 87.13046859 -101.79428673 87.13266373 C-104.69503652 87.13537287 -107.59571479 87.13199701 -110.49645996 87.12698364 C-111.78091688 87.13032973 -111.78091688 87.13032973 -113.09132242 87.13374341 C-118.88585018 87.11414982 -118.88585018 87.11414982 -120 86 C-120.24502603 81.46219209 -120.22863466 76.91846088 -120.24023438 72.37475586 C-120.2498291 70.10296434 -120.28078171 67.83212142 -120.3125 65.56054688 C-120.40989192 52.41318095 -118.49859403 42.04643652 -109.2890625 32.1640625 C-82.02927232 6.74459571 -36.09045006 -2.06948598 0 0 Z M-93 51 C-95.80005827 54.81826128 -95 56.64734681 -95 62 C-37.91 62 19.18 62 78 62 C78.12904535 54.45574288 78.12904535 54.45574288 74 49 C71.16043378 46.70073179 68.1561438 44.83429905 65 43 C64.18144531 42.51660156 63.36289062 42.03320312 62.51953125 41.53515625 C19.78048287 18.28462055 -55.45103201 15.32848041 -93 51 Z " fill="#000000" transform="translate(228,177)"/>
</svg>
