<svg version="1.0" xmlns="http://www.w3.org/2000/svg"
 viewBox="0 0 512.000000 512.000000"
 preserveAspectRatio="xMidYMid meet" class="custom-svg">
  <g transform="translate(0.000000,512.000000) scale(0.100000,-0.100000)"
  stroke="none">
    <path d="M1991 5109 c-289 -48 -537 -277 -623 -576 -23 -77 -23 -87 -23 -608
    l0 -530 23 -33 c70 -97 219 -86 271 22 20 41 21 57 21 517 0 389 3 485 15 532
    42 163 161 290 316 338 58 18 110 19 1183 19 1238 0 1185 3 1295 -63 65 -39
    143 -123 177 -188 56 -112 54 -19 54 -1979 0 -1960 2 -1867 -54 -1979 -34 -65
    -112 -149 -177 -188 -110 -66 -58 -63 -1289 -63 -1219 0 -1179 -2 -1280 57
    -69 41 -144 117 -178 182 -61 113 -62 125 -62 680 0 490 -1 506 -21 547 -52
    108 -201 119 -271 22 l-23 -33 0 -560 c0 -555 0 -561 23 -639 64 -220 218
    -408 415 -505 167 -82 65 -76 1402 -76 l1190 0 95 33 c133 46 221 101 315 197
    110 112 167 213 212 376 17 60 18 180 18 1949 0 1769 -1 1889 -18 1949 -45
    163 -102 264 -212 376 -121 123 -264 198 -426 224 -80 13 -2289 13 -2368 0z"/>
    <path d="M2159 3500 c-66 -20 -119 -90 -119 -156 1 -70 29 -102 319 -359 154
    -137 281 -253 281 -257 0 -5 -546 -8 -1214 -8 l-1213 0 -33 -22 c-57 -39 -75
    -72 -75 -138 0 -66 18 -99 75 -137 l33 -23 1213 0 c668 0 1214 -3 1214 -7 0
    -5 -127 -120 -282 -258 -289 -257 -317 -289 -318 -359 0 -72 61 -145 136 -160
    67 -14 96 7 515 380 507 450 536 478 544 527 9 49 -1 99 -27 132 -46 59 -922
    829 -957 841 -41 15 -55 16 -92 4z"/>
  </g>
</svg>
