<?xml version="1.0" standalone="no"?>
<!DOCTYPE svg PUBLIC "-//W3C//DTD SVG 20010904//EN"
 "http://www.w3.org/TR/2001/REC-SVG-20010904/DTD/svg10.dtd">
<svg version="1.0" xmlns="http://www.w3.org/2000/svg"
 viewBox="0 0 512.000000 512.000000"
 preserveAspectRatio="xMidYMid meet">

<g transform="translate(0.000000,512.000000) scale(0.100000,-0.100000)" stroke="none">
<path d="M645 5045 c-151 -28 -283 -95 -398 -204 -109 -104 -182 -223 -224
-372 -17 -61 -18 -152 -18 -1909 0 -1757 1 -1848 18 -1909 71 -249 250 -449
483 -537 142 -54 131 -53 1334 -53 1199 0 1190 -1 1332 52 181 66 336 206 423
382 82 164 80 148 80 765 l0 545 -23 33 c-70 97 -219 86 -271 -22 -20 -41 -21
-57 -21 -537 0 -296 -5 -512 -11 -538 -39 -171 -194 -319 -368 -351 -34 -6
-460 -10 -1150 -9 -1003 0 -1102 2 -1162 17 -124 33 -239 124 -295 234 -57
112 -54 10 -54 1928 0 1945 -4 1818 62 1942 57 108 192 205 317 228 73 14
2209 14 2282 0 174 -32 329 -180 368 -351 6 -26 11 -233 11 -509 0 -431 2
-468 19 -506 21 -47 73 -84 129 -91 45 -5 116 28 146 70 21 28 21 39 21 545 0
585 1 574 -80 737 -110 223 -315 375 -565 421 -107 19 -2280 19 -2385 -1z"/>
<path d="M4000 3458 c-55 -38 -74 -72 -74 -131 0 -33 7 -63 18 -82 10 -16 145
-140 300 -275 l283 -245 -1222 -5 -1222 -5 -35 -27 c-89 -68 -89 -188 0 -256
l35 -27 1222 -5 1222 -5 -282 -245 c-156 -135 -291 -258 -301 -275 -26 -42
-24 -126 2 -162 50 -68 140 -93 206 -59 15 8 232 193 483 411 469 408 485 424
485 495 0 68 -21 91 -336 366 -170 147 -373 325 -452 394 -79 69 -158 133
-175 143 -45 25 -116 22 -157 -5z"/>
</g>
</svg>
