<?xml version="1.0" encoding="UTF-8"?>
<svg version="1.1" xmlns="http://www.w3.org/2000/svg" width="374" height="300">
<path d="M0 0 C3.23495494 1.42253408 5.39018861 3.14121655 7.88116074 5.63506508 C8.64502177 6.39494402 9.4088828 7.15482295 10.19589114 7.93772852 C11.02857556 8.77623862 11.86125997 9.61474872 12.71917725 10.47866821 C13.60872581 11.36650792 14.49827437 12.25434764 15.41477895 13.16909158 C17.88439664 15.63423338 20.34772834 18.10557449 22.81009126 20.57796001 C25.46628073 23.24277817 28.12823903 25.90182253 30.789505 28.56156921 C35.39975829 33.17077328 40.00633258 37.78362805 44.61043549 42.39897537 C51.2672173 49.0720042 57.92950818 55.73951026 64.59316102 62.40567689 C75.4040763 73.22097053 86.21051676 84.04072391 97.01416016 94.86328125 C107.50953949 105.37701574 118.0070152 115.88864974 128.50732422 126.39746094 C129.15445137 127.04511353 129.80157851 127.69276612 130.46831557 128.36004455 C133.71474209 131.60908113 136.96120994 134.8580764 140.20769835 138.10705113 C167.14487694 165.06496661 194.07480087 192.0301199 221 219 C219.51136264 222.11966041 217.99711308 224.24012613 215.5234375 226.671875 C214.853125 227.33574219 214.1828125 227.99960938 213.4921875 228.68359375 C212.44417969 229.70646484 212.44417969 229.70646484 211.375 230.75 C210.66859375 231.44738281 209.9621875 232.14476562 209.234375 232.86328125 C207.49401297 234.58012488 205.74915019 236.29211832 204 238 C201.09456128 236.68623083 199.03338941 235.27943508 196.79199219 233.01904297 C195.89151154 232.11833572 195.89151154 232.11833572 194.97283936 231.19943237 C194.33727112 230.55354156 193.70170288 229.90765076 193.046875 229.2421875 C192.38665344 228.57913605 191.72643188 227.91608459 191.04620361 227.23294067 C188.94272176 225.11828168 186.84630858 222.99676788 184.75 220.875 C183.32337739 219.43834443 181.89629928 218.00214102 180.46875 216.56640625 C176.97386339 213.04949196 173.48529938 209.52641453 170 206 C169.38294189 206.27674561 168.76588379 206.55349121 168.13012695 206.83862305 C146.96135405 216.2384894 127.09667463 222.17978053 103.82446289 222.24023438 C101.59937698 222.24984079 99.37525666 222.28087503 97.15039062 222.3125 C87.10245741 222.38680573 77.79019841 221.23066065 68 219 C66.74304321 218.71769531 66.74304321 218.71769531 65.46069336 218.4296875 C44.9779006 213.49163458 27.27068816 203.12780309 11 190 C10.09121094 189.2884375 9.18242188 188.576875 8.24609375 187.84375 C3.30426355 183.91718016 -1.17950408 180.0072903 -5.203125 175.140625 C-7.31402954 172.62589524 -9.56190608 170.26538236 -11.8125 167.875 C-20.36291123 158.43472697 -27.06856192 148.18207483 -33.4375 137.1875 C-33.94587402 136.31625488 -34.45424805 135.44500977 -34.97802734 134.54736328 C-42.62653663 121.05920047 -42.62653663 121.05920047 -41.3671875 114.91015625 C-40.62855469 113.50056641 -40.62855469 113.50056641 -39.875 112.0625 C-39.30007812 110.96035156 -38.72515625 109.85820312 -38.1328125 108.72265625 C-37.42743219 107.47860345 -36.71608173 106.23792395 -36 105 C-35.5987793 104.29601074 -35.19755859 103.59202148 -34.78417969 102.86669922 C-27.09836796 89.50802646 -18.41875059 77.48448491 -7.953125 66.140625 C-6.37097392 64.40658742 -4.89053119 62.65300618 -3.4375 60.8125 C-0.82233456 57.79500142 1.98863581 55.28087355 5.03515625 52.7109375 C7.11108329 50.90327141 9.05357638 48.94642362 11 47 C1.76 37.76 -7.48 28.52 -17 19 C-15.03900793 15.07801587 -13.28829417 13.07961457 -10.1875 10.0625 C-9.33542969 9.22847656 -8.48335937 8.39445312 -7.60546875 7.53515625 C-6.74566406 6.69855469 -5.88585937 5.86195312 -5 5 C-3.33102653 3.33564333 -1.66367714 1.66965084 0 0 Z M14.43896484 79.50439453 C4.19530693 89.81814248 -7.49037496 103.39040382 -13 117 C-12.08842067 133.56469866 9.1203844 153.61092318 20.75 164.6875 C44.0441886 185.336004 73.80586898 198.24256782 105.29443359 196.90234375 C120.99535927 195.89459045 135.67160248 192.62145643 150 186 C145.64393169 180.82927285 141.14924978 175.84880168 136.4375 171 C135.79103516 170.30777344 135.14457031 169.61554688 134.47851562 168.90234375 C133.84494141 168.25394531 133.21136719 167.60554688 132.55859375 166.9375 C131.99454834 166.34839844 131.43050293 165.75929688 130.84936523 165.15234375 C128.99537109 163.73576442 128.99537109 163.73576442 126.42553711 164.2578125 C123.90963559 165.02765051 121.54714747 165.97379422 119.125 167 C106.73572851 171.575014 93.49649826 170.92281675 81.4375 165.8125 C67.31466637 158.9021834 58.97972658 149.53856847 53 135 C49.07161965 122.65097659 49.92824079 108.00311294 55.8125 96.4375 C57.27846171 94.14590019 57.27846171 94.14590019 56.41235352 92.20019531 C54.49898916 89.21951432 52.09840367 86.83269561 49.58984375 84.359375 C49.06234024 83.83232971 48.53483673 83.30528442 47.99134827 82.76226807 C46.87998078 81.65391275 45.76619274 80.54797989 44.65014648 79.44433594 C42.93476216 77.74729143 41.22759829 76.04229672 39.52148438 74.3359375 C38.44057649 73.25994197 37.35921217 72.18440473 36.27734375 71.109375 C35.76380844 70.59695251 35.25027313 70.08453003 34.72117615 69.55657959 C27.91191313 62.83897291 20.20620722 73.94641087 14.43896484 79.50439453 Z M76 113 C75.35349233 122.60782227 76.82910566 129.33026487 82.9375 136.875 C86.41183371 140.65563517 89.92254825 143.03162003 95 144 C97.24907152 144.06790675 99.50001605 144.08499984 101.75 144.0625 C102.92046875 144.05347656 104.0909375 144.04445312 105.296875 144.03515625 C106.18890625 144.02355469 107.0809375 144.01195312 108 144 C102.83714826 137.70890269 97.15243609 131.96627528 91.40332031 126.21801758 C89.73473007 124.54720977 88.07433852 122.86851828 86.4140625 121.18945312 C85.35465512 120.12711683 84.29477658 119.06525015 83.234375 118.00390625 C82.73854919 117.50089493 82.24272339 116.99788361 81.73187256 116.47962952 C79.32306561 113.78241399 79.32306561 113.78241399 76 113 Z " fill="#000000" transform="translate(81,24)"/>
<path d="M0 0 C2.69381704 2.31103029 5.32846789 4.65867885 7.9140625 7.08984375 C9.96057439 9.04024238 9.96057439 9.04024238 12.2734375 10.62890625 C12.84320313 11.08136719 13.41296875 11.53382812 14 12 C14 12.66 14 13.32 14 14 C14.66 14 15.32 14 16 14 C18.58227934 16.41992046 20.74866157 19.27572415 23 22 C23.44730469 22.53641113 23.89460937 23.07282227 24.35546875 23.62548828 C31.59621117 32.33912972 38.27378947 41.20894605 44 51 C44.45246094 51.76989258 44.90492188 52.53978516 45.37109375 53.33300781 C46.81892104 55.83139271 48.22738668 58.34822486 49.625 60.875 C50.07568848 61.6597168 50.52637695 62.44443359 50.99072266 63.25292969 C53.2867303 67.52925526 54.72825023 70.89373561 53.71630859 75.86962891 C52.18029851 80.43787157 49.86615864 84.56732353 47.5 88.75 C46.68631958 90.21143433 46.68631958 90.21143433 45.85620117 91.70239258 C41.74936583 98.9557645 37.32325949 105.57372278 32 112 C31.19175781 113.00804687 30.38351562 114.01609375 29.55078125 115.0546875 C23.19440763 122.93618136 23.19440763 122.93618136 20 126 C16.84795019 124.60652624 14.73828227 122.97514921 12.328125 120.5234375 C11.66425781 119.853125 11.00039063 119.1828125 10.31640625 118.4921875 C9.29353516 117.44417969 9.29353516 117.44417969 8.25 116.375 C7.55261719 115.66859375 6.85523438 114.9621875 6.13671875 114.234375 C4.41987512 112.49401297 2.70788168 110.74915019 1 109 C3.35457209 105.38275628 5.77547759 101.9801593 8.5625 98.6875 C12.33513802 94.02508886 15.66731114 89.14511557 18.9375 84.125 C19.42226807 83.38725342 19.90703613 82.64950684 20.40649414 81.8894043 C20.85887451 81.185979 21.31125488 80.48255371 21.77734375 79.7578125 C22.18202881 79.1302002 22.58671387 78.50258789 23.00366211 77.85595703 C24.07404499 75.86207056 24.68441355 74.24239838 25 72 C23.95222909 69.6566947 22.88537918 67.61580151 21.5625 65.4375 C21.19415039 64.81617188 20.82580078 64.19484375 20.44628906 63.5546875 C10.58107374 47.17153367 -2.31880507 31.36251932 -17.75 19.9375 C-18.80477539 19.15499878 -18.80477539 19.15499878 -19.88085938 18.35668945 C-25.35110019 14.35973513 -30.86413866 10.89772071 -37 8 C-37.58185059 7.71817871 -38.16370117 7.43635742 -38.76318359 7.14599609 C-54.71995954 -0.52356425 -70.56924388 -4.19499312 -88.3125 -4.125 C-89.28123047 -4.12886719 -90.24996094 -4.13273437 -91.24804688 -4.13671875 C-92.69727539 -4.13478516 -92.69727539 -4.13478516 -94.17578125 -4.1328125 C-95.62658081 -4.13486694 -95.62658081 -4.13486694 -97.10668945 -4.13696289 C-100.00392343 -4.07458955 -100.00392343 -4.07458955 -102.80541992 -3.42358398 C-107.26523471 -2.54252078 -109.81347251 -2.23671071 -113.73706055 -4.76074219 C-116.56818596 -7.31433627 -119.13104325 -9.98452727 -121.6875 -12.8125 C-122.59177734 -13.75416016 -123.49605469 -14.69582031 -124.42773438 -15.66601562 C-131 -22.60589097 -131 -22.60589097 -131 -25 C-84.28921405 -36.64942119 -38.37963205 -30.49075434 0 0 Z " fill="#000000" transform="translate(272,70)"/>
<path d="M0 0 C12.81102311 1.1497072 25.2781681 6.27633605 34 16 C41.88341934 25.65553251 46.73269167 35.4365084 47 48 C41.22171084 43.19356469 35.88286481 38.04378048 30.56640625 32.734375 C29.68846909 31.85976624 28.81053192 30.98515747 27.9059906 30.08404541 C26.06337723 28.2464704 24.22209531 26.40755941 22.38208008 24.56738281 C20.49244637 22.67922168 18.60095165 20.79324223 16.70532227 18.91113281 C13.96650589 16.19052005 11.23435244 13.46338513 8.50390625 10.734375 C7.22441856 9.46566559 7.22441856 9.46566559 5.91908264 8.17132568 C5.14084641 7.39001282 4.36261017 6.60869995 3.56079102 5.80371094 C2.87130875 5.11565369 2.18182648 4.42759644 1.47145081 3.71868896 C0 2 0 2 0 0 Z " fill="#000000" transform="translate(187,91)"/>
</svg>
