<?xml version="1.0" encoding="UTF-8"?>
<svg version="1.1" xmlns="http://www.w3.org/2000/svg"
    viewBox="80 60 240 160">
    <path
        d="M0 0 C0.8827916 -0.00779995 1.76558321 -0.01559991 2.67512608 -0.02363622 C5.63336983 -0.04358079 8.59033067 -0.02778197 11.54858398 -0.01205444 C13.66926831 -0.01882946 15.78994674 -0.02773193 17.91061401 -0.03860474 C23.67094697 -0.06141823 29.43083267 -0.05255302 35.19117355 -0.03670931 C41.21600307 -0.02406107 47.24079399 -0.03578743 53.265625 -0.04364014 C63.38377771 -0.05273981 73.50174802 -0.04074033 83.61987305 -0.01693726 C95.3221616 0.01027446 107.02401461 0.00146053 118.72629261 -0.02606928 C128.76888924 -0.04875017 138.81135466 -0.05196538 148.85396862 -0.03887594 C154.85406319 -0.03107588 160.85395296 -0.03005526 166.85403442 -0.04655838 C172.49469543 -0.06098886 178.13479425 -0.05100685 183.77539444 -0.0220871 C185.84703767 -0.01546876 187.91872811 -0.01738665 189.99035263 -0.02840042 C192.81566158 -0.04203768 195.63916219 -0.02496215 198.46435547 0 C199.28682549 -0.01115361 200.10929552 -0.02230722 200.95668888 -0.03379881 C205.09568219 0.03727757 206.80044328 0.31853969 210.24090481 2.83973789 C212.43271398 5.91641401 212.85799209 7.26901421 212.86036682 10.99272156 C212.87302078 12.05399765 212.88567474 13.11527374 212.89871216 14.20870972 C212.88701996 15.36264221 212.87532776 16.51657471 212.86328125 17.70547485 C212.87401421 19.54035713 212.87401421 19.54035713 212.88496399 21.41230774 C212.89896195 24.75983909 212.89055843 28.10582246 212.87087369 31.45322728 C212.85446812 34.95874131 212.86330255 38.46420555 212.86839294 41.96974182 C212.87291122 47.85508961 212.85705951 53.74011929 212.82910156 59.62539673 C212.79703561 66.42784479 212.79707178 73.22971966 212.81431633 80.0322085 C212.83018293 86.57993505 212.82344809 93.12745162 212.80637932 99.67516899 C212.79951007 102.46021559 212.8005398 105.2450938 212.80792427 108.03013802 C212.8170117 111.91823286 212.79304818 115.80573909 212.765625 119.6937561 C212.77215088 120.84971283 212.77867676 122.00566956 212.78540039 123.19665527 C212.76631371 124.78433968 212.76631371 124.78433968 212.74684143 126.40409851 C212.74403451 127.32308457 212.74122759 128.24207064 212.73833561 129.18890476 C212.07134941 132.41212286 210.76454452 133.5957399 208.23217773 135.63491821 C204.41609148 136.90694696 200.83288434 136.77959924 196.85671997 136.77536011 C195.55959715 136.77981679 195.55959715 136.77981679 194.23626983 136.78436351 C191.32750677 136.79306176 188.41878481 136.7945597 185.51000977 136.79605103 C183.42903556 136.80067835 181.34806221 136.8057029 179.26708984 136.81109619 C173.60595561 136.82422928 167.94483325 136.83066677 162.28368616 136.83510685 C158.74900686 136.83803574 155.21433083 136.84214017 151.67965317 136.84661102 C140.62664464 136.86028753 129.57364354 136.86995378 118.52062714 136.87381291 C105.74974606 136.87829603 92.97897189 136.89585507 80.20812333 136.92481351 C70.3439452 136.94640678 60.47979721 136.95651591 50.6155957 136.95785403 C44.72057799 136.95890363 38.82566076 136.96484443 32.93066788 136.98267365 C27.38703899 136.9991139 21.84358654 137.00132952 16.29994202 136.99253464 C14.26376245 136.99176213 12.22757355 136.99613503 10.19141769 137.00599289 C7.41460082 137.01864967 4.63841479 137.01286979 1.86160278 137.00241089 C1.05333231 137.01046729 0.24506184 137.0185237 -0.58770168 137.02682424 C-6.43618985 136.97520168 -9.66993431 135.73280617 -13.76782227 131.63491821 C-14.02788448 129.43500042 -14.02788448 129.43500042 -14.04197693 126.64460754 C-14.05195206 125.5889006 -14.06192719 124.53319366 -14.07220459 123.44549561 C-14.07286926 122.28234833 -14.07353394 121.11920105 -14.07421875 119.92080688 C-14.08254227 118.69959641 -14.09086578 117.47838593 -14.09944153 116.22016907 C-14.11945262 112.86461689 -14.13019044 109.50931324 -14.13526797 106.15372252 C-14.1389081 104.05744513 -14.14514642 101.96119174 -14.15226936 99.86492348 C-14.17677885 92.55183485 -14.18981844 85.23881729 -14.19335938 77.9256897 C-14.19699321 71.10910454 -14.22687325 64.29297006 -14.26876396 57.47652262 C-14.30346339 51.62505683 -14.31890777 45.77374036 -14.31960541 39.92217237 C-14.32039853 36.42696804 -14.32915167 32.93222228 -14.35760307 29.43712425 C-14.38864009 25.53697678 -14.37972565 21.63747586 -14.3671875 17.73721313 C-14.38202179 16.58013855 -14.39685608 15.42306396 -14.41213989 14.23092651 C-14.40237625 13.1667601 -14.39261261 12.10259369 -14.3825531 11.00617981 C-14.38456443 10.08421908 -14.38657576 9.16225836 -14.38864803 8.21235943 C-12.51832486 0.44746258 -6.77988908 -0.09194284 0 0 Z M-5.76782227 10.63491821 C-5.86573922 12.13810526 -5.89414025 13.64587954 -5.89480591 15.1522522 C-5.89762573 16.12822357 -5.90044556 17.10419495 -5.90335083 18.10974121 C-5.9013266 19.18926056 -5.89930237 20.26877991 -5.8972168 21.38101196 C-5.89896912 22.51096588 -5.90072144 23.6409198 -5.90252686 24.80511475 C-5.90694808 28.56089794 -5.90400642 32.3166345 -5.90063477 36.07241821 C-5.90130773 38.66934213 -5.90227769 41.26626599 -5.90353394 43.8631897 C-5.90501128 49.3141241 -5.90294978 54.76504079 -5.89819336 60.2159729 C-5.89275077 66.52631051 -5.89451344 72.83661581 -5.90001976 79.14695263 C-5.90509658 85.20659521 -5.90456936 91.26622194 -5.90163803 97.3258667 C-5.90096849 99.90958663 -5.90179812 102.49330739 -5.90411758 105.07702637 C-5.90664251 108.68098164 -5.90280576 112.28487391 -5.8972168 115.88882446 C-5.89924103 116.96834381 -5.90126526 118.04786316 -5.90335083 119.16009521 C-5.90053101 120.13606659 -5.89771118 121.11203796 -5.89480591 122.11758423 C-5.89442888 122.97078751 -5.89405186 123.82399078 -5.89366341 124.70304871 C-5.98065671 126.64196648 -5.98065671 126.64196648 -4.76782227 127.63491821 C-2.08942174 127.73497349 0.56326193 127.76931873 3.2421875 127.76190186 C4.09171525 127.76346185 4.941243 127.76502184 5.81651402 127.7666291 C8.68555458 127.77064279 11.55454296 127.76744804 14.42358398 127.76431274 C16.47134431 127.76566662 18.5191044 127.76744648 20.56686401 127.7696228 C26.14521247 127.77419875 31.72354253 127.77240692 37.30189133 127.76924372 C43.12574058 127.76672094 48.94958819 127.76905742 54.7734375 127.77062988 C64.55558558 127.77245182 74.33772611 127.77004463 84.11987305 127.76528931 C95.4471106 127.75984664 106.77433015 127.76160928 118.10156727 127.76711571 C127.80768138 127.77164615 137.51379007 127.77229773 147.2199049 127.76967704 C153.02535993 127.76811389 158.83080649 127.76792155 164.63626099 127.77121353 C170.09280367 127.77409125 175.54932304 127.7721184 181.00586319 127.76631927 C183.01469 127.76499114 185.02351876 127.76538669 187.03234482 127.76758194 C189.76231283 127.77029135 192.49220487 127.7669149 195.22216797 127.76190186 C196.02789025 127.76413258 196.83361254 127.7663633 197.66375065 127.76866162 C201.24406947 128.09009946 201.24406947 128.09009946 204.23217773 126.63491821 C204.33009469 125.13173117 204.35849572 123.62395688 204.35916138 122.11758423 C204.3619812 121.14161285 204.36480103 120.16564148 204.3677063 119.16009521 C204.36568207 118.08057587 204.36365784 117.00105652 204.36157227 115.88882446 C204.36332458 114.75887054 204.3650769 113.62891663 204.36688232 112.46472168 C204.37130355 108.70893849 204.36836189 104.95320193 204.36499023 101.19741821 C204.3656632 98.60049429 204.36663315 96.00357043 204.3678894 93.40664673 C204.36936675 87.95571233 204.36730525 82.50479564 204.36254883 77.05386353 C204.35710624 70.74352592 204.35886891 64.43322062 204.36437523 58.1228838 C204.36945205 52.06324121 204.36892482 46.00361449 204.3659935 39.94396973 C204.36532396 37.36024979 204.36615359 34.77652904 204.36847305 32.19281006 C204.37099798 28.58885478 204.36716123 24.98496252 204.36157227 21.38101196 C204.36460861 19.76173294 204.36460861 19.76173294 204.3677063 18.10974121 C204.36488647 17.13376984 204.36206665 16.15779846 204.35916138 15.1522522 C204.35878435 14.29904892 204.35840733 13.44584564 204.35801888 12.56678772 C204.44501218 10.62786995 204.44501218 10.62786995 203.23217773 9.63491821 C200.55377721 9.53486293 197.90109354 9.5005177 195.22216797 9.50793457 C194.37264022 9.50637458 193.52311247 9.50481459 192.64784145 9.50320733 C189.77880089 9.49919363 186.90981251 9.50238839 184.04077148 9.50552368 C181.99301116 9.5041698 179.94525107 9.50238995 177.89749146 9.50021362 C172.319143 9.49563768 166.74081294 9.49742951 161.16246414 9.50059271 C155.33861489 9.50311548 149.51476728 9.500779 143.69091797 9.49920654 C133.90876989 9.4973846 124.12662935 9.49979179 114.34448242 9.50454712 C103.01724487 9.50998978 91.69002532 9.50822714 80.3627882 9.50272071 C70.65667408 9.49819027 60.9505654 9.4975387 51.24445057 9.50015938 C45.43899554 9.50172254 39.63354898 9.50191487 33.82809448 9.49862289 C28.3715518 9.49574518 22.91503243 9.49771803 17.45849228 9.50351715 C15.44966546 9.50484529 13.4408367 9.50444973 11.43201065 9.50225449 C8.70204263 9.49954507 5.9721506 9.50292153 3.2421875 9.50793457 C2.43646522 9.50570385 1.63074293 9.50347313 0.80060482 9.50117481 C-2.779714 9.17973696 -2.779714 9.17973696 -5.76782227 10.63491821 Z "
        transform="translate(101.767822265625,68.36508178710938)" />
    <path
        d="M0 0 C0.125 2.875 0.125 2.875 0 6 C-0.66 6.66 -1.32 7.32 -2 8 C-6.55555556 7.44444444 -6.55555556 7.44444444 -8 6 C-8.04080783 4.00041636 -8.04254356 1.99954746 -8 0 C-5.13822943 -1.43088528 -3.06624227 -0.59991697 0 0 Z "
        transform="translate(128,88)" />
    <path
        d="M0 0 C1.2375 0.1546875 1.2375 0.1546875 2.5 0.3125 C4.5 3.3125 4.5 3.3125 4.125 6 C3.91875 6.763125 3.7125 7.52625 3.5 8.3125 C0.625 8.9375 0.625 8.9375 -2.5 9.3125 C-4.5 7.3125 -4.5 7.3125 -4.75 4.8125 C-4.40047575 1.3172575 -3.47557682 0.4344471 0 0 Z "
        transform="translate(278.5,86.6875)" />
    <path
        d="M0 0 C5.54726368 3.12033582 5.54726368 3.12033582 6.8125 7.5 C7.12803261 12.8640544 5.4296716 16.63425174 2 20.6875 C2.804375 21.491875 3.60875 22.29625 4.4375 23.125 C8.21903052 26.90653052 8.21903052 26.90653052 8.4375 30.8125 C8.37733558 35.52788663 7.05430266 38.00067732 3.7578125 41.3125 C-1.78534005 45.6484771 -9.29212499 45.16583935 -16 44.6875 C-16.66 44.3575 -17.32 44.0275 -18 43.6875 C-18 29.1675 -18 14.6475 -18 -0.3125 C-12.32735332 -2.20338223 -5.58770156 -2.28045085 0 0 Z M-10 6.6875 C-10.09823996 8.16398876 -10.12973519 9.64525417 -10.125 11.125 C-10.12757813 11.92808594 -10.13015625 12.73117188 -10.1328125 13.55859375 C-10.13578326 15.74147931 -10.13578326 15.74147931 -9 17.6875 C-6.83125748 17.18146008 -5.00032373 16.68766187 -3 15.6875 C-2.15827178 12.29617549 -2.15827178 12.29617549 -2 8.6875 C-2.66 7.6975 -3.32 6.7075 -4 5.6875 C-7.28912144 5.1960887 -7.28912144 5.1960887 -10 6.6875 Z M-9 23.6875 C-10.32229189 26.33208379 -10.09677194 28.36511301 -10.0625 31.3125 C-10.05347656 32.31539062 -10.04445312 33.31828125 -10.03515625 34.3515625 C-10.02355469 35.12242187 -10.01195312 35.89328125 -10 36.6875 C-7.61280783 37.33388298 -7.61280783 37.33388298 -5 37.6875 C-2.54285631 36.23081238 -2.54285631 36.23081238 -1 33.6875 C-0.25 30.6875 -0.25 30.6875 -1 27.6875 C-3.20488259 25.22333866 -3.20488259 25.22333866 -6 23.6875 C-6.99 23.6875 -7.98 23.6875 -9 23.6875 Z "
        transform="translate(156,115.3125)" />
    <path
        d="M0 0 C0.66 0.66 1.32 1.32 2 2 C1.44444444 6.55555556 1.44444444 6.55555556 0 8 C-1.45738982 8.21483436 -2.91592075 8.42195661 -4.375 8.625 C-8.09361752 9.45267322 -8.73914009 9.6363771 -11.0625 12.875 C-13.1474589 19.58067864 -13.15820595 27.6945541 -10 34 C-6.57585215 36.68379156 -4.28814202 37.23823011 0 37 C1 38 1 38 1.25 40.9375 C1.12625 42.4534375 1.12625 42.4534375 1 44 C-2.78203164 46.52135442 -4.45950265 46.0852569 -8.7890625 45.46875 C-13.73997601 44.41908636 -16.84419487 41.67169871 -19.9296875 37.72265625 C-23.50905197 31.96170832 -23.68010193 24.57083094 -23 18 C-21.62296718 12.33104735 -19.09230211 6.21764205 -14.24609375 2.7421875 C-9.37874559 0.01799655 -5.53111696 -0.57218451 0 0 Z "
        transform="translate(192,114)" />
    <path
        d="M0 0 C2.81145733 1.78910921 4.0550996 2.92353315 5.75 5.75 C7.42183788 17.3709123 3.1513854 24.54418135 -3.60546875 33.58984375 C-4.14816406 34.30269531 -4.69085938 35.01554687 -5.25 35.75 C-4.46753906 35.73839844 -3.68507813 35.72679687 -2.87890625 35.71484375 C-1.86699219 35.70582031 -0.85507812 35.69679687 0.1875 35.6875 C1.19683594 35.67589844 2.20617187 35.66429687 3.24609375 35.65234375 C5.75 35.75 5.75 35.75 6.75 36.75 C6.875 40.25 6.875 40.25 6.75 43.75 C5.09605883 45.40394117 3.14684587 44.87999683 0.875 44.8828125 C-0.10984375 44.88410156 -1.0946875 44.88539063 -2.109375 44.88671875 C-3.14578125 44.88285156 -4.1821875 44.87898438 -5.25 44.875 C-6.80460938 44.88080078 -6.80460938 44.88080078 -8.390625 44.88671875 C-9.37546875 44.88542969 -10.3603125 44.88414062 -11.375 44.8828125 C-12.28507813 44.88168457 -13.19515625 44.88055664 -14.1328125 44.87939453 C-16.25 44.75 -16.25 44.75 -17.25 43.75 C-17.79725387 38.64959395 -16.72729651 36.38618326 -13.5625 32.4375 C-5.94718434 22.6186015 -5.94718434 22.6186015 -3.25 10.75 C-3.91 9.76 -4.57 8.77 -5.25 7.75 C-7.68693311 7.38583953 -7.68693311 7.38583953 -10.375 7.5625 C-11.74011719 7.60310547 -11.74011719 7.60310547 -13.1328125 7.64453125 C-13.83148438 7.67933594 -14.53015625 7.71414062 -15.25 7.75 C-15.58 5.77 -15.91 3.79 -16.25 1.75 C-10.54868691 -1.58735401 -6.25461209 -2.40562003 0 0 Z "
        transform="translate(262.25,115.25)" />
    <path
        d="M0 0 C2.82957349 2.4253487 3.96682625 4.34860918 5.1875 7.875 C5.09390595 13.20986102 3.82134843 16.00670974 0.1875 19.875 C1.3940625 21.298125 1.3940625 21.298125 2.625 22.75 C5.0824635 25.64854669 6.1244529 27.21931018 6.5 31.125 C6.12820717 35.58651398 5.04882228 37.47234648 2.1875 40.875 C-1.93650379 44.29203171 -6.57708554 44.91286918 -11.8125 44.875 C-14.875 43.9375 -14.875 43.9375 -16.8125 42.875 C-16.8125 40.895 -16.8125 38.915 -16.8125 36.875 C-14.30553503 36.10362616 -12.40434514 35.88332969 -9.75 35.9375 C-6.61916091 36.13385068 -6.61916091 36.13385068 -3.8125 33.875 C-3.22904524 30.91753508 -3.22904524 30.91753508 -3.8125 27.875 C-6.19932245 25.40293389 -8.4604941 24.47357248 -11.8125 23.875 C-11.8125 21.895 -11.8125 19.915 -11.8125 17.875 C-10.843125 17.483125 -9.87375 17.09125 -8.875 16.6875 C-5.62491863 15.20038017 -5.62491863 15.20038017 -4.875 12.3125 C-4.62120706 9.86592493 -4.62120706 9.86592493 -5.8125 7.875 C-7.93826782 7.40848793 -7.93826782 7.40848793 -10.375 7.25 C-11.20128906 7.17523438 -12.02757812 7.10046875 -12.87890625 7.0234375 C-13.51699219 6.97445312 -14.15507812 6.92546875 -14.8125 6.875 C-15.1425 4.895 -15.4725 2.915 -15.8125 0.875 C-10.56132077 -1.75058962 -5.44953232 -2.17981293 0 0 Z "
        transform="translate(292.8125,115.125)" />
    <path
        d="M0 0 C1.051875 -0.00386719 1.051875 -0.00386719 2.125 -0.0078125 C4 0.125 4 0.125 6 1.125 C6.76313147 4.0313051 7.40405561 6.887386 7.98046875 9.83203125 C8.15757889 10.70897141 8.33468903 11.58591156 8.51716614 12.48942566 C8.89029867 14.34895262 9.25904398 16.2093644 9.6237793 18.07055664 C10.1835908 20.91761877 10.76166193 23.76053387 11.34179688 26.60351562 C11.70163048 28.40863332 12.06038976 30.21396558 12.41796875 32.01953125 C12.59184616 32.87070023 12.76572357 33.7218692 12.94487 34.59883118 C13.09865616 35.39613144 13.25244232 36.1934317 13.41088867 37.01489258 C13.54919601 37.71358963 13.68750336 38.41228668 13.83000183 39.13215637 C14.01945907 41.35311351 13.65248173 43.0063122 13 45.125 C10.125 45.25 10.125 45.25 7 45.125 C4.04816899 42.17316899 3.91336012 39.16988053 3 35.125 C0.69 35.125 -1.62 35.125 -4 35.125 C-4.99 38.425 -5.98 41.725 -7 45.125 C-9.64 45.125 -12.28 45.125 -15 45.125 C-14.3675286 39.49628246 -13.43984067 34.0335682 -12.22265625 28.50390625 C-12.05124619 27.71853989 -11.87983612 26.93317352 -11.70323181 26.12400818 C-11.34293979 24.48075851 -10.98065706 22.83794415 -10.61645508 21.19555664 C-10.05905985 18.67192457 -9.51474192 16.14568126 -8.97070312 13.61914062 C-8.61798263 12.01805379 -8.26449488 10.41713575 -7.91015625 8.81640625 C-7.74862564 8.05920792 -7.58709503 7.30200958 -7.42066956 6.52186584 C-7.01121544 4.70724654 -6.51365687 2.91291848 -6 1.125 C-3.75487738 0.00243869 -2.48543351 -0.00913762 0 0 Z M-1 11.125 C-2.38529821 16.57961169 -3.2396943 21.49218401 -3 27.125 C-1.35 27.125 0.3 27.125 2 27.125 C1.88658509 24.64479503 1.75985314 22.16655031 1.625 19.6875 C1.5940625 18.98044922 1.563125 18.27339844 1.53125 17.54492188 C1.42719371 15.73260812 1.22080108 13.92682012 1 12.125 C0.34 11.795 -0.32 11.465 -1 11.125 Z "
        transform="translate(117,114.875)" />
    <path
        d="M0 0 C0.81159073 0.00789551 1.62318146 0.01579102 2.45936584 0.02392578 C3.07855392 0.03407715 3.697742 0.04422852 4.33569336 0.0546875 C4.3609646 6.30264425 4.3785268 12.55058791 4.390625 18.79858398 C4.39566634 20.92586764 4.40249927 23.05314781 4.41113281 25.18041992 C4.42320715 28.23096576 4.4289235 31.28146595 4.43334961 34.33203125 C4.43851089 35.28931625 4.44367218 36.24660126 4.44898987 37.2328949 C4.44910316 38.55415123 4.44910316 38.55415123 4.44921875 39.90209961 C4.45143936 40.68153427 4.45365997 41.46096893 4.45594788 42.26402283 C4.33569336 44.0546875 4.33569336 44.0546875 3.33569336 45.0546875 C0.33569336 45.1796875 0.33569336 45.1796875 -2.66430664 45.0546875 C-4.64259736 43.07639678 -3.91934596 39.23141723 -3.98071289 36.51953125 C-4.00149399 35.76628067 -4.02227509 35.01303009 -4.04368591 34.23695374 C-4.10926089 31.8221276 -4.16810285 29.40718952 -4.22680664 26.9921875 C-4.26998434 25.35871221 -4.31359837 23.7252484 -4.35766602 22.09179688 C-4.46495026 18.07954286 -4.56619485 14.06717586 -4.66430664 10.0546875 C-6.97430664 10.7146875 -9.28430664 11.3746875 -11.66430664 12.0546875 C-13.01870332 9.34589415 -12.72932115 7.04535482 -12.66430664 4.0546875 C-8.12181004 1.41178039 -5.28831751 -0.06670326 0 0 Z "
        transform="translate(232.664306640625,114.9453125)" />
    <path
        d="M0 0 C0.69802734 0.00386719 1.39605469 0.00773438 2.11523438 0.01171875 C2.80939453 0.00785156 3.50355469 0.00398437 4.21875 0 C9.42445449 0.01007881 9.42445449 0.01007881 11.67773438 1.13671875 C11.67773438 3.77671875 11.67773438 6.41671875 11.67773438 9.13671875 C5.73773438 9.13671875 -0.20226562 9.13671875 -6.32226562 9.13671875 C-6.32226562 0.01226434 -6.32226562 0.01226434 0 0 Z "
        transform="translate(203.322265625,131.86328125)" />
    <path
        d="M0 0 C2.33944736 0.28730055 4.6739143 0.61936779 7 1 C7.1875 3.875 7.1875 3.875 7 7 C4 9 4 9 1.875 8.6875 C0 8 0 8 -1 7 C-1.125 4 -1.125 4 -1 1 C-0.67 0.67 -0.34 0.34 0 0 Z "
        transform="translate(121,178)" />
    <path
        d="M0 0 C2.5 0.25 2.5 0.25 4.5 2.25 C4.125 5.375 4.125 5.375 3.5 8.25 C1.1875 8.875 1.1875 8.875 -1.5 9.25 C-2.49 8.59 -3.48 7.93 -4.5 7.25 C-4.8125 4.75 -4.8125 4.75 -4.5 2.25 C-2.5 0.25 -2.5 0.25 0 0 Z "
        transform="translate(278.5,177.75)" />
</svg>