<?xml version="1.0" encoding="UTF-8"?>
<svg version="1.1" xmlns="http://www.w3.org/2000/svg" viewBox="70 25 235.000000 260.000000">
    <path
        d="M0 0 C11.68118717 12.30920799 16.40894873 24.98452542 16 42 C14.40920158 57.03460466 7.48202017 69.16702681 -4.15625 78.78125 C-16.42412745 87.49322094 -30.29795887 90.83703241 -45.16015625 88.50390625 C-60.23667042 85.06062495 -71.47497617 76.90855343 -80 64 C-80.721875 62.96875 -81.44375 61.9375 -82.1875 60.875 C-88.59905374 49.15178249 -87.96704191 35.00210501 -85.03125 22.45703125 C-81.16742793 9.50444589 -72.3654769 -0.69183607 -60.83203125 -7.53125 C-40.42206209 -18.11628228 -17.25035978 -15.44417644 0 0 Z "
        transform="translate(224,41)" />
    <path
        d="M0 0 C0.53625 0.721875 1.0725 1.44375 1.625 2.1875 C9.65475596 11.69642153 21.87003939 16.76799165 34.0625 17.9375 C49.47716745 18.50082672 61.96901951 14.14225513 73.72265625 4.18359375 C75.75732226 2.23268758 77.40052579 0.31268238 79 -2 C105.9323053 2.68877181 131.1823093 16.47965137 154 31 C154 48.16 154 65.32 154 83 C77.77 83 1.54 83 -77 83 C-77 65.84 -77 48.68 -77 31 C-61.17657479 21.26250756 -46.21468947 12.85256203 -29 6 C-27.78828125 5.50371094 -26.5765625 5.00742188 -25.328125 4.49609375 C-5.21696383 -3.56280457 -5.21696383 -3.56280457 0 0 Z "
        transform="translate(150,176)" />
</svg>