<?xml version="1.0" encoding="UTF-8"?>
<svg version="1.1" xmlns="http://www.w3.org/2000/svg" width="354" height="300">
<path d="M0 0 C1.83069413 -0.00542611 3.66138388 -0.01255151 5.49206543 -0.02124023 C10.44450073 -0.03941702 15.39660131 -0.03242975 20.34904218 -0.01972389 C25.54096683 -0.00956847 30.7328636 -0.01899648 35.92478943 -0.02526855 C44.64115524 -0.03253691 53.35738529 -0.02297788 62.07373047 -0.00390625 C72.14119355 0.01786772 82.20833264 0.01080399 92.27578789 -0.01121187 C100.93167722 -0.02938084 109.58746919 -0.03191706 118.24337143 -0.0214572 C123.40790773 -0.0152314 128.57229188 -0.01436166 133.73681831 -0.02760315 C138.59200539 -0.03918304 143.44677582 -0.03109682 148.30191803 -0.00802612 C150.08043413 -0.00275076 151.85898548 -0.00423269 153.63748741 -0.01307678 C156.0716241 -0.02406254 158.50443862 -0.0102337 160.93849182 0.00964355 C161.63665734 0.00072067 162.33482287 -0.00820222 163.05414492 -0.0173955 C169.23467866 0.08002322 174.46625068 2.2021635 178.96264648 6.41210938 C179.40866211 7.04503906 179.85467773 7.67796875 180.31420898 8.33007812 C180.77569336 8.95527344 181.23717773 9.58046875 181.71264648 10.22460938 C185.58720922 17.46782061 185.23555373 24.80745239 185.22973633 32.83740234 C185.23572814 34.18342458 185.24253518 35.5294434 185.25009155 36.87545776 C185.26769096 40.51604586 185.27244432 44.15653982 185.27372313 47.79716635 C185.27514856 50.07558377 185.27942553 52.35397754 185.28471756 54.63238907 C185.30319677 62.59201822 185.31139069 70.55158057 185.30981445 78.51123047 C185.30861316 85.91341242 185.32971845 93.31530275 185.36130178 100.71741092 C185.38750826 107.08792987 185.39817995 113.45835381 185.39690363 119.82892621 C185.39639535 123.627031 185.40200452 127.42487633 185.42325974 131.22292709 C185.44271666 134.79686807 185.44271647 138.37030398 185.42822647 141.94426346 C185.42516055 143.86883256 185.44176195 145.79340212 185.45910645 147.71789551 C185.40011168 155.89947064 184.34363708 162.46339835 178.97436523 168.85742188 C177.99790039 169.64826172 177.99790039 169.64826172 177.00170898 170.45507812 C176.35331055 171.00035156 175.70491211 171.545625 175.03686523 172.10742188 C170.27407653 175.3092221 165.96111799 175.80978599 160.33049011 175.78500366 C159.57232178 175.78953478 158.81415344 175.79406589 158.0330103 175.79873431 C155.49671675 175.81137775 152.96063795 175.80975798 150.42431641 175.80810547 C148.60406722 175.81409078 146.78382058 175.82089633 144.96357727 175.82846069 C140.02133148 175.84612821 135.07915495 175.85081641 130.13688064 175.85209227 C127.04807233 175.85351406 123.95928161 175.85778422 120.87047768 175.8630867 C110.09153755 175.88158986 99.31264689 175.889757 88.53369141 175.88818359 C78.49132625 175.8869823 68.44917606 175.90808159 58.4068653 175.93967092 C49.78079824 175.96583685 41.15480137 175.97655075 32.52869493 175.97527277 C27.37860801 175.97476321 22.22871211 175.98044332 17.07866478 176.00162888 C12.23341391 176.02101638 7.38853617 176.02113217 2.54327202 176.00659561 C0.76797184 176.00450702 -1.00735171 176.00921144 -2.78261185 176.02131653 C-5.21255058 176.03680859 -7.64120904 176.02743579 -10.07112122 176.01205444 C-10.76812427 176.02234157 -11.46512732 176.0326287 -12.18325168 176.04322755 C-18.36155733 175.95722683 -23.47937548 173.79002114 -28.08422852 169.73632812 C-28.53024414 169.16914063 -28.97625977 168.60195312 -29.43579102 168.01757812 C-29.89727539 167.45039063 -30.35875977 166.88320312 -30.83422852 166.29882812 C-34.61876013 160.80282043 -35.18120454 155.31848332 -35.20123291 148.73149109 C-35.20694305 147.60033875 -35.2126532 146.4691864 -35.21853638 145.30375671 C-35.21965424 144.07711807 -35.22077209 142.85047943 -35.22192383 141.58666992 C-35.22937119 139.6319426 -35.22937119 139.6319426 -35.23696899 137.63772583 C-35.25003953 134.0735414 -35.25652727 130.50937575 -35.26097965 126.94517112 C-35.26391859 124.71484169 -35.26802489 122.48451731 -35.27248383 120.25419044 C-35.28614369 113.26550468 -35.29581814 106.27683055 -35.29968572 99.28813237 C-35.30416511 91.23988651 -35.32171376 83.19181059 -35.35068631 75.14361638 C-35.37234595 68.90900793 -35.38239225 62.67444716 -35.38372684 56.43980151 C-35.38477165 52.72220325 -35.39061044 49.00476507 -35.40854645 45.28720665 C-35.42818252 41.13692378 -35.42372116 36.98699422 -35.41723633 32.83666992 C-35.42645111 31.61610397 -35.43566589 30.39553802 -35.44515991 29.13798523 C-35.40462616 20.84359232 -34.45515436 14.24996805 -29.93579102 7.20507812 C-21.31804999 -0.85063631 -11.09951195 -0.05526408 0 0 Z M-12.06079102 21.51757812 C-12.13659564 23.45415056 -12.19095457 25.39157157 -12.23608398 27.32910156 C-12.26862274 28.4078656 -12.3011615 29.48662964 -12.33468628 30.5980835 C-12.30873146 33.48994342 -12.30873146 33.48994342 -10.76733398 35.34114075 C-8.99501785 36.73914815 -7.19700651 37.74189928 -5.18579102 38.76757812 C-3.62293443 39.66930413 -2.06045945 40.57169172 -0.49829102 41.47460938 C0.36666992 41.95365723 1.23163086 42.43270508 2.12280273 42.92626953 C7.45224171 45.93747647 12.61472715 49.22651764 17.81420898 52.45507812 C20.06485048 53.83636339 22.31614645 55.21658285 24.56811523 56.59570312 C29.98912278 59.92451917 35.38028918 63.29695351 40.75170898 66.70507812 C47.5924051 71.03925396 54.442668 75.35742611 61.31420898 79.64257812 C62.20084229 80.19969482 63.08747559 80.75681152 64.00097656 81.33081055 C65.25044067 82.10775269 65.25044067 82.10775269 66.52514648 82.90039062 C67.25781738 83.35816895 67.99048828 83.81594727 68.74536133 84.28759766 C71.14611846 85.6335819 73.28577936 86.75885983 75.93920898 87.51757812 C78.1223906 86.90267134 78.1223906 86.90267134 80.13452148 85.50976562 C80.92286377 85.02378906 81.71120605 84.5378125 82.5234375 84.03710938 C83.36189209 83.49441406 84.20034668 82.95171875 85.06420898 82.39257812 C86.38666626 81.56693359 86.38666626 81.56693359 87.73583984 80.72460938 C90.48115733 79.00551246 93.21024928 77.26249283 95.93920898 75.51757812 C97.56176935 74.49753723 99.18542165 73.47923064 100.81030273 72.46289062 C105.53347228 69.5022733 110.23715985 66.51158424 114.93920898 63.51757812 C127.028076 55.83131753 139.18385785 48.26020173 151.39648438 40.77246094 C152.4624585 40.11858398 153.52843262 39.46470703 154.62670898 38.79101562 C155.57932617 38.20755371 156.53194336 37.6240918 157.51342773 37.02294922 C159.34297616 35.88758332 161.14763192 34.71196283 162.93920898 33.51757812 C163.34192412 30.8867562 163.34192412 30.8867562 163.18920898 27.95507812 C163.16600586 26.46814453 163.16600586 26.46814453 163.14233398 24.95117188 C163.20740285 22.57049172 163.20740285 22.57049172 161.93920898 21.51757812 C159.69896255 21.42053171 157.45558845 21.39571157 155.21324158 21.39732361 C154.50184904 21.39646918 153.79045651 21.39561476 153.05750662 21.39473444 C150.65598851 21.39307756 148.2545391 21.39860438 145.85302734 21.40405273 C144.13861594 21.40433459 142.42420442 21.40417691 140.70979309 21.40361023 C136.04056925 21.40332218 131.37137087 21.40922009 126.70215297 21.41618419 C121.82809371 21.42241651 116.95403394 21.42302143 112.07997131 21.42420959 C102.84351469 21.42732327 93.60706983 21.43553714 84.3706184 21.44555908 C73.85810033 21.4567191 63.34558171 21.46223039 52.83305919 21.46725452 C31.20176921 21.47771973 9.57048984 21.49531987 -12.06079102 21.51757812 Z M-12.06079102 55.51757812 C-12.06079102 87.85757813 -12.06079102 120.19757813 -12.06079102 153.51757812 C45.68920898 153.51757812 103.43920898 153.51757812 162.93920898 153.51757812 C162.93920898 121.17757812 162.93920898 88.83757812 162.93920898 55.51757812 C159.21646442 57.00667595 156.42762836 58.3307833 153.11499023 60.43164062 C151.71543091 61.31372192 151.71543091 61.31372192 150.28759766 62.21362305 C149.28575439 62.85017822 148.28391113 63.4867334 147.25170898 64.14257812 C145.0881955 65.50673049 142.92411306 66.86998084 140.75952148 68.23242188 C139.92226784 68.76011925 139.92226784 68.76011925 139.06809998 69.29847717 C132.95106373 73.14961617 126.78923861 76.92727869 120.62670898 80.70507812 C112.92978475 85.42909817 105.25636381 90.18564464 97.62670898 95.01757812 C96.86430908 95.49751221 96.10190918 95.97744629 95.31640625 96.47192383 C91.87018303 98.64379207 88.44544789 100.83746271 85.06030273 103.10351562 C84.46451416 103.49345703 83.86872559 103.88339844 83.25488281 104.28515625 C81.69624229 105.30609393 80.1491766 106.34464477 78.60327148 107.38476562 C75.93920898 108.51757812 75.93920898 108.51757812 73.57861328 107.77270508 C70.93716294 106.51660516 68.51661203 105.13093798 66.04467773 103.56835938 C65.10148682 102.97522949 64.1582959 102.38209961 63.18652344 101.77099609 C62.17678467 101.13049316 61.1670459 100.48999023 60.12670898 99.83007812 C57.9574964 98.4641002 55.78822389 97.09821745 53.61889648 95.73242188 C52.50998047 95.0322998 51.40106445 94.33217773 50.25854492 93.61083984 C45.09867539 90.35688858 39.92546821 87.12438266 34.75170898 83.89257812 C33.26936768 82.96590332 33.26936768 82.96590332 31.75708008 82.02050781 C22.59657812 76.29651004 13.41595125 70.60537876 4.22485352 64.93066406 C2.07415191 63.60100577 -0.07385758 62.26712103 -2.22094727 60.93164062 C-3.41754558 60.1894269 -4.61415885 59.44723728 -5.81079102 58.70507812 C-6.81625977 58.07988281 -7.82172852 57.4546875 -8.85766602 56.81054688 C-10.77877993 55.43321961 -10.77877993 55.43321961 -12.06079102 55.51757812 Z " fill="#000000" transform="translate(105.060791015625,58.482421875)"/>
</svg>
