<?xml version="1.0" encoding="UTF-8"?>
<svg version="1.1" xmlns="http://www.w3.org/2000/svg" width="411" height="300">
<path d="M0 0 C1.57696655 -0.01029488 1.57696655 -0.01029488 3.18579102 -0.02079773 C6.64816943 -0.03904345 10.11009376 -0.03523129 13.57250977 -0.02954102 C15.98714851 -0.03410381 18.40178595 -0.03940967 20.81642151 -0.04542542 C25.8726225 -0.05435213 30.9286655 -0.05193818 35.98486328 -0.04199219 C42.45562946 -0.03050225 48.92584995 -0.05071731 55.39654446 -0.07990932 C60.38177438 -0.09827871 65.3668737 -0.09797735 70.35212898 -0.0922718 C72.73748604 -0.09211869 75.12285201 -0.09815504 77.5081768 -0.11056328 C80.84694268 -0.12548504 84.18470253 -0.1147864 87.5234375 -0.09765625 C88.50290848 -0.10732422 89.48237946 -0.11699219 90.49153137 -0.12695312 C97.73279922 -0.04938258 103.0727619 1.55285409 108.56860352 6.36889648 C109.10743164 7.01987305 109.64625977 7.67084961 110.20141602 8.34155273 C110.75571289 8.98995117 111.31000977 9.63834961 111.88110352 10.30639648 C116.12996695 16.47299018 116.23941663 23.13731317 115.32641602 30.40405273 C113.04657364 33.79124713 111.59762958 34.88252922 107.88891602 36.40405273 C104.33107829 36.40405273 102.29516051 35.31724363 99.32641602 33.40405273 C97.52334401 30.52654742 97.0247986 28.07472223 96.76391602 24.71655273 C96.73135295 21.76223986 96.73135295 21.76223986 95.32641602 19.40405273 C93.98802129 19.30663206 92.64454777 19.27773715 91.3026123 19.27706909 C90.43602493 19.27424927 89.56943756 19.27142944 88.67658997 19.26852417 C87.23965034 19.27156052 87.23965034 19.27156052 85.77368164 19.2746582 C84.77052414 19.27290588 83.76736664 19.27115356 82.73381042 19.26934814 C79.4000783 19.26492757 76.06639873 19.26786834 72.73266602 19.27124023 C70.4272053 19.27056725 68.12174465 19.26959728 65.81628418 19.26834106 C60.97736945 19.26686381 56.13847314 19.26901953 51.29956055 19.27368164 C45.08146956 19.27937894 38.86342174 19.27610008 32.64533234 19.27010918 C27.88258537 19.2665043 23.11984871 19.26764181 18.35710144 19.27023697 C16.06365453 19.27090644 13.7702067 19.27007711 11.47676086 19.26775742 C8.27753195 19.2652321 5.07837399 19.26906979 1.87915039 19.2746582 C0.92119064 19.27263397 -0.0367691 19.27060974 -1.02375793 19.26852417 C-1.89034531 19.27134399 -2.75693268 19.27416382 -3.64978027 19.27706909 C-4.78578548 19.27763463 -4.78578548 19.27763463 -5.9447403 19.27821159 C-7.70437909 19.21687882 -7.70437909 19.21687882 -8.67358398 20.40405273 C-8.76997582 22.20099311 -8.79545823 24.00176166 -8.7938385 25.80128479 C-8.79521317 26.97222687 -8.79658783 28.14316895 -8.79800415 29.34959412 C-8.79440887 30.6457515 -8.7908136 31.94190887 -8.78710938 33.27734375 C-8.7868275 34.64693195 -8.78698523 36.01652029 -8.78755188 37.3861084 C-8.78783986 41.11528221 -8.78194307 44.84442414 -8.77497792 48.57359052 C-8.76874445 52.46669686 -8.76814059 56.35980386 -8.76695251 60.25291443 C-8.76383918 67.6300342 -8.75562576 75.00713922 -8.74560302 82.38425249 C-8.73444196 90.78072816 -8.72893145 99.17720453 -8.72390759 107.57368577 C-8.71344315 124.8504833 -8.69584366 142.12726646 -8.67358398 159.40405273 C-5.90841277 160.32577647 -4.28914527 160.52781111 -1.44050598 160.52430725 C-0.14695442 160.52636925 -0.14695442 160.52636925 1.17272949 160.5284729 C2.11571899 160.52487762 3.0587085 160.52128235 4.03027344 160.51757812 C5.52322685 160.51779716 5.52322685 160.51779716 7.04634094 160.51802063 C10.34154426 160.51732305 13.6366913 160.50953784 16.93188477 160.50170898 C19.21446197 160.49984426 21.49703957 160.49842061 23.77961731 160.49742126 C29.79166771 160.49360041 35.803694 160.48377377 41.81573486 160.47271729 C47.94884922 160.46249391 54.08196747 160.45792165 60.21508789 160.45288086 C72.25220786 160.44215115 84.28930994 160.42507987 96.32641602 160.40405273 C96.37467529 159.652771 96.42293457 158.90148926 96.47265625 158.12744141 C96.54685791 157.13977783 96.62105957 156.15211426 96.69750977 155.13452148 C96.76639404 154.15636475 96.83527832 153.17820801 96.90625 152.17041016 C97.58075979 147.72946281 98.7909258 146.18731099 102.32641602 143.40405273 C105.21662086 142.55742707 107.43525835 142.56468438 110.32641602 143.40405273 C113.9615664 146.13041553 115.0243708 147.68090951 115.80297852 152.12280273 C116.16526275 159.52102809 114.72557896 165.4032528 110.32641602 171.40405273 C104.29830421 177.72046554 97.09392293 179.41516939 88.54626465 179.65802002 C86.81742175 179.66973369 85.0884834 179.67080248 83.35961914 179.6628418 C82.40715805 179.66634644 81.45469696 179.66985107 80.47337341 179.67346191 C77.35139494 179.68220365 74.22964645 179.67645687 71.10766602 179.66967773 C68.92248491 179.67102655 66.7373041 179.6729689 64.55212402 179.67547607 C59.98288096 179.67841711 55.41371634 179.67416255 50.84448242 179.66479492 C45.00401819 179.65340108 39.16373783 179.65996601 33.32328033 179.67193985 C28.814134 179.67918601 24.30503085 179.67685786 19.79588318 179.67168427 C17.64302041 179.67035539 15.49015364 179.67196861 13.33729553 179.67664337 C10.32249648 179.681754 7.30799028 179.67393485 4.29321289 179.6628418 C2.97437355 179.66891449 2.97437355 179.66891449 1.62889099 179.67510986 C-7.88479423 179.61065049 -15.73671472 178.29383917 -22.67358398 171.40405273 C-26.67822141 166.04524601 -27.79513321 161.14728641 -27.81402588 154.58599854 C-27.81973602 153.39725128 -27.82544617 152.20850403 -27.83132935 150.98373413 C-27.8324472 149.68287872 -27.83356506 148.38202332 -27.8347168 147.04174805 C-27.8393472 145.65513986 -27.84437216 144.26853294 -27.84976196 142.88192749 C-27.86286752 139.11728493 -27.86932744 135.35266019 -27.87377262 131.58799839 C-27.87670663 129.23406549 -27.88081208 126.88013743 -27.88527679 124.52620697 C-27.89894755 117.15575218 -27.90861598 109.78530848 -27.91247869 102.41484189 C-27.91695702 93.91717579 -27.93449619 85.41967072 -27.96347928 76.92205358 C-27.98512383 70.34695205 -27.99518446 63.77189574 -27.9965198 57.19675899 C-27.99756595 53.27292735 -28.00343289 49.34924719 -28.02133942 45.42545319 C-28.03786795 41.73180378 -28.03995261 38.03841894 -28.03120041 34.34474564 C-28.03006796 32.35197266 -28.04374875 30.35920827 -28.05795288 28.3664856 C-28.0226557 20.76074039 -27.64859642 14.5646518 -23.09545898 8.19702148 C-22.54374023 7.6672168 -21.99202148 7.13741211 -21.42358398 6.59155273 C-20.88217773 6.04885742 -20.34077148 5.50616211 -19.78295898 4.94702148 C-13.41884459 0.29178966 -7.64663954 -0.03507147 0 0 Z " fill="#000000" transform="translate(38.673583984375,45.595947265625)"/>
<path d="M0 0 C2.59726891 0.01823583 5.19417755 0.02050884 7.79150391 0.02026367 C44.25624134 0.09488632 44.25624134 0.09488632 54.27197266 9.6784668 C59.52043593 15.33735493 63.68989777 21.82410506 67.99853516 28.2019043 C70.99311601 32.62322814 74.15526479 36.90240126 77.36962891 41.16674805 C78.73291016 43.20581055 78.73291016 43.20581055 78.73291016 45.20581055 C79.39186279 45.31127197 80.05081543 45.4167334 80.72973633 45.52539062 C118.19417987 51.55411406 118.19417987 51.55411406 123.34985352 58.33129883 C125.11879443 62.00782316 125.21876624 65.32370154 125.23681641 69.32299805 C125.24680161 70.09837921 125.2567868 70.87376038 125.26707458 71.67263794 C125.28221653 73.30815316 125.28930159 74.94376046 125.28881836 76.5793457 C125.29537398 79.06708267 125.34986796 81.55081148 125.40673828 84.0378418 C125.54900247 97.33346528 125.54900247 97.33346528 121.92822266 101.7175293 C118.17496607 105.1363314 113.85698736 107.20581055 108.73291016 107.20581055 C108.58853516 108.03081055 108.44416016 108.85581055 108.29541016 109.70581055 C105.75871783 115.38800136 100.89785797 119.59730911 95.35791016 122.4128418 C87.12720144 124.89920172 78.59246157 123.92332958 71.01416016 120.08081055 C68.73291016 118.20581055 68.73291016 118.20581055 67.86079407 116.31253052 C66.45146814 113.53249412 65.25574657 112.07497706 62.73291016 110.20581055 C56.47227672 108.91478356 50.24125271 109.02990929 43.86962891 109.07299805 C41.99403145 109.06252089 40.11844455 109.04996619 38.24287415 109.03543091 C34.31432477 109.0146332 30.38722451 109.02372163 26.45874023 109.05297852 C21.4404892 109.08730419 16.42682927 109.04044262 11.409091 108.96999931 C7.53530423 108.92591853 3.66260433 108.92896512 -0.21135521 108.94552994 C-2.06004043 108.94716298 -3.90880789 108.93354963 -5.75725746 108.90398788 C-16.12660114 108.50613288 -16.12660114 108.50613288 -25.3465271 112.44171143 C-27.56830089 114.92430299 -29.39425958 117.45906415 -31.26708984 120.20581055 C-37.52182936 124.37563689 -44.99765659 123.94621579 -52.26708984 123.20581055 C-58.53162502 121.51920492 -63.2407271 117.16803058 -67.26708984 112.20581055 C-67.51201172 111.51358398 -67.75693359 110.82135742 -68.00927734 110.1081543 C-70.01505493 107.07457143 -73.15285697 106.95675051 -76.51708984 106.26831055 C-82.27074094 104.91270981 -86.35557271 103.78787348 -90.26708984 99.20581055 C-92.49345078 94.91434151 -92.58883809 90.789244 -92.60302734 86.0534668 C-92.60968414 85.27571396 -92.61634094 84.49796112 -92.62319946 83.69664001 C-92.63329322 82.05689854 -92.6380175 80.41711626 -92.63769531 78.77734375 C-92.64207025 76.27949934 -92.67842619 73.7834211 -92.71630859 71.28588867 C-92.7221773 69.68758738 -92.72614633 68.08927776 -92.72802734 66.4909668 C-92.74239838 65.75016373 -92.75676941 65.00936066 -92.77157593 64.24610901 C-92.72639397 59.07565911 -91.51384786 56.19051858 -88.26708984 52.20581055 C-84.19640104 48.71165707 -81.49658554 48.02645983 -76.2019043 47.85546875 C-71.67252209 47.55383797 -68.09204704 46.73260508 -64.26708984 44.20581055 C-58.37737816 37.34413947 -54.29134947 29.21278647 -50.0776062 21.25883484 C-45.54169162 12.80520658 -40.58204058 5.50045383 -31.26708984 2.20581055 C-20.93742669 -0.08927632 -10.52200701 -0.07610319 0 0 Z M-32.63818359 20.77612305 C-35.7012461 24.58503492 -38.13529087 28.73351039 -40.57958984 32.95581055 C-41.03398437 33.72280273 -41.48837891 34.48979492 -41.95654297 35.2800293 C-44.38772806 39.007977 -44.38772806 39.007977 -45.26708984 43.20581055 C-32.06708984 43.20581055 -18.86708984 43.20581055 -5.26708984 43.20581055 C-5.26708984 33.96581055 -5.26708984 24.72581055 -5.26708984 15.20581055 C-20.19404133 14.01538432 -20.19404133 14.01538432 -32.63818359 20.77612305 Z M8.73291016 15.20581055 C8.73291016 24.44581055 8.73291016 33.68581055 8.73291016 43.20581055 C25.56291016 43.20581055 42.39291016 43.20581055 59.73291016 43.20581055 C56.89653524 37.53306071 53.30848209 32.4352519 49.73291016 27.20581055 C48.91693359 25.98958008 48.91693359 25.98958008 48.08447266 24.7487793 C45.12308705 20.52606279 42.78460052 17.88970734 37.73291016 16.20581055 C31.23820133 15.11588244 24.73700182 15.08118002 18.17041016 15.14331055 C15.05603516 15.16393555 11.94166016 15.18456055 8.73291016 15.20581055 Z M-54.26708984 91.20581055 C-56.1940269 94.30566581 -56.2730989 96.03755709 -56.14208984 99.70581055 C-55.18340161 103.54056349 -54.04442205 105.42847835 -51.26708984 108.20581055 C-47.6613628 109.40771956 -45.05684635 109.53251369 -41.26708984 109.20581055 C-37.85495454 107.08270414 -35.5176024 105.07103119 -34.26708984 101.20581055 C-33.75153647 97.25323464 -34.10794296 95.50136904 -36.01708984 91.95581055 C-38.98981094 88.32248476 -40.54484899 87.43045066 -45.14208984 86.83081055 C-49.1681555 87.31393843 -51.17866161 88.60872317 -54.26708984 91.20581055 Z M76.73291016 91.20581055 C74.27373429 94.89457434 73.91699078 97.92425344 74.73291016 102.20581055 C76.47741522 105.22788995 78.5659318 107.62232137 81.73291016 109.20581055 C85.92782584 109.60916782 88.25791105 109.44779122 92.04541016 107.51831055 C94.92683341 105.03894635 95.96068763 103.89531819 96.73291016 100.20581055 C96.65711605 95.96134053 96.15560357 93.79501954 93.67041016 90.33081055 C87.49818184 85.86579432 82.57507628 86.19823958 76.73291016 91.20581055 Z " fill="#000000" transform="translate(281.26708984375,93.794189453125)"/>
<path d="M0 0 C2.4889173 1.83239418 4.59317083 3.96107819 6.73828125 6.1796875 C7.34512253 6.78886017 7.95196381 7.39803284 8.57719421 8.02566528 C9.85109412 9.30926626 11.11898332 10.59885764 12.38110352 11.89404297 C14.31161549 13.87409279 16.26028947 15.83472211 18.21289062 17.79296875 C19.45162426 19.04578493 20.68929215 20.29965598 21.92578125 21.5546875 C22.50596512 22.14023407 23.08614899 22.72578064 23.68391418 23.32907104 C29.98432933 29.81676857 29.98432933 29.81676857 30.02368164 35.29931641 C28.66107908 40.22522378 26.20165678 42.68190352 22.62109375 46.2109375 C21.97560074 46.86454254 21.33010773 47.51814758 20.66505432 48.19155884 C19.29971206 49.5653419 17.92670848 50.93154789 16.54663086 52.29052734 C14.44559161 54.367003 12.38149787 56.47578482 10.31835938 58.58984375 C8.98386229 59.92397032 7.64733757 61.2560724 6.30859375 62.5859375 C5.69680771 63.21503021 5.08502167 63.84412292 4.45469666 64.49227905 C0.08579305 68.72328014 -2.86148962 70.04905983 -9 70 C-12.35432257 67.64483735 -13.67332624 65.90315685 -15.0625 62.0625 C-14.94003898 56.06191005 -10.83534259 52.75837194 -6.8125 48.75 C-6.11769531 48.08484375 -5.42289062 47.4196875 -4.70703125 46.734375 C-2.9199627 45.09715894 -2.9199627 45.09715894 -2 43 C-2.86586227 43.01110306 -3.73172455 43.02220612 -4.62382507 43.03364563 C-12.78964071 43.13389205 -20.95524926 43.20998737 -29.12153912 43.25906086 C-33.31981881 43.28513862 -37.51758945 43.32050223 -41.71557617 43.37719727 C-45.76805932 43.43158381 -49.82005333 43.46143425 -53.87287331 43.47438622 C-55.41787223 43.48361434 -56.96284483 43.50163536 -58.50763512 43.52865028 C-60.67453914 43.56503239 -62.83943076 43.56994204 -65.0065918 43.56762695 C-66.23903122 43.57873001 -67.47147064 43.58983307 -68.74125671 43.60127258 C-72.9039521 42.83321128 -74.37403502 41.24230081 -77 38 C-77.90738141 34.97351665 -77.46433133 33.2503193 -77 30 C-74.79259319 27.03141843 -73.51402627 26.17134209 -70 25 C-67.80724981 24.91038047 -65.61181342 24.88241809 -63.41723633 24.88647461 C-62.75355545 24.88632858 -62.08987457 24.88618256 -61.40608215 24.8860321 C-59.21469848 24.88672818 -57.02340005 24.8945063 -54.83203125 24.90234375 C-53.31174262 24.90420901 -51.79145339 24.90563241 -50.27116394 24.90663147 C-46.27135557 24.91044812 -42.27158356 24.92027115 -38.27178955 24.93133545 C-34.18966158 24.94156787 -30.10752773 24.94613302 -26.02539062 24.95117188 C-18.01691041 24.96189417 -10.00845973 24.97896039 -2 25 C-3.09234918 23.73966994 -4.18644536 22.48085392 -5.28125 21.22265625 C-5.89033203 20.52148682 -6.49941406 19.82031738 -7.12695312 19.09790039 C-8.86520682 17.15097468 -10.66371766 15.29133709 -12.5 13.4375 C-14.85017771 10.68515285 -14.99399959 10.17701207 -15.125 6.3125 C-13.92630825 2.78301874 -12.93671962 1.24572677 -10 -1 C-6.15911371 -2.28029543 -3.57821057 -1.64620215 0 0 Z " fill="#000000" transform="translate(133,101)"/>
</svg>
