<?xml version="1.0" encoding="UTF-8"?>
<svg version="1.1" xmlns="http://www.w3.org/2000/svg"
    viewBox="0 0 500.000000 300.000000">
    <g transform="translate(0.000000,-50.000000) scale(1.3,1.3) " >
        <path
            d="M0 0 C0.88389404 -0.00511093 1.76778809 -0.01022186 2.6784668 -0.01548767 C5.58405434 -0.02932365 8.48940307 -0.02843134 11.39501953 -0.02612305 C13.42611783 -0.0300134 15.45721532 -0.03434877 17.48831177 -0.03910828 C21.73995606 -0.04655771 25.99151729 -0.04628856 30.24316406 -0.04101562 C35.67570973 -0.03522422 41.10791409 -0.05215041 46.54040337 -0.0753603 C50.73387622 -0.09013455 54.9272676 -0.09096429 59.12076187 -0.08785057 C61.1229126 -0.08836197 63.12506811 -0.09356554 65.12719345 -0.10366249 C67.93397571 -0.11608061 70.74010224 -0.10920302 73.546875 -0.09765625 C74.36378815 -0.10529999 75.18070129 -0.11294373 76.02236938 -0.12081909 C82.58321274 -0.06154257 89.08092617 0.9725771 94.27783203 5.2121582 C94.81408203 5.8927832 95.35033203 6.5734082 95.90283203 7.2746582 C96.45970703 7.9552832 97.01658203 8.6359082 97.59033203 9.3371582 C99.89015229 12.73213097 100.03086853 15.58361934 100.04327393 19.5683136 C100.04898407 20.66602081 100.05469421 21.76372803 100.06057739 22.8946991 C100.06225418 24.70180107 100.06225418 24.70180107 100.06396484 26.54541016 C100.0714122 28.44818726 100.0714122 28.44818726 100.07901001 30.3894043 C100.09212613 33.87092292 100.09857748 37.35242226 100.10302067 40.83396173 C100.10595282 43.00981102 100.11005791 45.18565505 100.11452484 47.36150169 C100.12819803 54.17132299 100.13786542 60.98113226 100.14172673 67.79096633 C100.14620646 75.64797241 100.16375101 83.50480442 100.19272733 91.36175758 C100.21435538 97.43744904 100.22443162 103.51309157 100.22576785 109.58882111 C100.22681513 113.21638474 100.23270625 116.84378471 100.25058746 120.47130775 C100.27015439 124.5195532 100.26577473 128.56743514 100.25927734 132.61572266 C100.26849213 133.81438461 100.27770691 135.01304657 100.28720093 136.24803162 C100.25329951 142.98166314 99.8913496 147.81271211 95.32470703 153.1027832 C94.77298828 153.57200195 94.22126953 154.0412207 93.65283203 154.5246582 C93.11142578 155.00418945 92.57001953 155.4837207 92.01220703 155.9777832 C86.35942167 159.45319939 80.33268367 159.56895972 73.89746094 159.54931641 C72.58625023 159.5569828 72.58625023 159.5569828 71.24855042 159.56480408 C68.37542768 159.57863845 65.5025465 159.57774787 62.62939453 159.57543945 C60.62071647 159.5793299 58.61203923 159.58366529 56.60336304 159.58842468 C52.3987969 159.59587377 48.19431475 159.59560522 43.98974609 159.59033203 C38.61773309 159.58454071 33.24606524 159.60146677 27.87410927 159.6246767 C23.72695933 159.63945199 19.57989178 159.64028055 15.43272018 159.63716698 C13.45289807 159.63767833 11.47307112 159.64288094 9.49327469 159.6529789 C6.71762304 159.66539904 3.94263426 159.65851826 1.16699219 159.64697266 C0.35942978 159.65461639 -0.44813263 159.66226013 -1.28016663 159.6701355 C-8.07341736 159.60808671 -14.05953161 158.09724002 -19.90966797 154.5871582 C-24.62643489 149.60086175 -26.35525362 144.96184894 -26.65966797 138.0871582 C-26.50955619 133.99273013 -26.26757537 132.53528128 -23.97216797 129.0246582 C-20.58412631 126.96237198 -18.98897173 126.52941919 -15.09716797 127.2746582 C-12.24312943 129.01879287 -11.29921426 130.51365752 -10.44482422 133.73168945 C-10.09336856 135.52488291 -9.77451938 137.32483567 -9.49169922 139.13012695 C-9.3114981 141.24949344 -9.3114981 141.24949344 -8.09716797 142.2746582 C-5.26676125 142.36986726 -2.46081804 142.40019451 0.36987305 142.38818359 C1.25759399 142.38832962 2.14531494 142.38847565 3.05993652 142.3886261 C6.00889487 142.38792663 8.9577909 142.38013269 11.90673828 142.37231445 C13.9455512 142.37045039 15.98436457 142.36902643 18.0231781 142.36802673 C23.40067777 142.36420061 28.77815061 142.35436953 34.15563965 142.34332275 C39.63842404 142.33311066 45.12121275 142.32852955 50.60400391 142.32348633 C61.37029176 142.31274734 72.13655967 142.29566979 82.90283203 142.2746582 C84.14508498 139.79015231 84.0259174 138.14449428 84.02308655 135.36459351 C84.02446121 134.32690323 84.02583588 133.28921295 84.0272522 132.22007751 C84.02365692 131.07712723 84.02006165 129.93417694 84.01635742 128.7565918 C84.01650345 127.55661057 84.01664948 126.35662933 84.01679993 125.12028503 C84.0162216 121.82502959 84.01119768 118.52983638 84.00422597 115.23459196 C83.99798531 111.79259645 83.99738807 108.35060015 83.99620056 104.90859985 C83.99308935 98.38857885 83.98487879 91.86857456 83.97485107 85.34856093 C83.96368341 77.92665082 83.95817784 70.50473993 83.95315564 63.08282351 C83.94269601 47.81342539 83.92510063 32.54404395 83.90283203 17.2746582 C71.92479644 17.2515363 59.94676613 17.2337439 47.96871281 17.22284603 C42.40743792 17.21761687 36.84617824 17.21051862 31.28491211 17.19921875 C25.92275784 17.18839105 20.56061825 17.18238162 15.1984539 17.17978096 C13.14782925 17.1779265 11.09720544 17.17430549 9.04658699 17.16892815 C6.18493 17.16171927 3.32333446 17.1606672 0.46166992 17.16113281 C-0.39500275 17.15753754 -1.25167542 17.15394226 -2.13430786 17.15023804 C-5.92226661 16.78672654 -5.92226661 16.78672654 -9.09716797 18.2746582 C-9.59195422 20.78457391 -9.99683408 23.30348506 -10.40185547 25.8293457 C-11.17487326 28.54793637 -11.86314642 29.58318475 -14.09716797 31.2746582 C-17.47216797 32.2746582 -17.47216797 32.2746582 -21.09716797 32.2746582 C-24.03466797 30.5871582 -24.03466797 30.5871582 -26.09716797 27.2746582 C-27.15747911 20.78257771 -26.74674398 14.67600404 -23.35888672 8.95825195 C-17.38303601 0.98428398 -9.37183355 -0.0282814 0 0 Z "
            transform="translate(263.09716796875,68.725341796875)" />
        <path
            d="M0 0 C1.09413208 -0.0004985 2.18826416 -0.00099701 3.31555176 -0.00151062 C5.61484607 0.00081623 7.91414361 0.01046189 10.21337891 0.02709961 C13.70889352 0.05071466 17.20364438 0.04764626 20.69921875 0.04101562 C22.94531699 0.04659302 25.19141206 0.05370328 27.4375 0.0625 C28.98636902 0.06113289 28.98636902 0.06113289 30.56652832 0.05973816 C41.14820627 0.16182523 50.03149218 1.21496625 58.21875 8.36328125 C60.65304758 11.05505262 62.68986144 13.92129947 64.71875 16.92578125 C65.28730713 17.71500977 65.85586426 18.50423828 66.44165039 19.31738281 C68.95691739 22.84354487 71.27157667 26.23691258 72.99609375 30.21875 C74.91460786 34.14154709 76.47064589 37.08575056 80.21875 39.36328125 C88.84633057 42.25223734 97.93196154 43.5007856 106.92651367 44.67822266 C112.00955336 45.73591708 115.15718452 47.11776578 118.55615234 51.10571289 C121.27121987 56.42541128 120.88658679 61.84249417 120.85009766 67.67602539 C120.84377243 69.79327281 120.89074854 71.90492642 120.94140625 74.02148438 C121.04793983 85.30645781 121.04793983 85.30645781 117.4375 89.73828125 C114.66005171 92.44816038 111.67370653 93.43596486 108.02734375 94.56640625 C105.00103716 95.89981131 103.89319457 98.60854985 102.21875 101.36328125 C98.10959044 105.75261079 94.28075022 108.43856935 88.21875 109.36328125 C81.79958257 109.43694383 75.33422364 108.49378792 70.21875 104.36328125 C69.45232178 102.61156616 69.45232178 102.61156616 68.67041016 100.82446289 C66.57452526 97.88272056 65.43382917 97.40506732 61.82899475 96.70471191 C57.25853948 96.3588471 52.68555697 96.41903254 48.10546875 96.4609375 C46.40865669 96.45155078 44.71185907 96.43909196 43.01509094 96.4236908 C38.55796958 96.39146864 34.10187724 96.40090543 29.64471436 96.41906738 C25.09310653 96.43022652 20.54176204 96.4019208 15.99023438 96.37695312 C7.06622258 96.33380782 -1.8571999 96.33467776 -10.78125 96.36328125 C-11.05839844 97.13414062 -11.33554688 97.905 -11.62109375 98.69921875 C-13.51942917 103.05835934 -16.68669038 105.32200878 -20.82421875 107.37890625 C-27.20073056 109.86179581 -33.29669774 110.00289028 -39.7578125 107.640625 C-44.37749218 105.29008314 -47.90079229 101.64703887 -50.78125 97.36328125 C-50.78125 96.70328125 -50.78125 96.04328125 -50.78125 95.36328125 C-51.65007813 95.193125 -52.51890625 95.02296875 -53.4140625 94.84765625 C-67.37361647 91.91209009 -67.37361647 91.91209009 -70.90258789 86.71044922 C-72.13506545 83.4181349 -72.12591325 80.21700194 -72.15234375 76.74609375 C-72.16137222 76.01131805 -72.1704007 75.27654236 -72.17970276 74.51950073 C-72.19418076 72.96795714 -72.20308591 71.41635282 -72.20678711 69.86474609 C-72.2186783 67.50252388 -72.26787527 65.14292086 -72.31835938 62.78125 C-72.32782544 61.26954392 -72.3350596 59.75782189 -72.33984375 58.24609375 C-72.35937607 57.54590118 -72.37890839 56.84570862 -72.39903259 56.1242981 C-72.36455239 52.33833164 -71.78651861 49.89984563 -69.46899414 46.97607422 C-65.50118056 43.11890818 -61.33147987 41.73331547 -55.96459961 40.95458984 C-51.43072788 40.19864023 -47.94736033 39.57450854 -44.6862793 36.18725586 C-42.89911117 33.41909754 -41.37580614 30.62451104 -39.90625 27.67578125 C-38.87163619 25.73200056 -37.83262918 23.79055133 -36.7890625 21.8515625 C-36.29470703 20.91932861 -35.80035156 19.98709473 -35.29101562 19.02661133 C-30.26420332 10.15896976 -24.60316767 3.83559354 -14.62231445 0.97866821 C-9.75421409 -0.07578358 -4.96275427 -0.04426363 0 0 Z M-19.859375 18.5703125 C-22.21453548 21.99295426 -24.40583353 25.48188161 -26.53125 29.05078125 C-26.94246094 29.72689453 -27.35367188 30.40300781 -27.77734375 31.09960938 C-30.01049736 34.4925778 -30.01049736 34.4925778 -30.78125 38.36328125 C-25.81502651 38.38793223 -20.84883834 38.40611774 -15.88256836 38.41821289 C-14.19180684 38.42325315 -12.50104971 38.4300853 -10.81030273 38.4387207 C-8.38524293 38.45079982 -5.96024056 38.45651248 -3.53515625 38.4609375 C-2.77473526 38.46609879 -2.01431427 38.47126007 -1.23085022 38.47657776 C0.5860757 38.47677363 2.40288127 38.42525402 4.21875 38.36328125 C5.48056095 37.32535353 5.48056095 37.32535353 5.33227539 35.04663086 C5.32703857 34.04639893 5.32180176 33.04616699 5.31640625 32.015625 C5.31318359 30.93603516 5.30996094 29.85644531 5.30664062 28.74414062 C5.29826172 27.60783203 5.28988281 26.47152344 5.28125 25.30078125 C5.27673828 24.16060547 5.27222656 23.02042969 5.26757812 21.84570312 C5.25574747 19.01817774 5.2392641 16.19075485 5.21875 13.36328125 C2.50980233 13.28183182 -0.19666263 13.22257511 -2.90625 13.17578125 C-4.04707031 13.13807617 -4.04707031 13.13807617 -5.2109375 13.09960938 C-11.29534852 13.02093165 -15.51786657 13.95949997 -19.859375 18.5703125 Z M17.21875 13.36328125 C17.18988016 17.34243284 17.17199594 21.32155778 17.15625 25.30078125 C17.14787109 26.43708984 17.13949219 27.57339844 17.13085938 28.74414062 C17.12763672 29.82373047 17.12441406 30.90332031 17.12109375 32.015625 C17.11585693 33.01585693 17.11062012 34.01608887 17.10522461 35.04663086 C16.95693905 37.32535353 16.95693905 37.32535353 18.21875 38.36328125 C19.60035115 38.45606455 20.98663038 38.48075168 22.37133789 38.47680664 C23.25217545 38.47673111 24.133013 38.47665558 25.0405426 38.47657776 C26.47647011 38.46883583 26.47647011 38.46883583 27.94140625 38.4609375 C28.91661728 38.45952255 29.89182831 38.4581076 30.89659119 38.45664978 C34.02484143 38.45103258 37.15302123 38.43847718 40.28125 38.42578125 C42.39648334 38.42076847 44.51171781 38.41620518 46.62695312 38.41210938 C51.82424296 38.40105756 57.02149145 38.38430271 62.21875 38.36328125 C60.38120345 33.47408546 57.84549646 29.52419442 54.90625 25.23828125 C54.1956543 24.16513672 54.1956543 24.16513672 53.47070312 23.0703125 C49.87988395 17.81425708 46.62706633 14.64894659 40.21875 13.36328125 C38.41293245 13.28337021 36.60443191 13.25558302 34.796875 13.265625 C33.77207031 13.26884766 32.74726562 13.27207031 31.69140625 13.27539062 C30.09619141 13.28795898 30.09619141 13.28795898 28.46875 13.30078125 C27.38980469 13.30529297 26.31085938 13.30980469 25.19921875 13.31445312 C22.53900617 13.32622398 19.87890635 13.34266726 17.21875 13.36328125 Z M-39.78125 82.36328125 C-40.52765732 85.18937309 -40.46842509 87.52868402 -39.78125 90.36328125 C-37.98761089 93.17331585 -36.76244065 94.87268593 -33.78125 96.36328125 C-29.46977575 96.85137267 -27.48178537 96.86583923 -23.90625 94.30078125 C-21.36391198 90.78637281 -20.78125 88.68827554 -20.78125 84.36328125 C-22.36963934 80.78940523 -23.49759358 79.55238553 -26.78125 77.36328125 C-32.81180828 76.56679242 -35.81515645 77.72004978 -39.78125 82.36328125 Z M76.21875 82.36328125 C74.72261064 85.91661224 75.20551207 87.322174 76.40625 91.05078125 C77.91074704 94.31045679 77.91074704 94.31045679 80.03125 95.80078125 C83.65242639 96.73194089 86.80444001 96.76736982 90.40625 95.73828125 C93.14282353 93.66225995 94.0490801 91.56448308 95.21875 88.36328125 C95.21875 84.40088279 94.47133338 82.71536718 92.15625 79.48828125 C88.84864869 77.09554839 87.14165813 76.6110567 83.15234375 76.875 C79.75908032 77.73188471 78.23461192 79.61437864 76.21875 82.36328125 Z "
            transform="translate(77.78125,114.63671875)" />
        <path
            d="M0 0 C4.25552491 1.80859809 6.66960534 4.76168597 9.54296875 8.24609375 C12.84881977 12.22552299 16.65724382 15.56825937 20.5625 18.9375 C24.109186 22.09932024 26.97593613 24.67586354 29 29 C28.90673561 34.39012138 27.63562437 37.05003948 23.97389221 40.73153687 C23.41660934 41.26098907 22.85932648 41.79044128 22.28515625 42.3359375 C21.71421738 42.90075836 21.1432785 43.46557922 20.55503845 44.04751587 C18.73782957 45.83790322 16.90055906 47.60605176 15.0625 49.375 C13.83006306 50.58590047 12.59892819 51.79812767 11.36914062 53.01171875 C1.33889502 62.85446793 1.33889502 62.85446793 -2.875 63.3125 C-6 63 -6 63 -8.3125 61.3125 C-10.22678628 58.6892188 -10.92078375 57.2478662 -11 54 C-9.45238559 50.18255112 -6.75365203 47.68550216 -3.87109375 44.83203125 C-3.14720459 44.11378174 -2.42331543 43.39553223 -1.67749023 42.65551758 C-1.12391846 42.10919678 -0.57034668 41.56287598 0 41 C-0.71552536 40.99191315 -1.43105072 40.98382629 -2.16825867 40.97549438 C-8.92156119 40.89745405 -15.67467315 40.81013509 -22.42772198 40.71247292 C-25.89928401 40.66259258 -29.37081683 40.6162622 -32.8425293 40.578125 C-36.83661816 40.53409219 -40.83034381 40.47447508 -44.82421875 40.4140625 C-46.68852791 40.39673569 -46.68852791 40.39673569 -48.59049988 40.37905884 C-50.33173882 40.3492543 -50.33173882 40.3492543 -52.1081543 40.31884766 C-53.12741501 40.30552399 -54.14667572 40.29220032 -55.19682312 40.2784729 C-59.08837088 39.89187918 -61.95715647 38.93855918 -64.875 36.3125 C-66.53583755 32.89855615 -65.91952707 30.61242777 -65 27 C-63.8223114 25.31217957 -63.8223114 25.31217957 -62 24 C-59.28547668 23.60127258 -59.28547668 23.60127258 -55.96801758 23.56762695 C-54.72695755 23.54783279 -53.48589752 23.52803864 -52.20722961 23.50764465 C-50.85299837 23.50087491 -49.49876547 23.49442804 -48.14453125 23.48828125 C-46.75874739 23.47143595 -45.37297882 23.45328591 -43.98722839 23.43388367 C-40.34258808 23.38636062 -36.69800977 23.35656656 -33.05316162 23.33044434 C-29.33284254 23.30065017 -25.61273716 23.254116 -21.89257812 23.20898438 C-14.59515806 23.12292522 -7.2977225 23.05559197 0 23 C-0.93764038 21.89614758 -1.8767289 20.79352517 -2.81640625 19.69140625 C-3.60059937 18.77016968 -3.60059937 18.77016968 -4.40063477 17.83032227 C-5.41686899 16.6673383 -6.46068452 15.52747494 -7.53881836 14.42163086 C-9.98510055 11.82589872 -10.99004042 10.4979791 -11.0625 6.875 C-8.92183731 1.08261861 -6.18512764 -0.88358966 0 0 Z "
            transform="translate(287,117)" />
    </g>
</svg>