<?xml version="1.0" encoding="UTF-8"?>
<svg version="1.1" xmlns="http://www.w3.org/2000/svg" width="411" height="300">
<path d="M0 0 C2.02001544 1.42612309 3.81913122 2.94695748 5.64453125 4.61328125 C6.30839844 5.16371094 6.97226563 5.71414062 7.65625 6.28125 C16.51955512 14.1991359 22.02809487 26.19843539 22.890625 37.97265625 C23.40767524 53.32748148 18.82692072 66.11407255 8.33203125 77.42578125 C-2.10572911 87.16302078 -14.87509972 90.99387985 -28.88671875 90.8203125 C-41.99086061 90.03819593 -53.67934674 84.42242972 -62.61328125 74.765625 C-70.19338087 65.40097278 -75.28922754 54.06600665 -74.8125 41.84765625 C-74.35546875 39.61328125 -74.35546875 39.61328125 -72.10546875 37.30078125 C-69.35546875 36.61328125 -69.35546875 36.61328125 -67.26953125 37.140625 C-64.30884858 39.41853799 -64.49174294 41.86490328 -63.98046875 45.48828125 C-62.22020057 55.96919035 -58.26373465 66.20586798 -49.35546875 72.61328125 C-38.29977209 79.00553688 -27.94023652 81.69434125 -15.20703125 78.9296875 C-5.25921595 75.57195152 3.22575129 69.22908246 8.08984375 59.81640625 C13.06136301 48.62338574 14.02690025 38.53968365 9.60546875 26.87109375 C5.11418829 17.33798878 -0.72454093 11.07705397 -10.35546875 6.61328125 C-22.36024886 2.49824064 -31.61313673 2.92206943 -43.35546875 7.61328125 C-49.2502616 10.67107649 -49.2502616 10.67107649 -53.35546875 15.61328125 C-51.43734375 15.55140625 -51.43734375 15.55140625 -49.48046875 15.48828125 C-47.30078125 15.41796875 -47.30078125 15.41796875 -45.35546875 15.61328125 C-43.35546875 17.61328125 -43.35546875 17.61328125 -43.10546875 20.11328125 C-43.35546875 22.61328125 -43.35546875 22.61328125 -45.35546875 24.61328125 C-47.5703125 24.87207031 -47.5703125 24.87207031 -50.29296875 24.87890625 C-51.27007812 24.88148437 -52.2471875 24.8840625 -53.25390625 24.88671875 C-54.27742188 24.87898438 -55.3009375 24.87125 -56.35546875 24.86328125 C-57.37898438 24.87101562 -58.4025 24.87875 -59.45703125 24.88671875 C-60.43414062 24.88414063 -61.41125 24.8815625 -62.41796875 24.87890625 C-63.31644531 24.87665039 -64.21492188 24.87439453 -65.140625 24.87207031 C-67.35546875 24.61328125 -67.35546875 24.61328125 -69.35546875 22.61328125 C-69.86046847 18.98895261 -69.77215927 15.33131378 -69.79296875 11.67578125 C-69.84227539 10.15307617 -69.84227539 10.15307617 -69.89257812 8.59960938 C-69.91262071 5.84648694 -69.86898402 3.31864412 -69.35546875 0.61328125 C-67.015625 -1.640625 -67.015625 -1.640625 -64.35546875 -2.38671875 C-63.36546875 -2.05671875 -62.37546875 -1.72671875 -61.35546875 -1.38671875 C-59.66796875 2.17578125 -59.66796875 2.17578125 -58.35546875 5.61328125 C-57.44796875 4.72640625 -56.54046875 3.83953125 -55.60546875 2.92578125 C-40.56514646 -10.05380159 -16.47908917 -9.70161966 0 0 Z " fill="#000000" transform="translate(128.35546875,46.38671875)"/>
<path d="M0 0 C2.5 0.25 2.5 0.25 4.5 2.25 C4.72705078 4.68017578 4.72705078 4.68017578 4.6953125 7.6953125 C4.68564453 9.30986328 4.68564453 9.30986328 4.67578125 10.95703125 C4.65902344 12.08496094 4.64226562 13.21289062 4.625 14.375 C4.61597656 15.51066406 4.60695313 16.64632812 4.59765625 17.81640625 C4.57403098 20.62781299 4.54109013 23.43880298 4.5 26.25 C5.47582031 26.22679688 6.45164062 26.20359375 7.45703125 26.1796875 C8.72933594 26.16164063 10.00164062 26.14359375 11.3125 26.125 C12.57707031 26.10179688 13.84164062 26.07859375 15.14453125 26.0546875 C18.5 26.25 18.5 26.25 21.5 28.25 C21.875 31.25 21.875 31.25 21.5 34.25 C18.34327318 36.35448454 17.5481891 36.50548261 13.9375 36.515625 C12.61878906 36.51949219 12.61878906 36.51949219 11.2734375 36.5234375 C10.35820313 36.51570313 9.44296875 36.50796875 8.5 36.5 C7.12714844 36.51160156 7.12714844 36.51160156 5.7265625 36.5234375 C4.84742187 36.52085938 3.96828125 36.51828125 3.0625 36.515625 C2.25941406 36.51336914 1.45632812 36.51111328 0.62890625 36.50878906 C-1.5 36.25 -1.5 36.25 -4.5 34.25 C-4.87231445 31.1171875 -4.87231445 31.1171875 -4.86328125 27.125 C-4.86377975 26.4222998 -4.86427826 25.71959961 -4.86479187 24.99560547 C-4.86245061 23.50941135 -4.85271888 22.02321333 -4.83618164 20.53710938 C-4.81259065 18.25875495 -4.81561934 15.98157047 -4.82226562 13.703125 C-4.77114076 0.47711408 -4.77114076 0.47711408 0 0 Z " fill="#000000" transform="translate(102.5,61.75)"/>
<path d="M0 0 C2.00199489 -0.00202425 4.00398906 -0.00493861 6.00598145 -0.00869751 C10.18846706 -0.0131043 14.3707596 -0.00674297 18.55322266 0.00732422 C23.8925641 0.02441499 29.23145301 0.01456497 34.57077789 -0.00339317 C38.7008195 -0.01427556 42.83075524 -0.01076428 46.96080017 -0.0030098 C48.92862503 -0.00102009 50.89645975 -0.00342345 52.86427307 -0.01044846 C77.45880116 -0.07899856 77.45880116 -0.07899856 86.61938477 7.52880859 C95.69847769 16.707382 98.92707328 29.34679328 102.84375 41.2734375 C103.4765799 43.15668218 104.11068556 45.03949867 104.74609375 46.921875 C109.30140546 60.51087504 109.30140546 60.51087504 110.03369141 64.39477539 C110.17726074 65.05598389 110.32083008 65.71719238 110.46875 66.3984375 C112.33415699 67.58642335 112.33415699 67.58642335 114.46875 68.3984375 C120.84212719 73.86360844 123.94132703 81.54524129 124.83517456 89.77017212 C124.97799448 93.53378141 124.99732787 97.27680597 124.96484375 101.04296875 C124.96499915 102.42534969 124.96649497 103.80773106 124.96925354 105.19010925 C124.97062729 108.06533432 124.95824611 110.94005426 124.93530273 113.81518555 C124.90678568 117.4880601 124.90970509 121.16010586 124.92239285 124.8330431 C124.92936357 127.67877719 124.92154722 130.52432152 124.90913582 133.37003136 C124.90247466 135.37849733 124.90674757 137.38699004 124.91123962 139.39546204 C124.89855545 140.62081161 124.88587128 141.84616119 124.87280273 143.10864258 C124.86739975 144.18132889 124.86199677 145.2540152 124.85643005 146.35920715 C124.22028963 151.34625059 122.23787912 154.57437059 118.84375 158.2109375 C115.05023056 161.10302658 111.1755691 161.79664555 106.46875 161.3984375 C102.15172175 160.16500086 99.22945189 158.13963421 96.03125 155.0234375 C93.57893874 149.33407538 93.68167242 143.5259256 93.46875 137.3984375 C81.49397052 137.33786534 69.54201555 137.47229591 57.57250977 137.82623291 C36.63127435 138.43623689 15.78713642 138.47154725 -5.15625 137.9609375 C-5.97424072 137.94138 -6.79223145 137.92182251 -7.63500977 137.90167236 C-19.61398081 137.60884906 -31.56840328 137.08339746 -43.53125 136.3984375 C-43.50015137 137.07382568 -43.46905273 137.74921387 -43.43701172 138.44506836 C-43.19890749 144.54913835 -43.71995915 149.8995526 -46.53125 155.3984375 C-49.75782602 158.79942303 -52.95998356 160.41247807 -57.53125 161.3984375 C-63.58927877 161.3984375 -66.57644703 160.14919361 -71.0859375 156.1640625 C-74.32677258 152.20498829 -74.78637817 148.21335796 -74.82177734 143.22216797 C-74.83453705 141.99674286 -74.84729675 140.77131775 -74.86044312 139.50875854 C-74.86266876 138.19102448 -74.86489441 136.87329041 -74.8671875 135.515625 C-74.87362345 134.13664617 -74.88035239 132.75766867 -74.88735962 131.37869263 C-74.89931827 128.48875775 -74.90304225 125.59894223 -74.90185547 122.70898438 C-74.90165314 119.03412185 -74.92887121 115.36004015 -74.96339989 111.68536186 C-74.98582182 108.83516035 -74.98968828 105.98514161 -74.98863602 103.13486099 C-74.99209715 101.13044738 -75.01367417 99.12609084 -75.03573608 97.12179565 C-74.98009936 85.8707028 -72.91808967 77.26603536 -65.21484375 68.859375 C-63.53125 67.3984375 -63.53125 67.3984375 -60.53125 66.3984375 C-59.71639247 64.46760293 -59.71639247 64.46760293 -59.23828125 62 C-57.31306179 54.2565897 -54.7053957 46.78322639 -52.08032227 39.25488281 C-51.21942783 36.77538974 -50.37634831 34.29026285 -49.53320312 31.8046875 C-45.5256558 20.18057165 -41.63428982 9.87516683 -30.53125 3.3984375 C-21.11058272 -1.10262611 -10.16305347 -0.03628167 0 0 Z M-29.26489258 22.29541016 C-31.9692312 26.78647877 -33.46280581 31.85567354 -35.21875 36.7734375 C-35.63447266 37.8975 -36.05019531 39.0215625 -36.47851562 40.1796875 C-36.87103516 41.27023438 -37.26355469 42.36078125 -37.66796875 43.484375 C-38.02592529 44.4748584 -38.38388184 45.4653418 -38.75268555 46.48583984 C-39.58666041 49.60572699 -39.75232334 52.18316284 -39.53125 55.3984375 C-38.49918669 57.39935635 -38.49918669 57.39935635 -36.53125 58.3984375 C-33.99869617 58.61747017 -33.99869617 58.61747017 -31.09375 58.2109375 C-29.96372559 58.09129639 -28.83370117 57.97165527 -27.66943359 57.84838867 C-24.91166368 57.55424677 -22.15905152 57.23179856 -19.40649414 56.89257812 C-5.96950098 55.31092378 7.38183385 55.0585687 20.90234375 55.08276367 C24.56801375 55.08591537 28.23286689 55.06239425 31.8984375 55.03710938 C46.14458654 55.00093467 59.99137034 55.86350569 74.11279297 57.75317383 C81.4498224 58.95555291 81.4498224 58.95555291 88.46875 57.3984375 C90.87827796 52.57938157 88.17091346 46.13851535 86.61328125 41.32421875 C85.84491438 39.11664669 85.06734445 36.91225928 84.28125 34.7109375 C83.90677734 33.59654297 83.53230469 32.48214844 83.14648438 31.33398438 C80.58552043 24.12614487 78.47383011 19.90097756 71.46875 16.3984375 C68.57155192 16.28414926 65.69785253 16.23057102 62.79980469 16.22143555 C61.90206833 16.21486435 61.00433197 16.20829315 60.07939148 16.20152283 C57.09980186 16.18176552 54.12026271 16.17012133 51.140625 16.16015625 C50.12391975 16.15608072 49.10721451 16.1520052 48.05970001 16.14780617 C42.67766014 16.12693426 37.29564584 16.11263784 31.91357422 16.10327148 C26.35386772 16.09220951 20.79456174 16.05781508 15.2349968 16.01809978 C10.96101131 15.99195374 6.68712148 15.98358138 2.41306305 15.97999001 C0.36375476 15.97511823 -1.6855491 15.96348748 -3.73477936 15.94495201 C-6.60508426 15.92060544 -9.47435002 15.92151758 -12.34472656 15.9284668 C-13.1896315 15.91565674 -14.03453644 15.90284668 -14.90504456 15.88964844 C-21.12435164 15.94446143 -24.95617837 17.58076301 -29.26489258 22.29541016 Z M-48.53125 87.3984375 C-50.93902323 90.28776538 -51.49240399 92.09321886 -51.96875 95.8359375 C-51.44731726 100.08188977 -50.26207959 102.13661327 -47.53125 105.3984375 C-44.11667996 107.98880098 -40.69842829 107.82952491 -36.53125 107.3984375 C-32.52533833 105.28210681 -30.17601727 103.62232339 -28.53125 99.3984375 C-28.26053543 96.24574072 -28.61396157 93.42548933 -29.53125 90.3984375 C-32.54201576 86.95756234 -34.64828763 85.65071246 -39.03125 84.3984375 C-43.14739912 84.3984375 -45.14066556 85.08667538 -48.53125 87.3984375 Z M-4.53125 87.3984375 C-5.95166821 90.23927391 -5.84577272 92.25321028 -5.53125 95.3984375 C-3.29918569 98.24624369 -1.98132001 99.24841416 1.46875 100.3984375 C2.99155833 100.49972768 4.5183141 100.54675642 6.04443359 100.55957031 C6.96904388 100.56917786 7.89365417 100.5787854 8.84628296 100.58868408 C10.34163071 100.5950589 10.34163071 100.5950589 11.8671875 100.6015625 C13.40785385 100.61011261 13.40785385 100.61011261 14.97964478 100.61883545 C17.15341156 100.62828383 19.32719266 100.63481879 21.50097656 100.63867188 C24.8238221 100.64837928 28.14604959 100.67940535 31.46875 100.7109375 C33.58072549 100.7174675 35.69270541 100.72271799 37.8046875 100.7265625 C39.29396255 100.7450827 39.29396255 100.7450827 40.81332397 100.76397705 C47.19217847 100.74341279 50.83013173 100.03705577 55.46875 95.3984375 C55.83474043 92.03132559 55.84299895 90.05782851 54.15625 87.0859375 C51.32410248 84.25378998 48.51381104 84.26791021 44.70947266 84.23730469 C43.26249496 84.22289337 43.26249496 84.22289337 41.7862854 84.20819092 C40.74563934 84.20394104 39.70499329 84.19969116 38.6328125 84.1953125 C37.02555801 84.18676239 37.02555801 84.18676239 35.38583374 84.17803955 C33.11790962 84.16859012 30.84997178 84.1620558 28.58203125 84.15820312 C25.11433962 84.14849514 21.64724006 84.11746966 18.1796875 84.0859375 C15.97656602 84.0794076 13.7734403 84.07415708 11.5703125 84.0703125 C10.5337149 84.0579657 9.49711731 84.0456189 8.42910767 84.03289795 C1.4332003 83.99056402 1.4332003 83.99056402 -4.53125 87.3984375 Z M80.890625 88.73828125 C78.27741963 91.78941389 78.2428237 95.50453122 78.46875 99.3984375 C80.06070951 102.64131799 81.41479809 104.59888778 84.28125 106.7734375 C89.01636825 108.12632843 92.38568656 107.9501868 96.78125 105.7109375 C99.68845726 103.20938707 100.70644819 102.12524637 101.46875 98.3984375 C101.613737 93.94008734 100.99451346 91.14725213 98.40625 87.4609375 C92.02877182 82.98313367 86.73613022 83.77538944 80.890625 88.73828125 Z " fill="#000000" transform="translate(206.53125,83.6015625)"/>
</svg>
