<?xml version="1.0" encoding="UTF-8"?>
<svg version="1.1" xmlns="http://www.w3.org/2000/svg"
    viewBox="0 0 350 350" >
    <path
        d="M0 0 C1.25941406 0.2784375 2.51882812 0.556875 3.81640625 0.84375 C13.64336544 3.22107485 22.79335469 6.89414448 32 11 C33.04929687 11.46148437 34.09859375 11.92296875 35.1796875 12.3984375 C58.88327894 23.51150341 79.21473005 42.60533319 94.77880859 63.37304688 C95.87736694 64.83662001 96.99421847 66.28641946 98.11328125 67.734375 C105.95881743 78.11123648 112.48410973 89.50794225 118.1875 101.1875 C119.04408203 102.94126953 119.04408203 102.94126953 119.91796875 104.73046875 C121.7818654 110.36253191 120.13589107 114.21565042 117.57641602 119.40332031 C117.24182373 120.05397461 116.90723145 120.70462891 116.5625 121.375 C116.21050537 122.0669043 115.85851074 122.75880859 115.49584961 123.47167969 C101.44029548 150.57247803 81.61786358 174.9024729 57 193 C56.41089844 193.43344727 55.82179688 193.86689453 55.21484375 194.31347656 C21.42063707 218.80499228 -20.34709611 226.71674467 -61.3125 220.3125 C-70.56408191 218.71050688 -79.28730079 216.55870813 -88 213 C-88.7120459 212.71108887 -89.4240918 212.42217773 -90.15771484 212.12451172 C-109.32972672 204.25226222 -125.95365517 193.32070551 -141 179 C-141.56090332 178.47164551 -142.12180664 177.94329102 -142.69970703 177.39892578 C-157.57377122 163.30833186 -168.76742617 147.69101842 -179 130 C-179.40831055 129.30390625 -179.81662109 128.6078125 -180.23730469 127.890625 C-189.38402562 112.18912863 -189.38402562 112.18912863 -188 106 C-185.76373523 100.40933807 -182.97343597 95.22761187 -180 90 C-179.64583008 89.36223633 -179.29166016 88.72447266 -178.92675781 88.06738281 C-170.63233782 73.19329195 -160.38350094 59.79626228 -148.53417969 47.58544922 C-146.96878464 45.96774147 -145.42601095 44.33027339 -143.8828125 42.69140625 C-136.28781202 34.73902146 -128.1418469 28.1016513 -119 22 C-118.39961914 21.59797363 -117.79923828 21.19594727 -117.18066406 20.78173828 C-102.21938904 10.92810115 -85.40936192 4.12642662 -68 0 C-67.31131836 -0.16371094 -66.62263672 -0.32742187 -65.91308594 -0.49609375 C-44.90908289 -5.20472621 -20.90647785 -4.92416534 0 0 Z M-64 28 C-64.65967773 28.16628906 -65.31935547 28.33257812 -65.99902344 28.50390625 C-101.18283002 37.66900782 -131.11992982 63.5097748 -149.84082031 94.16064453 C-150.99472287 95.9916264 -152.23258935 97.73672596 -153.4921875 99.49609375 C-155.76453672 102.89762351 -157.24840131 105.92179884 -158 110 C-156.18076149 116.16766227 -152.7466584 120.84509033 -149 126 C-147.99818697 127.48139739 -147.00084967 128.96583055 -146.0078125 130.453125 C-125.34245751 160.82027904 -96.11989918 184.48723588 -59.59423828 191.84716797 C-41.30051026 195.30621596 -22.11692574 195.57425362 -4 191 C-3.34128906 190.83371094 -2.68257812 190.66742188 -2.00390625 190.49609375 C20.9045609 184.46754976 40.16273227 172.47646914 57 156 C57.86109375 155.18917969 58.7221875 154.37835938 59.609375 153.54296875 C71.88230238 141.74647489 83.02942692 126.63219637 90 111 C88.85493774 94.21506294 68.54245022 74.54245022 57.35546875 63.35546875 C56.04926888 62.04926888 54.75397228 60.73078642 53.5078125 59.3671875 C36.61565754 41.13892989 11.14099969 30.11729933 -13 26 C-14.02222656 25.81566406 -15.04445312 25.63132812 -16.09765625 25.44140625 C-31.93929155 23.64950956 -48.51964892 24.09050197 -64 28 Z "
        transform="translate(225,46)" />
    <path
        d="M0 0 C12.99920804 11.26860243 20.7900955 24.3990181 22.14453125 41.67578125 C23.02694412 57.4997661 17.80782549 71.95778056 7.39453125 83.92578125 C-3.90109064 95.52760976 -18.4375567 101.73434633 -34.60546875 102.23828125 C-50.17053423 101.93856882 -64.18583758 95.27428369 -75.41796875 84.73828125 C-86.74020651 72.96236497 -91.1382137 57.30051551 -90.9375 41.31640625 C-90.14793811 28.38546817 -84.54200172 15.4261637 -75.73046875 5.92578125 C-75.07046875 5.92578125 -74.41046875 5.92578125 -73.73046875 5.92578125 C-73.40046875 4.93578125 -73.07046875 3.94578125 -72.73046875 2.92578125 C-52.32788427 -14.79004313 -21.69408643 -16.48005708 0 0 Z M-55.62890625 26.5390625 C-61.26201926 32.93651984 -62.97441304 39.42258046 -62.73046875 47.92578125 C-61.75151134 57.02881381 -57.48199956 62.91445149 -50.73046875 68.92578125 C-43.3429888 73.92653691 -35.37926824 73.68321176 -26.73046875 72.92578125 C-17.8438111 70.41688318 -12.58425099 64.43659834 -7.79296875 56.86328125 C-5.06661918 49.38725349 -5.44263331 39.69785458 -8.66796875 32.48828125 C-12.92649906 25.33108745 -18.41926017 20.26157619 -26.48046875 17.92578125 C-37.93470797 15.24642705 -47.31871569 18.34758895 -55.62890625 26.5390625 Z "
        transform="translate(225.73046875,110.07421875)" />
</svg>