<?xml version="1.0" encoding="UTF-8"?>
<svg version="1.1" xmlns="http://www.w3.org/2000/svg" width="568" height="580">
<path d="M0 0 C0.87547794 -0.00453111 1.75095588 -0.00906223 2.65296346 -0.01373065 C5.57446747 -0.02634902 8.49578445 -0.02475592 11.41731262 -0.02310181 C13.51707701 -0.02908873 15.6168392 -0.03589465 17.71659851 -0.04345703 C23.41310084 -0.06110937 29.10954306 -0.06581215 34.80607009 -0.0670886 C38.36830185 -0.0685114 41.93051838 -0.07278349 45.49274635 -0.07808304 C57.92968845 -0.09658208 70.3665877 -0.10475397 82.80354309 -0.10317993 C94.38069515 -0.10197917 105.95766058 -0.1230692 117.53476542 -0.15466726 C127.486613 -0.18085751 137.43839974 -0.19154604 147.3902815 -0.19026911 C153.32852415 -0.18976021 159.26660098 -0.19540357 165.20480919 -0.21662521 C170.79370582 -0.23605332 176.38227926 -0.23610065 181.97118759 -0.22159195 C184.0157182 -0.21950831 186.06026928 -0.22417803 188.10476494 -0.23631287 C202.86277943 -0.31819268 215.09184876 0.73978755 227.07673645 10.26742554 C227.69161926 10.74566772 228.30650208 11.22390991 228.9400177 11.71664429 C235.36919627 17.37603207 240.34254959 26.85672075 242.07673645 35.26742554 C242.16916924 38.19466173 242.20718247 41.09754212 242.19699097 44.02456665 C242.1982726 45.36501482 242.1982726 45.36501482 242.19958013 46.73254275 C242.20122982 49.73279739 242.19572189 52.73299635 242.19026184 55.73324585 C242.18997983 57.88159178 242.19013797 60.02993781 242.19070435 62.17828369 C242.19099179 68.01671201 242.18510359 73.85511988 242.17813039 79.69354343 C242.17188806 85.79277506 242.17129235 91.89200713 242.17010498 97.99124146 C242.16699427 109.54380131 242.15878436 121.09635173 242.14875549 132.64890742 C242.13758631 145.79989745 242.13208187 158.95088792 242.12706006 172.1018815 C242.11660155 199.15706809 242.09900711 226.21224628 242.07673645 253.26742554 C242.85349731 253.1057489 243.63025818 252.94407227 244.43055725 252.77749634 C278.36897634 246.23561263 341.23130945 253.81082098 370.2993927 272.71273804 C379.56088981 279.81500364 384.01583707 291.69494605 388.07673645 302.26742554 C388.86209778 302.28200806 389.64745911 302.29659058 390.45661926 302.31161499 C394.08043937 302.38695595 397.70342305 302.48332815 401.32673645 302.57992554 C402.56165833 302.60248413 403.7965802 302.62504272 405.06892395 302.64828491 C416.71932107 302.98553325 427.32498996 304.00624779 436.07673645 312.26742554 C436.90818176 313.00412476 436.90818176 313.00412476 437.75642395 313.75570679 C443.41329958 319.42665424 445.81174025 327.35530083 446.2368927 335.23617554 C445.65904888 345.27092667 441.58346213 353.57538326 434.07673645 360.26742554 C431.17655398 362.17009302 428.21239389 363.788476 425.07673645 365.26742554 C425.63253801 368.38846508 426.31285217 370.81836222 427.57673645 373.76742554 C429.56692271 378.41119348 430.19962597 382.41984616 430.22390747 387.44645691 C430.23464043 388.97921516 430.23464043 388.97921516 430.24559021 390.54293823 C430.24827911 391.65318359 430.25096802 392.76342896 430.2537384 393.90731812 C430.2603096 395.08513351 430.2668808 396.26294891 430.27365112 397.47645569 C430.29335164 401.37161619 430.30504418 405.26676318 430.3150177 409.16195679 C430.31906809 410.50680753 430.3231851 411.85165807 430.32736778 413.19650841 C430.34639937 419.51510228 430.36063583 425.83368461 430.36897975 432.15230161 C430.37875129 439.43032384 430.40507681 446.70804188 430.44548064 453.98595697 C430.47569288 459.62265676 430.49045335 465.25926957 430.49376076 470.89604872 C430.49610499 474.2576731 430.50498307 477.61897174 430.53022194 480.9805088 C430.55456852 484.73370227 430.5536561 488.48610111 430.54670715 492.23934937 C430.56592224 493.89560837 430.56592224 493.89560837 430.58552551 495.58532715 C430.53385987 503.25128701 429.24661239 508.43235079 424.2525177 514.47445679 C423.63763489 515.00426147 423.02275208 515.53406616 422.38923645 516.07992554 C421.48624817 516.89396851 421.48624817 516.89396851 420.5650177 517.72445679 C413.54049812 522.08032058 406.33056887 522.71744163 398.23298645 522.66586304 C397.22385193 522.66873322 396.21471741 522.67160339 395.17500305 522.67456055 C393.05386286 522.67659056 390.93270349 522.6711356 388.81159973 522.65853882 C385.58574616 522.64247042 382.36114533 522.65842437 379.1353302 522.67758179 C377.06371288 522.67559917 374.99209634 522.67175511 372.92048645 522.66586304 C371.96710388 522.67193573 371.01372131 522.67800842 370.03144836 522.68426514 C362.32791125 522.60432149 354.71762146 521.42015871 348.76423645 516.14242554 C347.84191223 515.36512085 347.84191223 515.36512085 346.9009552 514.57211304 C337.93627975 503.2462918 341.07673645 494.41308161 341.07673645 479.26742554 C283.32673645 479.26742554 225.57673645 479.26742554 166.07673645 479.26742554 C166.07673645 487.18742554 166.07673645 495.10742554 166.07673645 503.26742554 C161.53148505 513.49424118 161.53148505 513.49424118 158.38923645 516.14242554 C157.48624817 516.94293335 157.48624817 516.94293335 156.5650177 517.75961304 C149.49680506 522.04270578 142.34217061 522.71751553 134.23298645 522.66586304 C133.22385193 522.66873322 132.21471741 522.67160339 131.17500305 522.67456055 C129.05386286 522.67659056 126.93270349 522.6711356 124.81159973 522.65853882 C121.58574616 522.64247042 118.36114533 522.65842437 115.1353302 522.67758179 C113.06371288 522.67559917 110.99209634 522.67175511 108.92048645 522.66586304 C107.96710388 522.67193573 107.01372131 522.67800842 106.03144836 522.68426514 C98.32791125 522.60432149 90.71762146 521.42015871 84.76423645 516.14242554 C83.84191223 515.36512085 83.84191223 515.36512085 82.9009552 514.57211304 C77.26907345 507.4568877 76.49229955 500.2659702 76.55915833 491.43637085 C76.55214905 490.28550995 76.54513977 489.13464905 76.53791809 487.94891357 C76.52038945 484.16420988 76.53194667 480.38026117 76.54548645 476.59555054 C76.54278934 473.94911788 76.53891015 471.30270758 76.53388977 468.65628052 C76.52663113 463.11512172 76.53614956 457.57417678 76.55525208 452.03305054 C76.57697459 445.65900048 76.56999637 439.28546327 76.54794645 432.91142583 C76.52968954 427.41040565 76.52728519 421.90953832 76.53770113 416.40849757 C76.54388561 413.13567963 76.54330568 409.86315031 76.53155518 406.59033966 C76.52130495 402.93190264 76.53701206 399.27442466 76.55915833 395.61605835 C76.5510614 394.55484772 76.54296448 393.49363708 76.53462219 392.40026855 C76.64254436 382.69276555 79.42220081 374.19115624 83.07673645 365.26742554 C82.41673645 365.22617554 81.75673645 365.18492554 81.07673645 365.14242554 C73.23757643 362.85600386 66.73277021 356.01034297 62.81892395 349.02133179 C59.08169442 340.85430921 58.60952851 332.48851619 61.70173645 324.01742554 C65.77967608 315.18188966 70.99060973 309.17035822 80.07673645 305.26742554 C87.91703415 302.64513147 95.96826096 303.03772107 104.13923645 303.14242554 C105.4953496 303.15247923 106.85147 303.16160084 108.20759583 303.16976929 C111.49749745 303.19318496 114.78702083 303.22598131 118.07673645 303.26742554 C118.27009583 302.66414429 118.4634552 302.06086304 118.66267395 301.43930054 C118.92306458 300.64008179 119.1834552 299.84086304 119.45173645 299.01742554 C119.70697083 298.22851929 119.9622052 297.43961304 120.22517395 296.62680054 C121.02924825 294.39899835 122.0004695 292.37333415 123.07673645 290.26742554 C122.4229665 290.27019092 121.76919655 290.2729563 121.09561539 290.27580547 C105.14374493 290.34223217 89.19192299 290.39178695 73.23994827 290.42286205 C65.52550012 290.43829149 57.81114463 290.45930536 50.09675598 290.4937439 C43.36818651 290.52376707 36.6396842 290.54302901 29.9110496 290.54969102 C26.35253882 290.55358155 22.79422006 290.56264155 19.23577118 290.58461571 C15.25070902 290.60902173 11.26597479 290.60938731 7.28083801 290.60800171 C5.53618507 290.62418045 5.53618507 290.62418045 3.75628662 290.64068604 C-10.84640433 290.5860348 -23.31833052 286.63133736 -33.92326355 276.26742554 C-40.09488379 268.34356136 -45.03793679 259.34792688 -45.05697632 249.14376831 C-45.0612413 248.10910934 -45.06550629 247.07445038 -45.06990051 246.00843811 C-45.06944733 244.87896255 -45.06899414 243.749487 -45.06852722 242.58578491 C-45.07188583 241.3919368 -45.07524445 240.19808868 -45.07870483 238.96806335 C-45.08657527 235.69746487 -45.08988225 232.4269045 -45.09052062 229.15629768 C-45.0912318 227.11262363 -45.09336736 225.06895622 -45.09601784 223.02528381 C-45.10526494 215.89489317 -45.10935337 208.7645212 -45.10856628 201.63412476 C-45.10796509 194.98805141 -45.11852665 188.34205912 -45.13430995 181.6960063 C-45.14738232 175.98805087 -45.15275034 170.28012195 -45.15211087 164.57215166 C-45.15185587 161.16379984 -45.15470851 157.75552013 -45.16528893 154.34718323 C-45.17505317 150.54774176 -45.17222499 146.7485108 -45.16618347 142.94906616 C-45.17180298 141.81959061 -45.17742249 140.69011505 -45.18321228 139.52641296 C-45.17901779 138.491754 -45.1748233 137.45709503 -45.17050171 136.39108276 C-45.17104648 135.49292091 -45.17159124 134.59475906 -45.17215252 133.66938019 C-44.78254762 129.90941727 -43.6589069 127.89488604 -40.79826355 125.45492554 C-36.91565667 123.85124009 -33.91270941 124.01550738 -29.92326355 125.26742554 C-27.54013652 127.161706 -26.27320765 128.56753733 -24.92326355 131.26742554 C-24.82536225 132.81824748 -24.78986917 134.37320662 -24.78523254 135.92710876 C-24.77977921 136.90972183 -24.77432587 137.8923349 -24.76870728 138.90472412 C-24.76766495 139.98678131 -24.76662262 141.0688385 -24.76554871 142.1836853 C-24.75792763 143.88882042 -24.75792763 143.88882042 -24.75015259 145.62840271 C-24.73942952 148.10456629 -24.73081699 150.58073968 -24.72403336 153.05691719 C-24.71226621 156.97877726 -24.69281704 160.90052613 -24.6709137 164.82234192 C-24.60901762 175.9759524 -24.55507548 187.12955913 -24.52189636 198.28329468 C-24.50152874 205.10028107 -24.46559237 211.91705985 -24.42113876 218.73393059 C-24.40699373 221.33055194 -24.39825972 223.92720872 -24.39508438 226.52386665 C-24.39016285 230.16459104 -24.36696969 233.80478737 -24.33976746 237.44540405 C-24.34277359 238.51329163 -24.34577972 239.5811792 -24.34887695 240.681427 C-24.26186726 248.54354116 -23.1098285 254.95634147 -18.73576355 261.57992554 C-12.09948483 267.92125854 -4.91975001 269.37226944 4.10165405 269.42132568 C5.87806023 269.43422638 5.87806023 269.43422638 7.69035339 269.4473877 C8.97616302 269.45164764 10.26197266 269.45590759 11.58674622 269.46029663 C12.96553753 269.46820743 14.34432683 269.47647697 15.72311401 269.4850769 C20.23810377 269.51118769 24.75310228 269.5265953 29.2681427 269.54086304 C30.82864321 269.54622754 32.38914367 269.55160506 33.94964409 269.55699539 C40.44624436 269.57860959 46.94284226 269.59734204 53.43946934 269.60861778 C62.71690192 269.62483173 71.99391413 269.65796381 81.27118832 269.71501863 C87.81243486 269.75386073 94.35356964 269.77326735 100.8949284 269.77853835 C104.79274948 269.78217284 108.69012112 269.79398881 112.58781624 269.82664108 C116.26111365 269.85697407 119.93369556 269.8629454 123.6070919 269.85125732 C125.57626988 269.85093547 127.5454054 269.87523266 129.51441956 269.90063477 C137.20445437 269.84750445 143.19114766 268.54639408 150.25646877 265.48142433 C154.32138699 263.73165928 158.46062869 262.68769427 162.76423645 261.70492554 C163.63942932 261.50149536 164.51462219 261.29806519 165.41633606 261.08847046 C183.39975849 257.05984432 201.73261234 254.84096214 220.07673645 253.26742554 C221.34226839 249.47082971 221.22481218 245.91261225 221.22390747 241.95684814 C221.2294225 240.67008405 221.2294225 240.67008405 221.23504895 239.35732472 C221.24609587 236.47172081 221.24993136 233.58615291 221.2537384 230.70053101 C221.26000235 228.63589869 221.26664909 226.57126751 221.27365112 224.50663757 C221.2910685 218.88862542 221.30161518 213.27062179 221.30985665 207.65258932 C221.31500588 204.1426704 221.32108169 200.63275412 221.32736778 197.12283707 C221.34642302 186.14136976 221.36065274 175.15990919 221.36897975 164.17842853 C221.3787505 151.50207612 221.40506454 138.8258984 221.44548064 126.14960754 C221.47564501 116.35245836 221.49044899 106.55535924 221.49376076 96.75816453 C221.49611111 90.90657755 221.50506957 85.05517714 221.53022194 79.20363998 C221.55351273 73.69607544 221.55773168 68.18882014 221.54746056 62.6812191 C221.54696532 60.6628396 221.55328224 58.64444482 221.5670166 56.62611198 C221.5847583 53.86367446 221.57761814 51.10234402 221.56448364 48.33990479 C221.57545289 47.54717663 221.58642213 46.75444847 221.59772378 45.93769825 C221.52003653 39.13791132 219.50253851 33.2088333 215.14704895 27.92758179 C214.50509583 27.40035522 213.8631427 26.87312866 213.20173645 26.32992554 C212.56493958 25.7846521 211.9281427 25.23937866 211.27204895 24.67758179 C205.96668641 21.26968877 200.62861187 20.97588703 194.48132324 21 C193.62908434 20.99546889 192.77684544 20.99093777 191.89878112 20.98626935 C189.05008507 20.97363402 186.20158042 20.97524517 183.3528595 20.97689819 C181.30748754 20.97091241 179.26211783 20.96410674 177.2167511 20.95654297 C171.66501417 20.9388809 166.11333891 20.93418749 160.5615766 20.9329114 C157.09167131 20.93148936 153.62178167 20.92721875 150.15188026 20.92191696 C138.04259369 20.90341598 125.93335114 20.89524644 113.8240509 20.89682007 C102.54280545 20.89802148 91.26175132 20.87691935 79.98055428 20.84533274 C70.28949322 20.81916695 60.59849463 20.8084529 50.90739852 20.80973089 C45.12181834 20.81024043 39.33640821 20.80456129 33.55086327 20.78337479 C28.10808439 20.76398747 22.66563768 20.76387151 17.22284698 20.77840805 C15.22865882 20.78049662 13.23444984 20.77579243 11.24029732 20.76368713 C8.51084394 20.74819534 5.78253033 20.75756859 3.05310059 20.77294922 C2.27020068 20.76266209 1.48730078 20.75237497 0.68067664 20.74177611 C-5.80042325 20.82208678 -11.84863754 22.54430803 -16.78175431 26.91344321 C-21.73662015 32.15410846 -23.52974663 38.0779356 -24.86076355 45.01742554 C-25.64651479 48.84713746 -26.70741011 50.85553546 -29.92326355 53.26742554 C-33.02375283 54.81767018 -35.50220573 54.55734569 -38.92326355 54.26742554 C-41.67655376 52.47180149 -43.44953816 51.21487632 -44.92326355 48.26742554 C-46.11438151 36.27813979 -43.06830603 26.10249774 -35.8334198 16.51742554 C-26.44714605 5.46120124 -14.39683491 -0.05518703 0 0 Z M146.07673645 290.26742554 C144.51284355 292.67729435 143.33112166 294.7581501 142.17048645 297.33773804 C141.84278259 298.02860504 141.51507874 298.71947205 141.17744446 299.43127441 C140.11583145 301.6983483 139.09091222 303.9787578 138.07673645 306.26742554 C137.72643372 307.05758057 137.37613098 307.8477356 137.01521301 308.66183472 C134.83571226 313.6191062 132.72079448 318.60165225 130.63728333 323.59994507 C129.55634981 326.19129905 128.46552322 328.77833699 127.37361145 331.36508179 C126.68033062 333.01718542 125.98760029 334.66952018 125.29548645 336.32211304 C124.8081604 337.47814529 124.8081604 337.47814529 124.31098938 338.65753174 C122.66090417 342.33719623 122.66090417 342.33719623 122.07673645 346.26742554 C208.53673645 346.26742554 294.99673645 346.26742554 384.07673645 346.26742554 C379.796829 335.12643381 379.796829 335.12643381 375.2290802 324.11508179 C374.89050491 323.32645248 374.55192963 322.53782318 374.20309448 321.72529602 C373.49787397 320.08567385 372.79128517 318.44663952 372.08332825 316.80819702 C371.00658538 314.31218952 369.93905144 311.81236507 368.87165833 309.31234741 C368.1788568 307.70468502 367.48551677 306.09725457 366.7915802 304.49008179 C366.47793015 303.75250137 366.16428009 303.01492096 365.84112549 302.25498962 C362.67782408 294.9855971 359.18834512 288.57136547 351.6587677 285.17758179 C320.38926038 275.60708378 286.87581968 273.03937518 254.32673645 273.01742554 C253.41654755 273.01675079 252.50635864 273.01607605 251.56858826 273.01538086 C195.68812203 271.6722945 195.68812203 271.6722945 146.07673645 290.26742554 Z M82.07673645 328.26742554 C80.54461929 330.83862562 80.15458693 333.28686428 80.07673645 336.26742554 C81.15313692 340.12980369 82.19897583 342.41709494 85.07673645 345.20492554 C89.68878477 346.83835932 94.23404446 346.49641448 99.07673645 346.26742554 C105.24454741 335.75435965 105.24454741 335.75435965 108.07673645 324.26742554 C104.86871412 324.15044296 101.6612462 324.07991947 98.45173645 324.01742554 C97.54810364 323.98390991 96.64447083 323.95039429 95.7134552 323.91586304 C90.00646473 323.83254931 86.49602478 324.25693899 82.07673645 328.26742554 Z M397.07673645 324.26742554 C398.82894442 329.80704401 400.77672326 335.0785088 403.26423645 340.32992554 C403.79404114 341.4552771 404.32384583 342.58062866 404.8697052 343.74008179 C405.26802551 344.57410522 405.66634583 345.40812866 406.07673645 346.26742554 C414.66832629 346.95929728 414.66832629 346.95929728 422.07673645 343.26742554 C424.86864466 340.66806272 425.07784601 339.25882645 425.57673645 335.39242554 C425.41633809 330.6250297 423.41953184 328.53063056 420.07673645 325.26742554 C417.62398504 324.04104983 416.02615835 324.15327239 413.28767395 324.16976929 C411.87615051 324.17460327 411.87615051 324.17460327 410.43611145 324.17953491 C409.4512677 324.18791382 408.46642395 324.19629272 407.45173645 324.20492554 C405.96286926 324.21169312 405.96286926 324.21169312 404.44392395 324.21859741 C401.98813485 324.23040409 399.53246541 324.24687153 397.07673645 324.26742554 Z M126.07673645 367.26742554 C129.23579971 378.00317492 129.23579971 378.00317492 137.07673645 384.26742554 C138.99632716 384.56782244 138.99632716 384.56782244 141.11481953 384.52469444 C142.35135099 384.53436778 142.35135099 384.53436778 143.61286288 384.54423654 C144.51829544 384.54113934 145.423728 384.53804213 146.3565979 384.53485107 C147.79967026 384.54164774 147.79967026 384.54164774 149.27189559 384.54858172 C152.51003203 384.56128731 155.7480016 384.55960138 158.98616028 384.55795288 C161.30196348 384.56393432 163.61776468 384.57073897 165.93356323 384.57830811 C172.23525098 384.59601525 178.53688446 384.60066549 184.83859468 384.60193968 C190.09465477 384.60383599 195.35070214 384.61119049 200.60675734 384.61828387 C212.2969458 384.6336519 223.98710774 384.63962018 235.6773055 384.63827316 C236.72979311 384.6381533 236.72979311 384.6381533 237.80354309 384.63803101 C238.50605781 384.63794924 239.20857253 384.63786748 239.93237557 384.63778324 C251.31574143 384.63697048 262.69897492 384.65610462 274.08230249 384.68430774 C285.76902621 384.71303414 297.45567932 384.72648184 309.14243907 384.72512019 C315.70429095 384.72460966 322.26599313 384.73034282 328.8278141 384.75147629 C334.99938037 384.77080916 341.17065337 384.77101687 347.34222984 384.75644302 C349.60858461 384.75434763 351.8749575 384.75909907 354.14128113 384.77116394 C357.23317577 384.78655872 360.32405197 384.77734583 363.41592407 384.76190186 C364.31466446 384.77218898 365.21340485 384.78247611 366.1393798 384.79307497 C372.47377217 384.72306448 376.18142036 383.16274162 380.76423645 378.57992554 C382.75620171 375.07027246 383.80058637 371.09587578 385.07673645 367.26742554 C299.60673645 367.26742554 214.13673645 367.26742554 126.07673645 367.26742554 Z M105.07673645 371.26742554 C104.05289734 372.4166327 103.08289298 373.61401602 102.13923645 374.82992554 C101.61458801 375.4912146 101.08993958 376.15250366 100.5493927 376.83383179 C96.07318404 384.23085564 96.76634097 392.40258286 96.7759552 400.77523804 C96.77206278 402.18815231 96.76772699 403.60106542 96.76296997 405.01397705 C96.75553726 407.96422129 96.75577876 410.91434576 96.76106262 413.86459351 C96.76687209 417.63850621 96.74987692 421.41193048 96.72671795 425.18576241 C96.71196877 428.09919074 96.71111017 431.01250149 96.71422768 433.92596054 C96.71371567 435.31738126 96.70850062 436.70880876 96.69841576 438.10019302 C96.6860387 440.04538453 96.69479334 441.99067552 96.704422 443.93588257 C96.70379257 445.0406192 96.70316315 446.14535583 96.70251465 447.28356934 C97.22212795 451.42670418 98.94337623 453.99927247 101.68611145 457.06820679 C105.46174101 458.9621909 109.17155219 458.58152881 113.32673645 458.45492554 C114.1672052 458.44139038 115.00767395 458.42785522 115.87361145 458.41390991 C117.94159583 458.37866018 120.00924916 458.32485574 122.07673645 458.26742554 C122.09091614 457.15625366 122.10509583 456.04508179 122.1197052 454.90023804 C122.37641553 445.14634272 122.96516884 437.08789669 129.6822052 429.43930054 C137.64079365 421.93600891 146.51963475 421.76946552 156.95173645 421.82992554 C158.16732239 421.80994507 159.38290833 421.7899646 160.6353302 421.76937866 C170.10009795 421.77448371 177.83760992 423.10105369 185.01423645 429.57992554 C192.71694235 437.39618484 191.91470047 447.80910169 193.07673645 458.26742554 C232.67673645 458.26742554 272.27673645 458.26742554 313.07673645 458.26742554 C313.73673645 452.32742554 314.39673645 446.38742554 315.07673645 440.26742554 C319.62251742 431.1758636 319.62251742 431.1758636 322.82673645 428.45492554 C323.74712708 427.64088257 323.74712708 427.64088257 324.68611145 426.81039429 C332.49607164 421.76965201 339.88511154 421.77737924 348.95173645 421.82992554 C350.16732239 421.80994507 351.38290833 421.7899646 352.6353302 421.76937866 C362.10009795 421.77448371 369.83760992 423.10105369 377.01423645 429.57992554 C382.60435706 435.25245578 383.5982973 442.12299448 384.26423645 449.70492554 C384.34609192 450.53185913 384.42794739 451.35879272 384.51228333 452.21078491 C384.710575 454.22869436 384.89509047 456.24794965 385.07673645 458.26742554 C387.95333471 458.40311413 390.82347108 458.50183307 393.70173645 458.57992554 C394.50997864 458.62182007 395.31822083 458.6637146 396.1509552 458.70687866 C400.35148911 458.79225537 403.21520967 458.63929947 406.60017395 455.99789429 C410.31911396 451.89767494 410.20303759 448.70011879 410.23786926 443.28060913 C410.25228058 441.46754776 410.25228058 441.46754776 410.26698303 439.61785889 C410.27123291 438.31370026 410.27548279 437.00954163 410.27986145 435.66586304 C410.28268883 434.99799397 410.2855162 434.33012489 410.28842926 433.64201736 C410.30340299 430.10324969 410.31264215 426.56452253 410.31697083 423.02572632 C410.32243328 419.39461147 410.34641873 415.76387582 410.37494278 412.13287926 C410.39370304 409.32048516 410.39878195 406.50817965 410.4003067 403.6957283 C410.40475344 401.71399827 410.42333891 399.73231592 410.442276 397.75067139 C410.58477045 385.84650847 410.58477045 385.84650847 405.47254944 375.49945068 C405.01193115 375.09288239 404.55131287 374.68631409 404.07673645 374.26742554 C403.55724426 375.35281616 403.03775208 376.43820679 402.5025177 377.55648804 C401.79852797 379.00201362 401.0940762 380.44731424 400.38923645 381.89242554 C400.04956848 382.6052771 399.70990051 383.31812866 399.35993958 384.05258179 C395.13541707 392.65955287 389.954154 398.34163952 381.03406715 402.13641644 C370.865996 405.42657673 360.13958607 404.67911588 349.58210754 404.63973999 C347.29954869 404.64217053 345.0169909 404.64589239 342.73443604 404.65080261 C336.55900295 404.66017816 330.38372929 404.65081472 324.2083087 404.63747048 C317.73562832 404.62612323 311.26295542 404.63026596 304.79026794 404.63221741 C293.92446751 404.63309922 283.05873096 404.62211389 272.19294739 404.60360718 C261.02854017 404.58459704 249.86420557 404.57752278 238.69978333 404.58309937 C225.22007567 404.58981258 211.74042077 404.58650002 198.26071548 404.57399559 C193.12138396 404.56935749 187.98207215 404.56847233 182.84273911 404.57058144 C176.79012631 404.57246803 170.73760636 404.56433181 164.68501472 404.54852104 C162.46668571 404.5442867 160.24834725 404.54342191 158.03001595 404.54621124 C154.99677208 404.54944607 151.96380336 404.54031845 148.93058777 404.52812195 C148.05771571 404.53190127 147.18484364 404.5356806 146.28552091 404.53957444 C135.10942483 404.46035255 125.74370144 401.73955628 117.32673645 394.14242554 C113.26907283 389.83115794 111.20463951 384.72358724 109.07673645 379.26742554 C108.75575989 378.44758179 108.43478333 377.62773804 108.1040802 376.78305054 C107.40635005 374.95272587 106.73775721 373.11132556 106.07673645 371.26742554 C105.74673645 371.26742554 105.41673645 371.26742554 105.07673645 371.26742554 Z M142.07673645 445.26742554 C142.07673645 449.55742554 142.07673645 453.84742554 142.07673645 458.26742554 C151.97673645 458.26742554 161.87673645 458.26742554 172.07673645 458.26742554 C172.07673645 453.97742554 172.07673645 449.68742554 172.07673645 445.26742554 C168.15825717 441.04870602 168.15825717 441.04870602 163.2681427 440.73617554 C161.90012512 440.72844116 161.90012512 440.72844116 160.50447083 440.72055054 C159.08617981 440.74375366 159.08617981 440.74375366 157.63923645 440.76742554 C156.69757629 440.75195679 155.75591614 440.73648804 154.78572083 440.72055054 C153.41576965 440.72828491 153.41576965 440.72828491 152.0181427 440.73617554 C150.77592957 440.74294312 150.77592957 440.74294312 149.50862122 440.74984741 C146.35651367 441.23071066 146.35651367 441.23071066 142.07673645 445.26742554 Z M334.07673645 445.26742554 C334.07673645 449.55742554 334.07673645 453.84742554 334.07673645 458.26742554 C343.97673645 458.26742554 353.87673645 458.26742554 364.07673645 458.26742554 C364.07673645 453.97742554 364.07673645 449.68742554 364.07673645 445.26742554 C360.15825717 441.04870602 360.15825717 441.04870602 355.2681427 440.73617554 C353.90012512 440.72844116 353.90012512 440.72844116 352.50447083 440.72055054 C351.08617981 440.74375366 351.08617981 440.74375366 349.63923645 440.76742554 C348.69757629 440.75195679 347.75591614 440.73648804 346.78572083 440.72055054 C345.41576965 440.72828491 345.41576965 440.72828491 344.0181427 440.73617554 C342.77592957 440.74294312 342.77592957 440.74294312 341.50862122 440.74984741 C338.35651367 441.23071066 338.35651367 441.23071066 334.07673645 445.26742554 Z M97.07673645 477.26742554 C97.01885861 480.89235888 96.98318225 484.51717411 96.95173645 488.14242554 C96.93497864 489.1749646 96.91822083 490.20750366 96.9009552 491.27133179 C96.89450989 492.2574646 96.88806458 493.24359741 96.88142395 494.25961304 C96.87095032 495.17081909 96.86047668 496.08202515 96.84968567 497.02084351 C96.85802652 499.4703299 96.85802652 499.4703299 99.07673645 501.26742554 C101.08189767 501.57257817 101.08189767 501.57257817 103.40290833 501.5262146 C104.29723572 501.53251892 105.19156311 501.53882324 106.11299133 501.5453186 C107.08071472 501.54127014 108.04843811 501.53722168 109.04548645 501.53305054 C110.53235962 501.53592072 110.53235962 501.53592072 112.04927063 501.53884888 C114.14745843 501.54021139 116.24565464 501.53651036 118.34382629 501.52816772 C121.56358191 501.51746925 124.78277953 501.5280609 128.0025177 501.54086304 C130.03767519 501.53954145 132.07283233 501.53697909 134.10798645 501.53305054 C135.07570984 501.537099 136.04343323 501.54114746 137.04048157 501.5453186 C138.38197266 501.53586212 138.38197266 501.53586212 139.75056458 501.5262146 C140.53951111 501.52462341 141.32845764 501.52303223 142.14131165 501.52139282 C144.31408678 501.43614076 144.31408678 501.43614076 146.07673645 499.26742554 C146.35388541 497.13490461 146.35388541 497.13490461 146.27204895 494.69711304 C146.26238098 493.35326538 146.26238098 493.35326538 146.2525177 491.98226929 C146.23575989 491.04512085 146.21900208 490.10797241 146.20173645 489.14242554 C146.19271301 488.19754272 146.18368958 487.25265991 146.1743927 486.27914429 C146.15078167 483.94165262 146.11785161 481.6046643 146.07673645 479.26742554 C144.22326599 479.22984131 144.22326599 479.22984131 142.33235168 479.1914978 C137.7271116 479.09698701 133.12200706 478.99687465 128.516922 478.89511108 C126.52769655 478.85192683 124.53843797 478.81024084 122.54914856 478.77011108 C119.68194108 478.71200655 116.81489785 478.64842999 113.9478302 478.58383179 C113.06526047 478.56711929 112.18269073 478.5504068 111.27337646 478.53318787 C106.45618196 478.41885357 101.83100687 478.05933424 97.07673645 477.26742554 Z M406.05647278 477.74765015 C401.84248001 478.48272516 397.67160899 478.50389687 393.4009552 478.58383179 C392.01321648 478.61500343 392.01321648 478.61500343 390.59744263 478.64680481 C387.65311338 478.71199113 384.7086978 478.77104112 381.76423645 478.82992554 C379.76357662 478.87314018 377.76292539 478.9167554 375.76228333 478.96078491 C370.86718866 479.06764074 365.97200748 479.16899473 361.07673645 479.26742554 C361.01883292 482.5590187 360.98317384 485.85048157 360.95173645 489.14242554 C360.93497864 490.07957397 360.91822083 491.01672241 360.9009552 491.98226929 C360.89450989 492.87816772 360.88806458 493.77406616 360.88142395 494.69711304 C360.87095032 495.52453003 360.86047668 496.35194702 360.84968567 497.20443726 C360.88371388 499.49140711 360.88371388 499.49140711 363.07673645 501.26742554 C365.08189767 501.57257817 365.08189767 501.57257817 367.40290833 501.5262146 C368.29723572 501.53251892 369.19156311 501.53882324 370.11299133 501.5453186 C371.08071472 501.54127014 372.04843811 501.53722168 373.04548645 501.53305054 C374.53235962 501.53592072 374.53235962 501.53592072 376.04927063 501.53884888 C378.14745843 501.54021139 380.24565464 501.53651036 382.34382629 501.52816772 C385.56358191 501.51746925 388.78277953 501.5280609 392.0025177 501.54086304 C394.03767519 501.53954145 396.07283233 501.53697909 398.10798645 501.53305054 C399.07570984 501.537099 400.04343323 501.54114746 401.04048157 501.5453186 C402.38197266 501.53586212 402.38197266 501.53586212 403.75056458 501.5262146 C404.53951111 501.52462341 405.32845764 501.52303223 406.14131165 501.52139282 C408.31408678 501.43614076 408.31408678 501.43614076 410.07673645 499.26742554 C410.35439061 496.93925349 410.35439061 496.93925349 410.27204895 494.25961304 C410.26238098 492.78041382 410.26238098 492.78041382 410.2525177 491.27133179 C410.23575989 490.23879272 410.21900208 489.20625366 410.20173645 488.14242554 C410.19271301 487.1021521 410.18368958 486.06187866 410.1743927 484.99008179 C410.15077392 482.41563461 410.11783794 479.84164341 410.07673645 477.26742554 C408.05494125 477.19033879 408.05494125 477.19033879 406.05647278 477.74765015 Z " fill="#000000" transform="translate(88.92326354980469,23.732574462890625)"/>
<path d="M0 0 C0.92083374 -0.0065712 1.84166748 -0.0131424 2.79040527 -0.01991272 C5.84635503 -0.0396614 8.90225534 -0.05131858 11.95825195 -0.0612793 C13.00568888 -0.06535482 14.0531258 -0.06943035 15.13230324 -0.07362938 C20.68797229 -0.09450763 26.24361659 -0.10879562 31.79931641 -0.11816406 C37.50261597 -0.1291665 43.20551867 -0.16348948 48.90867901 -0.20333576 C53.32117873 -0.22966919 57.73358686 -0.23787117 62.14615822 -0.24144554 C64.24581359 -0.24627701 66.34546584 -0.25779102 68.44504356 -0.27648354 C83.95191354 -0.40583746 98.56473793 0.47251783 112.5090332 8.05200195 C113.17354492 8.39932373 113.83805664 8.74664551 114.52270508 9.10449219 C119.38987776 11.70378733 123.81222834 14.5838471 128.0090332 18.17700195 C128.63551758 18.65008789 129.26200195 19.12317383 129.9074707 19.6105957 C144.6551395 31.2979775 152.62429257 49.89399041 155.0090332 68.17700195 C156.51029651 89.02788124 151.14378128 108.49430251 137.84106445 124.84106445 C135.62993973 127.36045269 133.35421002 129.78236622 131.0090332 132.17700195 C130.43024414 132.79188477 129.85145508 133.40676758 129.25512695 134.0402832 C125.00634205 138.17500677 120.10876622 141.02747888 114.9465332 143.86450195 C114.29297852 144.23325439 113.63942383 144.60200684 112.96606445 144.98193359 C98.28125503 152.71344388 83.75267719 152.6989324 67.5715332 152.42700195 C65.47194102 152.40688998 63.37233006 152.38864759 61.27270508 152.37231445 C56.18434149 152.32872884 51.09690083 152.25996499 46.0090332 152.17700195 C46.02998047 153.32700684 46.05092773 154.47701172 46.07250977 155.66186523 C46.14512383 159.94445251 46.19091049 164.22698578 46.22875977 168.51000977 C46.24882659 170.36068892 46.27608666 172.21130504 46.31079102 174.06176758 C46.35952753 176.72794172 46.38205108 179.39327482 46.3996582 182.05981445 C46.42030334 182.88192413 46.44094849 183.70403381 46.46221924 184.55105591 C46.46429014 189.89999275 45.58020204 192.93924814 42.0090332 197.17700195 C39.58018907 198.39142402 37.98615359 198.32324176 35.27148438 198.35400391 C34.2867363 198.36683914 33.30198822 198.37967438 32.28739929 198.39289856 C30.68587761 198.40397896 30.68587761 198.40397896 29.05200195 198.4152832 C27.95688797 198.42335495 26.86177399 198.4314267 25.73347473 198.43974304 C23.4125019 198.453591 21.09150865 198.46430995 18.77050781 198.47216797 C15.22136837 198.4893815 11.67316004 198.53326255 8.12426758 198.57739258 C5.87101923 198.5875192 3.61776295 198.5960354 1.36450195 198.6027832 C-0.22791069 198.62904533 -0.22791069 198.62904533 -1.85249329 198.65583801 C-9.23443141 198.63411576 -9.23443141 198.63411576 -13.13818359 196.27539062 C-16.37961972 192.6042688 -16.13934806 189.59903369 -16.13813782 184.90885925 C-16.14181451 184.15113749 -16.14549119 183.39341573 -16.1492793 182.61273271 C-16.16033932 180.06017442 -16.16416388 177.50765681 -16.16796875 174.95507812 C-16.17423161 173.13040537 -16.18087825 171.3057339 -16.18788147 169.48106384 C-16.20530673 164.51406726 -16.21584721 159.54708031 -16.224087 154.58006072 C-16.2292335 151.47873437 -16.23530937 148.37741103 -16.24159813 145.27608681 C-16.26065374 135.57820671 -16.27488456 125.88033425 -16.2832101 116.18243903 C-16.29298745 104.97758953 -16.31931845 93.77293733 -16.35971099 82.56815737 C-16.38984052 73.91418099 -16.40467593 65.26026125 -16.40799111 56.60623342 C-16.41034505 51.4343878 -16.4193502 46.26275285 -16.44445229 41.09096336 C-16.46768297 36.2260799 -16.47198644 31.36154658 -16.4616909 26.49662209 C-16.46119422 24.71038272 -16.46755342 22.9241264 -16.48124695 21.13793945 C-16.4988906 18.70023587 -16.49189772 16.26379917 -16.47871399 13.82609558 C-16.48968324 13.11830764 -16.50065248 12.41051971 -16.51195413 11.68128365 C-16.46607988 8.17086078 -16.04090969 6.25601073 -14.1479826 3.2614336 C-10.05984551 -0.68913659 -5.35084683 0.01651696 0 0 Z M4.0090332 20.17700195 C4.0090332 72.31700195 4.0090332 124.45700195 4.0090332 178.17700195 C10.9390332 178.17700195 17.8690332 178.17700195 25.0090332 178.17700195 C25.04641602 175.57567383 25.08379883 172.9743457 25.12231445 170.29418945 C25.16858576 167.76220509 25.21979893 165.23036528 25.27148438 162.69848633 C25.30464541 160.94499569 25.33270463 159.19140057 25.35546875 157.43774414 C25.3891779 154.91027497 25.44150012 152.38375557 25.49731445 149.85668945 C25.50370438 149.07832733 25.5100943 148.29996521 25.51667786 147.49801636 C25.64451199 142.71693534 26.28514059 139.27155021 29.0090332 135.17700195 C32.11535821 133.17988474 34.5928418 132.92278639 38.24560547 132.90576172 C39.29091934 132.8955751 40.33623322 132.88538849 41.41322327 132.87489319 C42.53925461 132.87275314 43.66528595 132.8706131 44.82543945 132.8684082 C47.22322818 132.8432328 49.62101458 132.81783502 52.01879883 132.79223633 C55.78840447 132.76359154 59.55796937 132.73956984 63.32763672 132.72070312 C66.97295904 132.69890067 70.6177899 132.65943348 74.26293945 132.6184082 C75.37480118 132.61829239 76.4866629 132.61817657 77.63221741 132.61805725 C93.0427272 132.42547586 106.57532236 127.26030371 117.7590332 116.5246582 C128.90079171 104.89931643 134.81361187 91.37743085 135.0090332 75.17700195 C133.94330535 58.97399139 127.53446978 45.20930206 115.8840332 33.92700195 C86.52252422 9.19616423 34.67755241 20.17700195 4.0090332 20.17700195 Z " fill="#000000" transform="translate(122.990966796875,68.822998046875)"/>
<path d="M0 0 C2.8100346 1.79363911 4.50940468 3.01880935 6 6 C6.3751455 10.97067782 6.15878799 14.05151502 3 18 C-0.21855225 20.33067577 -3.10490526 20.46741137 -7 20 C-12.57894737 16.84210526 -12.57894737 16.84210526 -14 14 C-14.5811138 6.91041162 -14.5811138 6.91041162 -12.125 3.0625 C-8.49059499 -0.46501074 -4.90782663 -0.7051475 0 0 Z " fill="#000000" transform="translate(58,104)"/>
<path d="M0 0 C1.04208618 -0.01591187 2.08417236 -0.03182373 3.15783691 -0.04821777 C4.2807312 -0.04841919 5.40362549 -0.04862061 6.56054688 -0.04882812 C7.72501343 -0.05644165 8.88947998 -0.06405518 10.0892334 -0.07189941 C12.5571885 -0.08270894 15.02518938 -0.08555009 17.49316406 -0.08105469 C21.23777673 -0.08008883 24.98029597 -0.12156981 28.72460938 -0.16601562 C31.12825097 -0.17122786 33.53189963 -0.17391073 35.93554688 -0.17382812 C37.59559753 -0.19842102 37.59559753 -0.19842102 39.28918457 -0.22351074 C49.52840956 -0.13423877 58.09243169 2.62243718 65.71679688 9.60742188 C73.23050278 17.77567929 76.18946304 26.48203723 76.05664062 37.44726562 C75.18618379 46.77709166 70.75952197 54.87365831 63.89648438 61.13867188 C56.85354545 66.77302302 48.93089977 69.50618209 39.90063477 69.58105469 C38.95938248 69.59066223 38.01813019 69.60026978 37.0483551 69.61016846 C36.04304245 69.61441833 35.0377298 69.61866821 34.00195312 69.62304688 C32.95784775 69.62874695 31.91374237 69.63444702 30.83799744 69.64031982 C28.63330086 69.6497501 26.42859032 69.65629595 24.22387695 69.66015625 C20.85733478 69.66987701 17.49139943 69.7009257 14.125 69.73242188 C11.97982132 69.73895103 9.83463829 69.74420185 7.68945312 69.74804688 C6.18452049 69.76656708 6.18452049 69.76656708 4.64918518 69.78546143 C-0.62793909 69.76869195 -4.86841868 69.74976086 -9.22070312 66.41992188 C-12.86576254 60.55983229 -12.65862562 54.76369716 -12.61914062 48.00976562 C-12.6220108 46.92409805 -12.62488098 45.83843048 -12.62783813 44.71986389 C-12.62987289 42.43294755 -12.62438435 40.14601357 -12.61181641 37.85913086 C-12.5957395 34.36532614 -12.61169389 30.87267547 -12.63085938 27.37890625 C-12.62887714 25.15169016 -12.62503389 22.9244748 -12.61914062 20.69726562 C-12.62521332 19.65650375 -12.63128601 18.61574188 -12.63754272 17.54344177 C-12.58514926 12.12490318 -12.41714315 8.0200632 -9.22070312 3.41992188 C-6.14970214 0.61197895 -4.12796813 0.03801478 0 0 Z M8.77929688 20.41992188 C8.77929688 29.65992188 8.77929688 38.89992188 8.77929688 48.41992188 C13.93970321 48.51198066 19.09723788 48.59154465 24.2578125 48.63964844 C26.01149167 48.65970897 27.7651044 48.68696438 29.51855469 48.72167969 C32.04574005 48.7704449 34.57203779 48.79294579 37.09960938 48.81054688 C38.26715256 48.84151459 38.26715256 48.84151459 39.45828247 48.87310791 C45.59285839 48.87561144 49.12378139 46.98386786 53.59179688 42.66992188 C55.75892707 38.56378046 56.45322307 34.65703784 55.11914062 30.22851562 C53.15511906 25.91084877 51.27474766 23.33048846 46.77929688 21.41992188 C42.90590827 20.11801402 38.9879113 20.29345105 34.95117188 20.32226562 C34.20216614 20.32368057 33.4531604 20.32509552 32.68145752 20.32655334 C30.29736275 20.33213528 27.91336309 20.34468442 25.52929688 20.35742188 C23.90950657 20.36243921 22.28971478 20.36700171 20.66992188 20.37109375 C16.7063144 20.38124643 12.74291167 20.40082523 8.77929688 20.41992188 Z " fill="#000000" transform="translate(160.220703125,110.580078125)"/>
</svg>
